<?xml version="1.0" encoding="utf-8" standalone="no"?>
<!DOCTYPE svg PUBLIC "-//W3C//DTD SVG 1.1//EN"
  "http://www.w3.org/Graphics/SVG/1.1/DTD/svg11.dtd">
<!-- Created with matplotlib (https://matplotlib.org/) -->
<svg height="215.121045pt" version="1.1" viewBox="0 0 409.349952 215.121045" width="409.349952pt" xmlns="http://www.w3.org/2000/svg" xmlns:xlink="http://www.w3.org/1999/xlink">
 <defs>
  <style type="text/css">
*{stroke-linecap:butt;stroke-linejoin:round;}
  </style>
 </defs>
 <g id="figure_1">
  <g id="patch_1">
   <path d="M 0 215.121045 
L 409.349952 215.121045 
L 409.349952 0 
L 0 0 
z
" style="fill:#ffffff;"/>
  </g>
  <g id="axes_1">
   <g id="patch_2">
    <path d="M 39.449952 183.75198 
L 402.149952 183.75198 
L 402.149952 20.67198 
L 39.449952 20.67198 
z
" style="fill:#ffffff;"/>
   </g>
   <g id="matplotlib.axis_1">
    <g id="xtick_1">
     <g id="line2d_1">
      <defs>
       <path d="M 0 0 
L 0 2.5 
" id="m32f6319d10" style="stroke:#000000;stroke-width:0.4;"/>
      </defs>
      <g>
       <use style="stroke:#000000;stroke-width:0.4;" x="42.895757" xlink:href="#m32f6319d10" y="183.75198"/>
      </g>
     </g>
     <g id="text_1">
      <!-- $3.25$ -->
      <defs>
       <path d="M 22.09375 34 
C 31 34 34.90625 26.140625 34.90625 17.09375 
C 34.90625 5.03125 28.5 0.390625 22.703125 0.390625 
C 17.40625 0.390625 8.796875 3.015625 6.09375 10.796875 
C 6.59375 10.59375 7.09375 10.59375 7.59375 10.59375 
C 10 10.59375 11.796875 12.1875 11.796875 14.796875 
C 11.796875 17.6875 9.59375 19 7.59375 19 
C 5.90625 19 3.296875 18.1875 3.296875 14.484375 
C 3.296875 5.234375 12.296875 -2 22.90625 -2 
C 34 -2 42.5 6.75 42.5 16.984375 
C 42.5 26.84375 34.5 34 25 35.09375 
C 32.59375 36.671875 39.90625 43.375 39.90625 52.390625 
C 39.90625 60.25 32 66 23 66 
C 13.90625 66 5.90625 60.34375 5.90625 52.296875 
C 5.90625 48.796875 8.5 48.1875 9.796875 48.1875 
C 11.90625 48.1875 13.703125 49.484375 13.703125 52.09375 
C 13.703125 54.6875 11.90625 56 9.796875 56 
C 9.40625 56 8.90625 56 8.5 55.796875 
C 11.40625 62.484375 19.296875 63.6875 22.796875 63.6875 
C 26.296875 63.6875 32.90625 61.96875 32.90625 52.296875 
C 32.90625 49.484375 32.5 44.546875 29.09375 40.21875 
C 26.09375 36.390625 22.703125 36.1875 19.40625 35.890625 
C 18.90625 35.890625 16.59375 35.6875 16.203125 35.6875 
C 15.5 35.59375 15.09375 35.5 15.09375 34.796875 
C 15.09375 34.09375 15.203125 34 17.203125 34 
z
" id="CMR17-51"/>
       <path d="M 18.40625 4.796875 
C 18.40625 7.6875 16 9.6875 13.59375 9.6875 
C 10.703125 9.6875 8.703125 7.296875 8.703125 4.890625 
C 8.703125 2 11.09375 0 13.5 0 
C 16.40625 0 18.40625 2.390625 18.40625 4.796875 
z
" id="CMMI12-58"/>
       <path d="M 41.703125 15.46875 
L 39.90625 15.46875 
C 38.90625 8.390625 38.09375 7.1875 37.703125 6.59375 
C 37.203125 5.796875 30 5.796875 28.59375 5.796875 
L 9.40625 5.796875 
C 13 9.6875 20 16.765625 28.5 24.9375 
C 34.59375 30.71875 41.703125 37.5 41.703125 47.390625 
C 41.703125 59.1875 32.296875 66 21.796875 66 
C 10.796875 66 4.09375 56.296875 4.09375 47.296875 
C 4.09375 43.390625 7 42.890625 8.203125 42.890625 
C 9.203125 42.890625 12.203125 43.484375 12.203125 46.984375 
C 12.203125 50.09375 9.59375 51 8.203125 51 
C 7.59375 51 7 50.890625 6.59375 50.6875 
C 8.5 59.1875 14.296875 63.390625 20.40625 63.390625 
C 29.09375 63.390625 34.796875 56.5 34.796875 47.390625 
C 34.796875 38.703125 29.703125 31.21875 24 24.734375 
L 4.09375 2.296875 
L 4.09375 0 
L 39.296875 0 
z
" id="CMR17-50"/>
       <path d="M 11.40625 58.59375 
C 12.40625 58.1875 16.5 56.890625 20.703125 56.890625 
C 30 56.890625 35.09375 61.890625 38 64.6875 
C 38 65.484375 38 66 37.40625 66 
C 37.296875 66 37.09375 66 36.296875 65.59375 
C 32.796875 64.09375 28.703125 63 23.703125 63 
C 20.703125 63 16.203125 63.359375 11.296875 65.484375 
C 10.203125 66 10 66 9.90625 66 
C 9.40625 66 9.296875 65.890625 9.296875 63.90625 
L 9.296875 34.859375 
C 9.296875 33.015625 9.296875 32.5 10.296875 32.5 
C 10.796875 32.5 11 32.703125 11.5 33.421875 
C 14.703125 38.046875 19.09375 40 24.09375 40 
C 27.59375 40 35.09375 37.734375 35.09375 20.203125 
C 35.09375 16.984375 35.09375 11.1875 32.09375 6.59375 
C 29.59375 2.484375 25.703125 0.390625 21.40625 0.390625 
C 14.796875 0.390625 8.09375 4.984375 6.296875 12.6875 
C 6.703125 12.59375 7.5 12.390625 7.90625 12.390625 
C 9.203125 12.390625 11.703125 13.09375 11.703125 16.1875 
C 11.703125 18.890625 9.796875 20 7.90625 20 
C 5.59375 20 4.09375 18.59375 4.09375 15.796875 
C 4.09375 7.09375 11 -2 21.59375 -2 
C 31.90625 -2 41.703125 6.890625 41.703125 19.796875 
C 41.703125 32.09375 33.90625 41.59375 24.203125 41.59375 
C 19.09375 41.59375 14.796875 39.6875 11.40625 36 
z
" id="CMR17-53"/>
      </defs>
      <g transform="translate(35.755837 194.594918)scale(0.07 -0.07)">
       <use transform="scale(0.996264)" xlink:href="#CMR17-51"/>
       <use transform="translate(45.690477 0)scale(0.996264)" xlink:href="#CMMI12-58"/>
       <use transform="translate(72.787654 0)scale(0.996264)" xlink:href="#CMR17-50"/>
       <use transform="translate(118.478131 0)scale(0.996264)" xlink:href="#CMR17-53"/>
      </g>
     </g>
    </g>
    <g id="xtick_2">
     <g id="line2d_2">
      <g>
       <use style="stroke:#000000;stroke-width:0.4;" x="92.386219" xlink:href="#m32f6319d10" y="183.75198"/>
      </g>
     </g>
     <g id="text_2">
      <!-- $3.50$ -->
      <defs>
       <path d="M 42 31.84375 
C 42 37.96875 41.90625 48.421875 37.703125 56.453125 
C 34 63.484375 28.09375 66 22.90625 66 
C 18.09375 66 12 63.78125 8.203125 56.5625 
C 4.203125 49.015625 3.796875 39.671875 3.796875 31.84375 
C 3.796875 26.109375 3.90625 17.375 7 9.734375 
C 11.296875 -0.609375 19 -2 22.90625 -2 
C 27.5 -2 34.5 -0.109375 38.59375 9.4375 
C 41.59375 16.375 42 24.5 42 31.84375 
z
M 22.90625 -0.40625 
C 16.5 -0.40625 12.703125 5.125 11.296875 12.75 
C 10.203125 18.6875 10.203125 27.328125 10.203125 32.953125 
C 10.203125 40.6875 10.203125 47.109375 11.5 53.234375 
C 13.40625 61.78125 19 64.390625 22.90625 64.390625 
C 27 64.390625 32.296875 61.671875 34.203125 53.4375 
C 35.5 47.71875 35.59375 40.984375 35.59375 32.953125 
C 35.59375 26.421875 35.59375 18.375 34.40625 12.453125 
C 32.296875 1.5 26.40625 -0.40625 22.90625 -0.40625 
z
" id="CMR17-48"/>
      </defs>
      <g transform="translate(85.246299 194.594918)scale(0.07 -0.07)">
       <use transform="scale(0.996264)" xlink:href="#CMR17-51"/>
       <use transform="translate(45.690477 0)scale(0.996264)" xlink:href="#CMMI12-58"/>
       <use transform="translate(72.787654 0)scale(0.996264)" xlink:href="#CMR17-53"/>
       <use transform="translate(118.478131 0)scale(0.996264)" xlink:href="#CMR17-48"/>
      </g>
     </g>
    </g>
    <g id="xtick_3">
     <g id="line2d_3">
      <g>
       <use style="stroke:#000000;stroke-width:0.4;" x="141.876681" xlink:href="#m32f6319d10" y="183.75198"/>
      </g>
     </g>
     <g id="text_3">
      <!-- $3.75$ -->
      <defs>
       <path d="M 45.09375 61.796875 
L 45.09375 64 
L 21.59375 64 
C 9.90625 64 9.703125 65.09375 9.296875 67 
L 7.5 67 
L 4.59375 48.5 
L 6.40625 48.5 
C 6.703125 50.40625 7.40625 55.5 8.59375 57.390625 
C 9.203125 58.1875 16.59375 58.1875 18.296875 58.1875 
L 40.296875 58.1875 
L 29.203125 41.71875 
C 21.796875 30.640625 16.703125 15.671875 16.703125 2.59375 
C 16.703125 1.390625 16.703125 -2 20.296875 -2 
C 23.90625 -2 23.90625 1.390625 23.90625 2.6875 
L 23.90625 7.28125 
C 23.90625 23.65625 26.703125 34.4375 31.296875 41.3125 
z
" id="CMR17-55"/>
      </defs>
      <g transform="translate(134.736761 194.594918)scale(0.07 -0.07)">
       <use transform="scale(0.996264)" xlink:href="#CMR17-51"/>
       <use transform="translate(45.690477 0)scale(0.996264)" xlink:href="#CMMI12-58"/>
       <use transform="translate(72.787654 0)scale(0.996264)" xlink:href="#CMR17-55"/>
       <use transform="translate(118.478131 0)scale(0.996264)" xlink:href="#CMR17-53"/>
      </g>
     </g>
    </g>
    <g id="xtick_4">
     <g id="line2d_4">
      <g>
       <use style="stroke:#000000;stroke-width:0.4;" x="191.367142" xlink:href="#m32f6319d10" y="183.75198"/>
      </g>
     </g>
     <g id="text_4">
      <!-- $4.00$ -->
      <defs>
       <path d="M 33.59375 64.796875 
C 33.59375 66.890625 33.5 67 31.703125 67 
L 2 19.59375 
L 2 17 
L 27.796875 17 
L 27.796875 7.1875 
C 27.796875 3.59375 27.59375 2.59375 20.59375 2.59375 
L 18.703125 2.59375 
L 18.703125 0 
C 21.90625 0.1875 27.296875 0.1875 30.703125 0.1875 
C 34.09375 0.1875 39.5 0.1875 42.703125 0 
L 42.703125 2.59375 
L 40.796875 2.59375 
C 33.796875 2.59375 33.59375 3.59375 33.59375 7.1875 
L 33.59375 17 
L 43.796875 17 
L 43.796875 19.59375 
L 33.59375 19.59375 
z
M 28.09375 58.171875 
L 28.09375 19.59375 
L 4 19.59375 
z
" id="CMR17-52"/>
      </defs>
      <g transform="translate(184.227222 194.594918)scale(0.07 -0.07)">
       <use transform="scale(0.996264)" xlink:href="#CMR17-52"/>
       <use transform="translate(45.690477 0)scale(0.996264)" xlink:href="#CMMI12-58"/>
       <use transform="translate(72.787654 0)scale(0.996264)" xlink:href="#CMR17-48"/>
       <use transform="translate(118.478131 0)scale(0.996264)" xlink:href="#CMR17-48"/>
      </g>
     </g>
    </g>
    <g id="xtick_5">
     <g id="line2d_5">
      <g>
       <use style="stroke:#000000;stroke-width:0.4;" x="240.857604" xlink:href="#m32f6319d10" y="183.75198"/>
      </g>
     </g>
     <g id="text_5">
      <!-- $4.25$ -->
      <g transform="translate(233.717684 194.594918)scale(0.07 -0.07)">
       <use transform="scale(0.996264)" xlink:href="#CMR17-52"/>
       <use transform="translate(45.690477 0)scale(0.996264)" xlink:href="#CMMI12-58"/>
       <use transform="translate(72.787654 0)scale(0.996264)" xlink:href="#CMR17-50"/>
       <use transform="translate(118.478131 0)scale(0.996264)" xlink:href="#CMR17-53"/>
      </g>
     </g>
    </g>
    <g id="xtick_6">
     <g id="line2d_6">
      <g>
       <use style="stroke:#000000;stroke-width:0.4;" x="290.348065" xlink:href="#m32f6319d10" y="183.75198"/>
      </g>
     </g>
     <g id="text_6">
      <!-- $4.50$ -->
      <g transform="translate(283.208145 194.594918)scale(0.07 -0.07)">
       <use transform="scale(0.996264)" xlink:href="#CMR17-52"/>
       <use transform="translate(45.690477 0)scale(0.996264)" xlink:href="#CMMI12-58"/>
       <use transform="translate(72.787654 0)scale(0.996264)" xlink:href="#CMR17-53"/>
       <use transform="translate(118.478131 0)scale(0.996264)" xlink:href="#CMR17-48"/>
      </g>
     </g>
    </g>
    <g id="xtick_7">
     <g id="line2d_7">
      <g>
       <use style="stroke:#000000;stroke-width:0.4;" x="339.838527" xlink:href="#m32f6319d10" y="183.75198"/>
      </g>
     </g>
     <g id="text_7">
      <!-- $4.75$ -->
      <g transform="translate(332.698607 194.594918)scale(0.07 -0.07)">
       <use transform="scale(0.996264)" xlink:href="#CMR17-52"/>
       <use transform="translate(45.690477 0)scale(0.996264)" xlink:href="#CMMI12-58"/>
       <use transform="translate(72.787654 0)scale(0.996264)" xlink:href="#CMR17-55"/>
       <use transform="translate(118.478131 0)scale(0.996264)" xlink:href="#CMR17-53"/>
      </g>
     </g>
    </g>
    <g id="xtick_8">
     <g id="line2d_8">
      <g>
       <use style="stroke:#000000;stroke-width:0.4;" x="389.328988" xlink:href="#m32f6319d10" y="183.75198"/>
      </g>
     </g>
     <g id="text_8">
      <!-- $5.00$ -->
      <g transform="translate(382.189068 194.594918)scale(0.07 -0.07)">
       <use transform="scale(0.996264)" xlink:href="#CMR17-53"/>
       <use transform="translate(45.690477 0)scale(0.996264)" xlink:href="#CMMI12-58"/>
       <use transform="translate(72.787654 0)scale(0.996264)" xlink:href="#CMR17-48"/>
       <use transform="translate(118.478131 0)scale(0.996264)" xlink:href="#CMR17-48"/>
      </g>
     </g>
    </g>
    <g id="text_9">
     <!-- Strike -->
     <defs>
      <path d="M 43.796875 67.984375 
C 43.796875 69.796875 43.703125 69.890625 43.09375 69.890625 
C 42.5 69.890625 42.296875 69.484375 41.90625 68.59375 
L 38.90625 61.953125 
C 35.09375 67.5 29.296875 70 23 70 
C 12.796875 70 4.59375 61.84375 4.59375 51.578125 
C 4.59375 48.453125 5.296875 44.015625 8.703125 39.78125 
C 12.40625 35.15625 15.90625 34.34375 23.90625 32.234375 
C 26.90625 31.421875 31.90625 30.109375 32.90625 29.703125 
C 38.59375 27.296875 41.59375 21.25 41.59375 15.609375 
C 41.59375 8.34375 36.5 0.59375 27.796875 0.59375 
C 17.09375 0.59375 7.09375 6.640625 6.40625 20.75 
C 6.296875 22.359375 6.203125 22.453125 5.5 22.453125 
C 4.703125 22.453125 4.59375 22.359375 4.59375 20.34375 
L 4.59375 0 
C 4.59375 -1.8125 4.703125 -1.90625 5.296875 -1.90625 
C 6 -1.90625 6.203125 -1.40625 7.59375 1.703125 
C 7.703125 2 7.703125 2.203125 9.59375 6.03125 
C 14.59375 -0.609375 23 -2 27.796875 -2 
C 38.703125 -2 46.40625 7.140625 46.40625 17.828125 
C 46.40625 23.0625 44.5 27.09375 43.40625 28.90625 
C 39.203125 35.359375 34.703125 36.5625 29.90625 37.765625 
C 29.203125 38.078125 29 38.078125 23.40625 39.484375 
C 18 40.890625 15.703125 41.59375 13.203125 44.3125 
C 10.40625 47.4375 9.40625 50.671875 9.40625 53.890625 
C 9.40625 60.4375 14.59375 67.59375 23.09375 67.59375 
C 33.703125 67.59375 40.296875 60.03125 41.796875 47.4375 
C 42.09375 45.625 42.203125 45.53125 42.90625 45.53125 
C 43.796875 45.53125 43.796875 45.828125 43.796875 47.546875 
z
" id="CMR17-83"/>
      <path d="M 15.09375 40.390625 
L 29.09375 40.390625 
L 29.09375 43 
L 15.09375 43 
L 15.09375 62 
L 13.296875 62 
C 13.09375 51.4375 9.59375 42.1875 1.09375 41.984375 
L 1.09375 40.390625 
L 9.796875 40.390625 
L 9.796875 12.15625 
C 9.796875 10.234375 9.796875 -1 21.40625 -1 
C 27.296875 -1 30.703125 4.8125 30.703125 12.25 
L 30.703125 17.984375 
L 28.90625 17.984375 
L 28.90625 12.34375 
C 28.90625 5.421875 26.203125 0.796875 22 0.796875 
C 19.09375 0.796875 15.09375 2.796875 15.09375 11.953125 
z
" id="CMR17-116"/>
      <path d="M 15 23.703125 
C 15 33.34375 19.09375 42.390625 26.59375 42.390625 
C 27.296875 42.390625 28 42.296875 28.703125 41.984375 
C 28.703125 41.984375 26.5 41.28125 26.5 38.671875 
C 26.5 36.265625 28.40625 35.265625 29.90625 35.265625 
C 31.09375 35.265625 33.296875 35.96875 33.296875 38.78125 
C 33.296875 41.984375 30.09375 44 26.703125 44 
C 19.09375 44 15.796875 36.5625 14.796875 33.046875 
L 14.703125 33.046875 
L 14.703125 44 
L 3.09375 42.890625 
L 3.09375 40.28125 
C 9 40.28125 9.90625 39.6875 9.90625 34.859375 
L 9.90625 6.921875 
C 9.90625 3.09375 9.5 2.59375 3.09375 2.59375 
L 3.09375 0 
C 5.5 0.1875 10.09375 0.1875 12.703125 0.1875 
C 15.59375 0.1875 20.703125 0.1875 23.40625 0 
L 23.40625 2.59375 
C 16.203125 2.59375 15 2.59375 15 7.109375 
z
" id="CMR17-114"/>
      <path d="M 15.5 61.890625 
C 15.5 64.09375 13.703125 66 11.40625 66 
C 9.203125 66 7.296875 64.1875 7.296875 61.890625 
C 7.296875 59.6875 9.09375 57.796875 11.40625 57.796875 
C 13.59375 57.796875 15.5 59.59375 15.5 61.890625 
z
M 3.796875 42.890625 
L 3.796875 40.296875 
C 9.40625 40.296875 10.203125 39.6875 10.203125 34.859375 
L 10.203125 6.921875 
C 10.203125 3.09375 9.796875 2.59375 3.40625 2.59375 
L 3.40625 0 
C 5.796875 0.1875 10.09375 0.1875 12.59375 0.1875 
C 15 0.1875 19.09375 0.1875 21.40625 0 
L 21.40625 2.59375 
C 15.5 2.59375 15.296875 3.203125 15.296875 6.8125 
L 15.296875 44 
z
" id="CMR17-105"/>
      <path d="M 26.09375 26.234375 
C 26 26.4375 25.5 27.03125 25.5 27.328125 
C 25.5 27.53125 32.59375 33.984375 33.5 34.78125 
C 39.203125 39.5625 42.796875 40.046875 45.40625 40.15625 
L 45.40625 42.734375 
C 44.796875 42.734375 44.59375 42.734375 44.5 42.640625 
L 39.59375 42.53125 
C 36.796875 42.53125 32.5 42.53125 29.796875 42.734375 
L 29.796875 40.15625 
C 31.203125 40.046875 32.203125 39.265625 32.203125 37.859375 
C 32.203125 35.875 30.203125 33.984375 30.09375 33.984375 
L 15 20.28125 
L 15 69 
L 3.09375 67.890625 
L 3.09375 65.296875 
C 9 65.296875 9.90625 64.703125 9.90625 59.921875 
L 9.90625 6.859375 
C 9.90625 3.09375 9.5 2.59375 3.09375 2.59375 
L 3.09375 0 
C 5.5 0.1875 9.90625 0.1875 12.40625 0.1875 
C 14.90625 0.1875 19.296875 0.1875 21.703125 0 
L 21.703125 2.59375 
C 15.296875 2.59375 14.90625 2.984375 14.90625 6.859375 
L 14.90625 17.796875 
L 21.796875 24.0625 
L 31.90625 9.15625 
C 33.09375 7.359375 34.09375 5.96875 34.09375 4.671875 
C 34.09375 2.890625 32.296875 2.59375 31.09375 2.59375 
L 31.09375 0 
C 33.5 0.1875 37.796875 0.1875 40.296875 0.1875 
C 42.09375 0.1875 45.796875 0.09375 47.5 0 
L 47.5 2.59375 
C 42.796875 2.59375 41.703125 3.484375 38.703125 7.859375 
z
" id="CMR17-107"/>
      <path d="M 38.09375 23.484375 
C 38.5 23.890625 38.5 24.09375 38.5 25.09375 
C 38.5 35.171875 33.09375 44 21.703125 44 
C 11.09375 44 2.703125 33.984375 2.703125 21.78125 
C 2.703125 8.65625 12.203125 -1 22.796875 -1 
C 34 -1 38.40625 9.671875 38.40625 11.796875 
C 38.40625 12.5 37.796875 12.5 37.59375 12.5 
C 36.90625 12.5 36.796875 12.296875 36.40625 11.078125 
C 34.203125 4.21875 28.703125 0.796875 23.5 0.796875 
C 19.203125 0.796875 14.90625 3.21875 12.203125 7.65625 
C 9.09375 12.796875 9.09375 18.75 9.09375 23.484375 
z
M 9.203125 25 
C 9.90625 39.234375 17.59375 42.390625 21.59375 42.390625 
C 28.40625 42.390625 33 36.0625 33.09375 25 
z
" id="CMR17-101"/>
     </defs>
     <g transform="translate(209.012642 206.177583)scale(0.09 -0.09)">
      <use transform="scale(0.996264)" xlink:href="#CMR17-83"/>
      <use transform="translate(50.89537 0)scale(0.996264)" xlink:href="#CMR17-116"/>
      <use transform="translate(86.176138 0)scale(0.996264)" xlink:href="#CMR17-114"/>
      <use transform="translate(121.456905 0)scale(0.996264)" xlink:href="#CMR17-105"/>
      <use transform="translate(146.327964 0)scale(0.996264)" xlink:href="#CMR17-107"/>
      <use transform="translate(192.018426 0)scale(0.996264)" xlink:href="#CMR17-101"/>
     </g>
    </g>
   </g>
   <g id="matplotlib.axis_2">
    <g id="ytick_1">
     <g id="line2d_9">
      <defs>
       <path d="M 0 0 
L -2.5 0 
" id="m6dc9ccf70c" style="stroke:#000000;stroke-width:0.4;"/>
      </defs>
      <g>
       <use style="stroke:#000000;stroke-width:0.4;" x="39.449952" xlink:href="#m6dc9ccf70c" y="158.742083"/>
      </g>
     </g>
     <g id="text_10">
      <!-- $0.14$ -->
      <defs>
       <path d="M 26.59375 63.796875 
C 26.59375 65.890625 26.5 66 25.09375 66 
C 21.203125 61.359375 15.296875 59.890625 9.703125 59.6875 
C 9.40625 59.6875 8.90625 59.6875 8.796875 59.5 
C 8.703125 59.296875 8.703125 59.09375 8.703125 57 
C 11.796875 57 17 57.59375 21 59.984375 
L 21 7.296875 
C 21 3.796875 20.796875 2.59375 12.203125 2.59375 
L 9.203125 2.59375 
L 9.203125 0 
C 14 0.09375 19 0.1875 23.796875 0.1875 
C 28.59375 0.1875 33.59375 0.09375 38.40625 0 
L 38.40625 2.59375 
L 35.40625 2.59375 
C 26.796875 2.59375 26.59375 3.6875 26.59375 7.296875 
z
" id="CMR17-49"/>
      </defs>
      <g transform="translate(19.170112 161.163552)scale(0.07 -0.07)">
       <use transform="scale(0.996264)" xlink:href="#CMR17-48"/>
       <use transform="translate(45.690477 0)scale(0.996264)" xlink:href="#CMMI12-58"/>
       <use transform="translate(72.787654 0)scale(0.996264)" xlink:href="#CMR17-49"/>
       <use transform="translate(118.478131 0)scale(0.996264)" xlink:href="#CMR17-52"/>
      </g>
     </g>
    </g>
    <g id="ytick_2">
     <g id="line2d_10">
      <g>
       <use style="stroke:#000000;stroke-width:0.4;" x="39.449952" xlink:href="#m6dc9ccf70c" y="128.724183"/>
      </g>
     </g>
     <g id="text_11">
      <!-- $0.16$ -->
      <defs>
       <path d="M 10.59375 34.34375 
C 10.59375 58 21.796875 63.6875 28.296875 63.6875 
C 30.40625 63.6875 35.5 63.265625 37.5 59.09375 
C 35.90625 59.09375 32.90625 59.09375 32.90625 55.59375 
C 32.90625 52.890625 35.09375 52 36.5 52 
C 37.40625 52 40.09375 52.390625 40.09375 55.796875 
C 40.09375 62.296875 35.09375 66 28.203125 66 
C 16.296875 66 3.796875 53.296875 3.796875 31.421875 
C 3.796875 4.015625 15.09375 -2 23.09375 -2 
C 32.796875 -2 42 6.734375 42 20.234375 
C 42 32.828125 33.90625 42 23.703125 42 
C 17.59375 42 13.09375 37.96875 10.59375 30.921875 
z
M 23.09375 0.390625 
C 10.796875 0.390625 10.796875 18.9375 10.796875 22.65625 
C 10.796875 29.90625 14.203125 40.390625 23.5 40.390625 
C 25.203125 40.390625 30.09375 40.390625 33.40625 33.4375 
C 35.203125 29.515625 35.203125 25.375 35.203125 20.34375 
C 35.203125 14.90625 35.203125 10.875 33.09375 6.84375 
C 30.90625 2.703125 27.703125 0.390625 23.09375 0.390625 
z
" id="CMR17-54"/>
      </defs>
      <g transform="translate(19.170112 131.145652)scale(0.07 -0.07)">
       <use transform="scale(0.996264)" xlink:href="#CMR17-48"/>
       <use transform="translate(45.690477 0)scale(0.996264)" xlink:href="#CMMI12-58"/>
       <use transform="translate(72.787654 0)scale(0.996264)" xlink:href="#CMR17-49"/>
       <use transform="translate(118.478131 0)scale(0.996264)" xlink:href="#CMR17-54"/>
      </g>
     </g>
    </g>
    <g id="ytick_3">
     <g id="line2d_11">
      <g>
       <use style="stroke:#000000;stroke-width:0.4;" x="39.449952" xlink:href="#m6dc9ccf70c" y="98.706284"/>
      </g>
     </g>
     <g id="text_12">
      <!-- $0.18$ -->
      <defs>
       <path d="M 27.203125 35.765625 
C 33.5 38.96875 39.90625 43.796875 39.90625 51.53125 
C 39.90625 60.6875 31.09375 66 23 66 
C 13.90625 66 5.90625 59.375 5.90625 50.234375 
C 5.90625 47.71875 6.5 43.390625 10.40625 39.578125 
C 11.40625 38.578125 15.59375 35.5625 18.296875 33.65625 
C 13.796875 31.34375 3.296875 25.8125 3.296875 14.765625 
C 3.296875 4.40625 13.09375 -2 22.796875 -2 
C 33.5 -2 42.5 5.71875 42.5 15.96875 
C 42.5 25.109375 36.40625 29.328125 32.40625 32.046875 
z
M 14.09375 44.609375 
C 13.296875 45.109375 9.296875 48.21875 9.296875 52.9375 
C 9.296875 59.078125 15.59375 63.6875 22.796875 63.6875 
C 30.703125 63.6875 36.5 58.0625 36.5 51.53125 
C 36.5 42.1875 26.09375 36.859375 25.59375 36.859375 
C 25.5 36.859375 25.40625 36.859375 24.59375 37.46875 
z
M 32.5 24 
C 34 22.90625 38.796875 19.578125 38.796875 13.453125 
C 38.796875 6.015625 31.40625 0.390625 23 0.390625 
C 13.90625 0.390625 7 6.921875 7 14.859375 
C 7 22.796875 13.09375 29.4375 20 32.546875 
z
" id="CMR17-56"/>
      </defs>
      <g transform="translate(19.170112 101.127753)scale(0.07 -0.07)">
       <use transform="scale(0.996264)" xlink:href="#CMR17-48"/>
       <use transform="translate(45.690477 0)scale(0.996264)" xlink:href="#CMMI12-58"/>
       <use transform="translate(72.787654 0)scale(0.996264)" xlink:href="#CMR17-49"/>
       <use transform="translate(118.478131 0)scale(0.996264)" xlink:href="#CMR17-56"/>
      </g>
     </g>
    </g>
    <g id="ytick_4">
     <g id="line2d_12">
      <g>
       <use style="stroke:#000000;stroke-width:0.4;" x="39.449952" xlink:href="#m6dc9ccf70c" y="68.688384"/>
      </g>
     </g>
     <g id="text_13">
      <!-- $0.20$ -->
      <g transform="translate(19.170112 71.109853)scale(0.07 -0.07)">
       <use transform="scale(0.996264)" xlink:href="#CMR17-48"/>
       <use transform="translate(45.690477 0)scale(0.996264)" xlink:href="#CMMI12-58"/>
       <use transform="translate(72.787654 0)scale(0.996264)" xlink:href="#CMR17-50"/>
       <use transform="translate(118.478131 0)scale(0.996264)" xlink:href="#CMR17-48"/>
      </g>
     </g>
    </g>
    <g id="ytick_5">
     <g id="line2d_13">
      <g>
       <use style="stroke:#000000;stroke-width:0.4;" x="39.449952" xlink:href="#m6dc9ccf70c" y="38.670484"/>
      </g>
     </g>
     <g id="text_14">
      <!-- $0.22$ -->
      <g transform="translate(19.170112 41.091953)scale(0.07 -0.07)">
       <use transform="scale(0.996264)" xlink:href="#CMR17-48"/>
       <use transform="translate(45.690477 0)scale(0.996264)" xlink:href="#CMMI12-58"/>
       <use transform="translate(72.787654 0)scale(0.996264)" xlink:href="#CMR17-50"/>
       <use transform="translate(118.478131 0)scale(0.996264)" xlink:href="#CMR17-50"/>
      </g>
     </g>
    </g>
    <g id="text_15">
     <!-- Implied volatility -->
     <defs>
      <path d="M 19.703125 60.90625 
C 19.703125 65.390625 20.90625 65.390625 28.09375 65.390625 
L 28.09375 68 
C 24.90625 67.796875 19.796875 67.796875 16.40625 67.796875 
C 13 67.796875 7.90625 67.796875 4.703125 68 
L 4.703125 65.390625 
C 11.90625 65.390625 13.09375 65.390625 13.09375 60.90625 
L 13.09375 7.078125 
C 13.09375 2.59375 11.90625 2.59375 4.703125 2.59375 
L 4.703125 0 
C 7.90625 0.1875 13 0.1875 16.40625 0.1875 
C 19.796875 0.1875 24.90625 0.1875 28.09375 0 
L 28.09375 2.59375 
C 20.90625 2.59375 19.703125 2.59375 19.703125 7.078125 
z
" id="CMR17-73"/>
      <path d="M 67.59375 30.53125 
C 67.59375 35.5625 66.703125 44 54.796875 44 
C 48 44 43.296875 39.375 41.5 33.953125 
L 41.40625 33.953125 
C 40.203125 42.1875 34.296875 44 28.703125 44 
C 20.796875 44 16.703125 37.875 15.203125 33.84375 
L 15.09375 33.84375 
L 15.09375 44 
L 3.296875 42.890625 
L 3.296875 40.28125 
C 9.203125 40.28125 10.09375 39.6875 10.09375 34.859375 
L 10.09375 6.921875 
C 10.09375 3.09375 9.703125 2.59375 3.296875 2.59375 
L 3.296875 0 
C 5.703125 0.1875 10.09375 0.1875 12.703125 0.1875 
C 15.296875 0.1875 19.796875 0.1875 22.203125 0 
L 22.203125 2.59375 
C 15.796875 2.59375 15.40625 3 15.40625 6.921875 
L 15.40625 26.21875 
C 15.40625 35.453125 21 42.390625 28 42.390625 
C 35.40625 42.390625 36.203125 35.765625 36.203125 30.9375 
L 36.203125 6.921875 
C 36.203125 3.09375 35.796875 2.59375 29.40625 2.59375 
L 29.40625 0 
C 31.796875 0.1875 36.203125 0.1875 38.796875 0.1875 
C 41.40625 0.1875 45.90625 0.1875 48.296875 0 
L 48.296875 2.59375 
C 41.90625 2.59375 41.5 3 41.5 6.921875 
L 41.5 26.21875 
C 41.5 35.453125 47.09375 42.390625 54.09375 42.390625 
C 61.5 42.390625 62.296875 35.765625 62.296875 30.9375 
L 62.296875 6.921875 
C 62.296875 3.09375 61.90625 2.59375 55.5 2.59375 
L 55.5 0 
C 57.90625 0.1875 62.296875 0.1875 64.90625 0.1875 
C 67.5 0.1875 72 0.1875 74.40625 0 
L 74.40625 2.59375 
C 68 2.59375 67.59375 3 67.59375 6.921875 
z
" id="CMR17-109"/>
      <path d="M 22 -17.40625 
C 15.59375 -17.40625 15.203125 -17 15.203125 -13.03125 
L 15.203125 5.9375 
C 18.09375 1.703125 22.296875 -1 27.59375 -1 
C 37.59375 -1 47.703125 7.859375 47.703125 21.59375 
C 47.703125 34.3125 39 44 28.703125 44 
C 22.703125 44 17.796875 40.671875 15 36.640625 
L 15 44 
L 3.09375 42.890625 
L 3.09375 40.265625 
C 9 40.265625 9.90625 39.671875 9.90625 34.8125 
L 9.90625 -13.03125 
C 9.90625 -16.890625 9.5 -17.40625 3.09375 -17.40625 
L 3.09375 -20 
C 5.5 -19.8125 9.90625 -19.8125 12.5 -19.8125 
C 15.09375 -19.8125 19.59375 -19.8125 22 -20 
z
M 15.203125 31.484375 
C 15.203125 32.90625 15.203125 35.015625 19.09375 38.765625 
C 19.59375 39.15625 23 42.1875 28 42.1875 
C 35.296875 42.1875 41.296875 33 41.296875 21.5 
C 41.296875 9.984375 34.90625 0.59375 27 0.59375 
C 23.40625 0.59375 19.5 2.3125 16.5 7.046875 
C 15.203125 9.28125 15.203125 9.875 15.203125 11.5 
z
" id="CMR17-112"/>
      <path d="M 15.296875 69 
L 3.40625 67.890625 
L 3.40625 65.296875 
C 9.296875 65.296875 10.203125 64.703125 10.203125 59.921875 
L 10.203125 6.859375 
C 10.203125 3.09375 9.796875 2.59375 3.40625 2.59375 
L 3.40625 0 
C 5.796875 0.1875 10.203125 0.1875 12.703125 0.1875 
C 15.296875 0.1875 19.703125 0.1875 22.09375 0 
L 22.09375 2.59375 
C 15.703125 2.59375 15.296875 2.984375 15.296875 6.859375 
z
" id="CMR17-108"/>
      <path d="M 29.203125 67.890625 
L 29.203125 65.296875 
C 35.09375 65.296875 36 64.703125 36 60.046875 
L 36 37.046875 
C 35.59375 37.546875 31.5 44 23.40625 44 
C 13.203125 44 3.296875 34.8125 3.296875 21.5 
C 3.296875 8.265625 12.59375 -1 22.40625 -1 
C 30.90625 -1 35.296875 5.640625 35.796875 6.34375 
L 35.796875 -1 
L 47.90625 -0.203125 
L 47.90625 2.40625 
C 42 2.40625 41.09375 3.015625 41.09375 7.859375 
L 41.09375 69 
z
M 35.796875 11.90625 
C 35.796875 8.875 34 6.140625 31.703125 4.125 
C 28.296875 1.09375 24.90625 0.59375 23 0.59375 
C 20.09375 0.59375 9.703125 2.109375 9.703125 21.390625 
C 9.703125 41.1875 21.296875 42.390625 23.90625 42.390625 
C 28.5 42.390625 32.203125 39.765625 34.5 36.140625 
C 35.796875 34.015625 35.796875 33.703125 35.796875 31.890625 
z
" id="CMR17-100"/>
      <path d="M 39.09375 33.953125 
C 40 36.171875 41.59375 40.1875 47.40625 40.390625 
L 47.40625 43 
C 45.5 42.890625 43 42.796875 41.09375 42.796875 
C 39 42.796875 35.703125 42.796875 33.703125 43 
L 33.703125 40.390625 
C 36.203125 40.1875 37.59375 38.984375 37.59375 36.375 
C 37.59375 35.46875 37.59375 35.265625 37 33.859375 
L 26 5.921875 
L 14.09375 36.0625 
C 13.5 37.375 13.5 37.578125 13.5 37.984375 
C 13.5 40.390625 16.796875 40.390625 18.296875 40.390625 
L 18.296875 43 
C 15.90625 42.796875 11.5 42.796875 9 42.796875 
C 6.296875 42.796875 3.203125 42.796875 1 43 
L 1 40.390625 
C 4.796875 40.390625 6.90625 40.390625 8.09375 37.28125 
L 22.59375 0.6875 
C 23.203125 -0.8125 23.296875 -1 24.203125 -1 
C 25.09375 -1 25.203125 -0.8125 25.796875 0.6875 
z
" id="CMR17-118"/>
      <path d="M 43.09375 21.1875 
C 43.09375 34 33.796875 44 22.90625 44 
C 12 44 2.703125 34 2.703125 21.1875 
C 2.703125 8.59375 12 -1 22.90625 -1 
C 33.796875 -1 43.09375 8.59375 43.09375 21.1875 
z
M 22.90625 0.796875 
C 18.203125 0.796875 14.203125 3.59375 11.90625 7.5 
C 9.40625 12 9.09375 17.59375 9.09375 22 
C 9.09375 26.1875 9.296875 31.390625 11.90625 35.890625 
C 13.90625 39.1875 17.796875 42.390625 22.90625 42.390625 
C 27.40625 42.390625 31.203125 39.890625 33.59375 36.390625 
C 36.703125 31.6875 36.703125 25.09375 36.703125 22 
C 36.703125 18.09375 36.5 12.09375 33.796875 7.296875 
C 31 2.6875 26.703125 0.796875 22.90625 0.796875 
z
" id="CMR17-111"/>
      <path d="M 36 25.875 
C 36 32 36 35.546875 31.796875 39.59375 
C 28.09375 42.984375 23.796875 44 20.40625 44 
C 12.5 44 6.796875 37.625 6.796875 30.890625 
C 6.796875 27.1875 9.796875 27 10.40625 27 
C 11.703125 27 14 27.796875 14 30.59375 
C 14 33.09375 12.09375 34.1875 10.40625 34.1875 
C 10 34.1875 9.5 34.09375 9.203125 34 
C 11.296875 40.53125 16.703125 42.390625 20.203125 42.390625 
C 25.203125 42.390625 30.703125 37.828125 30.703125 29.296875 
L 30.703125 25.5 
C 24.796875 25.296875 17.703125 24.5 12.09375 21.453125 
C 5.796875 17.921875 4 12.84375 4 9 
C 4 1.203125 13 -1 18.296875 -1 
C 23.796875 -1 28.90625 2.109375 31.09375 7.890625 
C 31.296875 3.421875 34.09375 -0.609375 38.5 -0.609375 
C 40.59375 -0.609375 45.90625 0.796875 45.90625 8.796875 
L 45.90625 14.46875 
L 44.09375 14.46875 
L 44.09375 8.703125 
C 44.09375 2.515625 41.40625 1.703125 40.09375 1.703125 
C 36 1.703125 36 6.96875 36 11.4375 
z
M 30.703125 13.859375 
C 30.703125 5.046875 24.5 0.59375 19 0.59375 
C 14 0.59375 10.09375 4.34375 10.09375 9 
C 10.09375 12.046875 11.40625 17.40625 17.203125 20.65625 
C 22 23.390625 27.5 23.796875 30.703125 24 
z
" id="CMR17-97"/>
      <path d="M 39 34.109375 
C 41.5 40.296875 46 40.390625 47.40625 40.390625 
L 47.40625 43 
C 45.5 42.890625 43 42.796875 41.09375 42.796875 
C 39 42.796875 35.703125 42.796875 33.703125 43 
L 33.703125 40.390625 
C 37.5 40.09375 37.59375 37.25 37.59375 36.4375 
C 37.59375 35.4375 37.40625 34.921875 36.90625 33.71875 
L 26 6.390625 
L 14.09375 35.9375 
C 13.59375 37.15625 13.59375 37.859375 13.59375 37.96875 
C 13.59375 40.1875 15.90625 40.390625 18.296875 40.390625 
L 18.296875 43 
C 15.90625 42.796875 11.59375 42.796875 9.09375 42.796875 
C 6.40625 42.796875 3.203125 42.796875 1 43 
L 1 40.390625 
C 6.40625 40.390625 7 39.890625 8.296875 36.640625 
L 23.203125 -0.484375 
C 18.703125 -12.421875 16.09375 -19.40625 9.796875 -19.40625 
C 8.703125 -19.40625 6.203125 -19.109375 4.40625 -17.28125 
C 6.703125 -17.078125 7.703125 -15.65625 7.703125 -13.9375 
C 7.703125 -12.21875 6.5 -10.703125 4.5 -10.703125 
C 2.296875 -10.703125 1.203125 -12.21875 1.203125 -14.046875 
C 1.203125 -18.09375 5.296875 -21 9.796875 -21 
C 15.59375 -21 19.203125 -15.359375 21.203125 -10.296875 
z
" id="CMR17-121"/>
     </defs>
     <g transform="translate(13.42665 136.898677)rotate(-90)scale(0.09 -0.09)">
      <use transform="scale(0.996264)" xlink:href="#CMR17-73"/>
      <use transform="translate(32.638409 0)scale(0.996264)" xlink:href="#CMR17-109"/>
      <use transform="translate(109.557999 0)scale(0.996264)" xlink:href="#CMR17-112"/>
      <use transform="translate(160.453369 0)scale(0.996264)" xlink:href="#CMR17-108"/>
      <use transform="translate(185.324427 0)scale(0.996264)" xlink:href="#CMR17-105"/>
      <use transform="translate(210.195486 0)scale(0.996264)" xlink:href="#CMR17-101"/>
      <use transform="translate(250.681146 0)scale(0.996264)" xlink:href="#CMR17-100"/>
      <use transform="translate(331.652482 0)scale(0.996264)" xlink:href="#CMR17-118"/>
      <use transform="translate(377.342944 0)scale(0.996264)" xlink:href="#CMR17-111"/>
      <use transform="translate(423.033421 0)scale(0.996264)" xlink:href="#CMR17-108"/>
      <use transform="translate(447.90448 0)scale(0.996264)" xlink:href="#CMR17-97"/>
      <use transform="translate(493.594957 0)scale(0.996264)" xlink:href="#CMR17-116"/>
      <use transform="translate(528.875725 0)scale(0.996264)" xlink:href="#CMR17-105"/>
      <use transform="translate(553.746783 0)scale(0.996264)" xlink:href="#CMR17-108"/>
      <use transform="translate(578.617842 0)scale(0.996264)" xlink:href="#CMR17-105"/>
      <use transform="translate(603.4889 0)scale(0.996264)" xlink:href="#CMR17-116"/>
      <use transform="translate(636.167214 0)scale(0.996264)" xlink:href="#CMR17-121"/>
     </g>
    </g>
   </g>
   <g id="line2d_14">
    <path clip-path="url(#pa9325b805a)" d="M 126.815845 62.702471 
L 127.251358 62.657116 
L 127.686871 62.580373 
L 128.122384 62.472173 
L 128.557898 62.332478 
L 128.993411 62.161284 
L 129.428924 61.958621 
L 129.864437 61.724552 
L 130.29995 61.459171 
L 130.735464 61.162607 
L 131.170977 60.835021 
L 131.60649 60.476605 
L 132.042003 60.087583 
L 132.477516 59.668209 
L 132.913029 59.218766 
L 133.348543 58.739565 
L 133.784056 58.230945 
L 134.219569 57.693268 
L 134.655082 57.126924 
L 135.090595 56.532322 
L 135.526109 55.909893 
L 135.961622 55.26009 
L 136.397135 54.583381 
L 136.832648 53.880251 
L 137.268161 53.1512 
L 137.703674 52.396741 
L 138.139188 51.617398 
L 138.574701 50.813706 
L 139.010214 49.986205 
L 139.445727 49.135444 
L 139.88124 48.261978 
L 140.316754 47.366364 
L 140.752267 46.44916 
L 141.18778 45.510929 
L 141.623293 44.552231 
L 142.058806 43.573623 
L 142.494319 42.575665 
L 142.929833 41.558908 
L 143.365346 40.523901 
L 143.800859 39.471188 
L 144.236372 38.401308 
L 144.671885 37.314789 
L 145.107399 36.212156 
L 145.542912 35.093925 
L 145.978425 33.960601 
L 146.413938 32.812684 
L 146.849451 31.650662 
L 147.284964 30.475014 
L 147.720478 29.28621 
L 148.155991 28.084707 
" style="fill:none;stroke:#1f77b4;stroke-linecap:square;stroke-width:0.6;"/>
   </g>
   <g id="line2d_15">
    <path clip-path="url(#pa9325b805a)" d="M 120.03343 167.450233 
L 120.820558 167.573491 
L 121.607686 167.652858 
L 122.394813 167.687817 
L 123.181941 167.677939 
L 123.969068 167.622891 
L 124.756196 167.52244 
L 125.543324 167.376452 
L 126.330451 167.184899 
L 127.117579 166.947858 
L 127.904706 166.665513 
L 128.691834 166.338152 
L 129.478962 165.966166 
L 130.266089 165.550046 
L 131.053217 165.090378 
L 131.840344 164.58784 
L 132.627472 164.043195 
L 133.414599 163.457284 
L 134.201727 162.831019 
L 134.988855 162.165378 
L 135.775982 161.461394 
L 136.56311 160.720148 
L 137.350237 159.942765 
L 138.137365 159.130398 
L 138.924493 158.284231 
L 139.71162 157.405461 
L 140.498748 156.495301 
L 141.285875 155.554966 
L 142.073003 154.585671 
L 142.860131 153.588624 
L 143.647258 152.565022 
L 144.434386 151.516048 
L 145.221513 150.442862 
L 146.008641 149.346603 
L 146.795768 148.228385 
L 147.582896 147.089292 
L 148.370024 145.930379 
L 149.157151 144.75267 
L 149.944279 143.557156 
L 150.731406 142.344791 
L 151.518534 141.116501 
L 152.305662 139.873172 
L 153.092789 138.61566 
L 153.879917 137.344784 
L 154.667044 136.06133 
L 155.454172 134.76605 
L 156.2413 133.459666 
L 157.028427 132.142865 
L 157.815555 130.816304 
L 158.602682 129.48061 
" style="fill:none;stroke:#ff7f0e;stroke-linecap:square;stroke-width:0.6;"/>
   </g>
   <g id="line2d_16">
    <path clip-path="url(#pa9325b805a)" d="M 114.078427 171.398001 
L 115.181776 171.436718 
L 116.285125 171.429893 
L 117.388474 171.377183 
L 118.491822 171.278349 
L 119.595171 171.133256 
L 120.69852 170.941882 
L 121.801869 170.704313 
L 122.905217 170.420747 
L 124.008566 170.091494 
L 125.111915 169.716971 
L 126.215264 169.297699 
L 127.318613 168.834303 
L 128.421961 168.327502 
L 129.52531 167.778103 
L 130.628659 167.186997 
L 131.732008 166.555151 
L 132.835356 165.883597 
L 133.938705 165.173426 
L 135.042054 164.425781 
L 136.145403 163.641844 
L 137.248751 162.822832 
L 138.3521 161.969988 
L 139.455449 161.084572 
L 140.558798 160.167852 
L 141.662147 159.221104 
L 142.765495 158.245597 
L 143.868844 157.242593 
L 144.972193 156.21334 
L 146.075542 155.159069 
L 147.17889 154.080986 
L 148.282239 152.980272 
L 149.385588 151.858081 
L 150.488937 150.715533 
L 151.592285 149.553718 
L 152.695634 148.37369 
L 153.798983 147.176466 
L 154.902332 145.963029 
L 156.00568 144.734324 
L 157.109029 143.491259 
L 158.212378 142.234707 
L 159.315727 140.965501 
L 160.419076 139.684442 
L 161.522424 138.392293 
L 162.625773 137.089783 
L 163.729122 135.777608 
L 164.832471 134.456431 
L 165.935819 133.126884 
L 167.039168 131.789567 
L 168.142517 130.445051 
" style="fill:none;stroke:#2ca02c;stroke-linecap:square;stroke-width:0.6;"/>
   </g>
   <g id="line2d_17">
    <path clip-path="url(#pa9325b805a)" d="M 103.083228 164.842829 
L 104.794206 164.855752 
L 106.505184 164.818521 
L 108.216162 164.730927 
L 109.92714 164.592883 
L 111.638118 164.404427 
L 113.349096 164.165724 
L 115.060074 163.877065 
L 116.771051 163.538869 
L 118.482029 163.151674 
L 120.193007 162.716141 
L 121.903985 162.233041 
L 123.614963 161.703251 
L 125.325941 161.127749 
L 127.036919 160.507601 
L 128.747897 159.843956 
L 130.458875 159.138032 
L 132.169853 158.391111 
L 133.880831 157.604525 
L 135.591809 156.779647 
L 137.302787 155.917883 
L 139.013765 155.020661 
L 140.724743 154.089423 
L 142.435721 153.125615 
L 144.146699 152.130682 
L 145.857677 151.106059 
L 147.568654 150.053164 
L 149.279632 148.973397 
L 150.99061 147.868129 
L 152.701588 146.738702 
L 154.412566 145.586424 
L 156.123544 144.412565 
L 157.834522 143.218359 
L 159.5455 142.004997 
L 161.256478 140.773628 
L 162.967456 139.52536 
L 164.678434 138.261255 
L 166.389412 136.982335 
L 168.10039 135.689575 
L 169.811368 134.38391 
L 171.522346 133.066232 
L 173.233324 131.737393 
L 174.944302 130.398202 
L 176.65528 129.049431 
L 178.366257 127.691814 
L 180.077235 126.326047 
L 181.788213 124.952793 
L 183.499191 123.572678 
L 185.210169 122.186297 
L 186.921147 120.794214 
" style="fill:none;stroke:#d62728;stroke-linecap:square;stroke-width:0.6;"/>
   </g>
   <g id="line2d_18">
    <path clip-path="url(#pa9325b805a)" d="M 94.196896 172.053986 
L 96.520491 172.090082 
L 98.844087 172.061779 
L 101.167682 171.96874 
L 103.491277 171.810836 
L 105.814873 171.58815 
L 108.138468 171.300982 
L 110.462064 170.949849 
L 112.785659 170.53548 
L 115.109255 170.058811 
L 117.43285 169.520974 
L 119.756445 168.923286 
L 122.080041 168.267232 
L 124.403636 167.554449 
L 126.727232 166.78671 
L 129.050827 165.9659 
L 131.374422 165.093999 
L 133.698018 164.173062 
L 136.021613 163.205202 
L 138.345209 162.192564 
L 140.668804 161.137317 
L 142.992399 160.041629 
L 145.315995 158.907661 
L 147.63959 157.737544 
L 149.963186 156.533378 
L 152.286781 155.297214 
L 154.610376 154.031049 
L 156.933972 152.73682 
L 159.257567 151.416399 
L 161.581163 150.071585 
L 163.904758 148.704106 
L 166.228353 147.315616 
L 168.551949 145.907691 
L 170.875544 144.481834 
L 173.19914 143.039471 
L 175.522735 141.581955 
L 177.84633 140.110568 
L 180.169926 138.626519 
L 182.493521 137.130951 
L 184.817117 135.624939 
L 187.140712 134.109499 
L 189.464308 132.585582 
L 191.787903 131.054085 
L 194.111498 129.515848 
L 196.435094 127.97166 
L 198.758689 126.42226 
L 201.082285 124.868341 
L 203.40588 123.310549 
L 205.729475 121.749493 
L 208.053071 120.18574 
" style="fill:none;stroke:#9467bd;stroke-linecap:square;stroke-width:0.6;"/>
   </g>
   <g id="line2d_19">
    <path clip-path="url(#pa9325b805a)" d="M 86.202529 173.679599 
L 89.153486 173.724287 
L 92.104442 173.689248 
L 95.055399 173.574059 
L 98.006355 173.378616 
L 100.957312 173.103144 
L 103.908268 172.7482 
L 106.859225 172.314674 
L 109.810181 171.803777 
L 112.761138 171.217028 
L 115.712094 170.556237 
L 118.663051 169.823474 
L 121.614007 169.021046 
L 124.564964 168.15146 
L 127.51592 167.217395 
L 130.466877 166.221663 
L 133.417833 165.167177 
L 136.36879 164.056918 
L 139.319746 162.893905 
L 142.270703 161.681163 
L 145.221659 160.421702 
L 148.172616 159.11849 
L 151.123572 157.774434 
L 154.074529 156.392368 
L 157.025485 154.975032 
L 159.976442 153.525068 
L 162.927398 152.045011 
L 165.878355 150.537282 
L 168.829311 149.004182 
L 171.780268 147.447899 
L 174.731224 145.870497 
L 177.682181 144.273928 
L 180.633137 142.660026 
L 183.584094 141.030513 
L 186.53505 139.387005 
L 189.486007 137.731012 
L 192.436963 136.063947 
L 195.38792 134.387126 
L 198.338876 132.701776 
L 201.289833 131.009041 
L 204.240789 129.309982 
L 207.191746 127.605586 
L 210.142702 125.896769 
L 213.093658 124.184381 
L 216.044615 122.469209 
L 218.995571 120.751982 
L 221.946528 119.033377 
L 224.897484 117.314018 
L 227.848441 115.594482 
L 230.799397 113.875303 
" style="fill:none;stroke:#8c564b;stroke-linecap:square;stroke-width:0.6;"/>
   </g>
   <g id="line2d_20">
    <path clip-path="url(#pa9325b805a)" d="M 71.33675 174.832906 
L 75.726803 174.977472 
L 80.116856 175.006607 
L 84.506909 174.919421 
L 88.896962 174.715674 
L 93.287015 174.395811 
L 97.677068 173.960976 
L 102.067121 173.413 
L 106.457174 172.754383 
L 110.847227 171.988249 
L 115.23728 171.118281 
L 119.627334 170.148657 
L 124.017387 169.083964 
L 128.40744 167.929111 
L 132.797493 166.689244 
L 137.187546 165.369661 
L 141.577599 163.975728 
L 145.967652 162.512811 
L 150.357705 160.98621 
L 154.747758 159.401107 
L 159.137811 157.762516 
L 163.527864 156.075259 
L 167.917917 154.34393 
L 172.30797 152.572883 
L 176.698023 150.766221 
L 181.088076 148.927791 
L 185.478129 147.061183 
L 189.868182 145.169735 
L 194.258235 143.256542 
L 198.648288 141.324462 
L 203.038341 139.376128 
L 207.428394 137.413964 
L 211.818447 135.44019 
L 216.2085 133.456843 
L 220.598553 131.465781 
L 224.988606 129.468705 
L 229.378659 127.467163 
L 233.768712 125.462565 
L 238.158765 123.456194 
L 242.548818 121.449217 
L 246.938871 119.442691 
L 251.328924 117.437575 
L 255.718977 115.43474 
L 260.10903 113.43497 
L 264.499083 111.438978 
L 268.889136 109.447405 
L 273.279189 107.46083 
L 277.669242 105.479773 
L 282.059296 103.504703 
L 286.449349 101.536041 
" style="fill:none;stroke:#e377c2;stroke-linecap:square;stroke-width:0.6;"/>
   </g>
   <g id="line2d_21">
    <path clip-path="url(#pa9325b805a)" d="M 55.936316 176.302464 
L 62.665444 176.339253 
L 69.394572 176.207603 
L 76.1237 175.90781 
L 82.852828 175.441581 
L 89.581956 174.81205 
L 96.311084 174.023728 
L 103.040212 173.082409 
L 109.76934 171.995014 
L 116.498468 170.76941 
L 123.227596 169.414198 
L 129.956724 167.938492 
L 136.685852 166.351706 
L 143.41498 164.663355 
L 150.144108 162.882872 
L 156.873236 161.019466 
L 163.602364 159.081999 
L 170.331492 157.078896 
L 177.06062 155.018089 
L 183.789748 152.90697 
L 190.518876 150.752383 
L 197.248004 148.560614 
L 203.977132 146.337409 
L 210.70626 144.08799 
L 217.435388 141.817086 
L 224.164516 139.528957 
L 230.893644 137.227435 
L 237.622772 134.915952 
L 244.3519 132.597576 
L 251.081028 130.275041 
L 257.810156 127.950781 
L 264.539284 125.626955 
L 271.268412 123.305478 
L 277.99754 120.988042 
L 284.726668 118.67614 
L 291.455796 116.371088 
L 298.184924 114.074041 
L 304.914052 111.786011 
L 311.64318 109.507884 
L 318.372308 107.24043 
L 325.101436 104.984319 
L 331.830564 102.740127 
L 338.559692 100.508354 
L 345.28882 98.289422 
L 352.017948 96.083693 
L 358.747076 93.891469 
L 365.476204 91.713002 
L 372.205332 89.548497 
L 378.93446 87.39812 
L 385.663588 85.262001 
" style="fill:none;stroke:#7f7f7f;stroke-linecap:square;stroke-width:0.6;"/>
   </g>
   <g id="patch_3">
    <path d="M 39.449952 183.75198 
L 39.449952 20.67198 
" style="fill:none;stroke:#000000;stroke-linecap:square;stroke-linejoin:miter;stroke-width:0.4;"/>
   </g>
   <g id="patch_4">
    <path d="M 402.149952 183.75198 
L 402.149952 20.67198 
" style="fill:none;stroke:#000000;stroke-linecap:square;stroke-linejoin:miter;stroke-width:0.4;"/>
   </g>
   <g id="patch_5">
    <path d="M 39.449952 183.75198 
L 402.149952 183.75198 
" style="fill:none;stroke:#000000;stroke-linecap:square;stroke-linejoin:miter;stroke-width:0.4;"/>
   </g>
   <g id="patch_6">
    <path d="M 39.449952 20.67198 
L 402.149952 20.67198 
" style="fill:none;stroke:#000000;stroke-linecap:square;stroke-linejoin:miter;stroke-width:0.4;"/>
   </g>
   <g id="text_16">
    <!-- \textbf{USDBRL implied volatility curves from SABR} $\boldsymbol{(\beta = 1)}$ -->
    <defs>
     <path d="M 72 61.6875 
C 72 63.890625 72.09375 63.984375 74.703125 64.390625 
C 76.5 64.59375 78.5 64.6875 80.296875 64.6875 
L 82.59375 64.6875 
L 82.59375 69 
C 80.296875 68.796875 72.5 68.796875 69.703125 68.796875 
C 66.90625 68.796875 59.09375 68.796875 56.796875 69 
L 56.796875 64.6875 
L 59.09375 64.6875 
C 61.796875 64.6875 62 64.6875 64.40625 64.390625 
C 67.296875 63.984375 67.40625 63.890625 67.40625 61.6875 
L 67.40625 23.453125 
C 67.40625 9.109375 57.296875 3.296875 45.5 3.296875 
C 28 3.296875 27.59375 16.734375 27.59375 22.5625 
L 27.59375 64.6875 
L 38.203125 64.6875 
L 38.203125 69 
C 35.296875 68.796875 24.59375 68.796875 21 68.796875 
C 17.40625 68.796875 6.703125 68.796875 3.796875 69 
L 3.796875 64.6875 
L 14.40625 64.6875 
L 14.40625 23.25 
C 14.40625 10.015625 25 -1 45.09375 -1 
C 63.59375 -1 72 10.515625 72 23.15625 
z
" id="CMBX12-85"/>
     <path d="M 25.40625 44.1875 
C 15.5 46.390625 15.203125 53.59375 15.203125 55 
C 15.203125 60.09375 18.5 65.984375 28.203125 65.984375 
C 37.90625 65.984375 46.59375 61.296875 48.703125 48.1875 
C 49 46.09375 49 46 50.90625 46 
C 53 46 53 46.296875 53 48.59375 
L 53 67.390625 
C 53 69.296875 53 70 51.5 70 
C 50.796875 70 50.5 69.890625 49.59375 68.890625 
L 45.296875 64 
C 42.796875 66.09375 37.796875 70 28.09375 70 
C 13.796875 70 6.203125 61 6.203125 50.09375 
C 6.203125 43.390625 9.796875 38.6875 11.203125 37.296875 
C 16.40625 32.09375 19.203125 31.5 29.59375 29.1875 
C 39.59375 27 40.796875 26.796875 43 24.6875 
C 44.296875 23.390625 47.203125 20.59375 47.203125 15.5 
C 47.203125 11.1875 45.09375 3.296875 33.90625 3.296875 
C 25.09375 3.296875 11.203125 6.296875 10.40625 20.890625 
C 10.296875 22.6875 10.296875 23 8.296875 23 
C 6.203125 23 6.203125 22.6875 6.203125 20.390625 
L 6.203125 1.59375 
C 6.203125 -0.3125 6.203125 -1 7.703125 -1 
C 8.40625 -1 8.5 -0.90625 9.5 0 
C 10.59375 1.09375 11.5 2.390625 14 4.890625 
C 19.796875 0.296875 28 -1 34 -1 
C 49.59375 -1 56.203125 9.59375 56.203125 20.1875 
C 56.203125 29.59375 50 38.59375 39.09375 41.09375 
z
" id="CMBX12-83"/>
     <path d="M 3.796875 69 
L 3.796875 64.6875 
L 14.40625 64.6875 
L 14.40625 4.296875 
L 3.796875 4.296875 
L 3.796875 0 
L 45.90625 0 
C 65.09375 0 79.90625 12.34375 79.90625 33.890625 
C 79.90625 56.640625 64.703125 69 45.90625 69 
z
M 27.09375 4.296875 
L 27.09375 64.6875 
L 42.09375 64.6875 
C 50.796875 64.6875 57.796875 61.265625 61.5 56.03125 
C 64.40625 51.90625 66.296875 46.96875 66.296875 33.984375 
C 66.296875 22.203125 64.796875 16.96875 61.296875 12.25 
C 57.796875 7.609375 51.09375 4.296875 42.09375 4.296875 
z
" id="CMBX12-68"/>
     <path d="M 3.90625 69 
L 3.90625 64.6875 
L 14.5 64.6875 
L 14.5 4.296875 
L 3.90625 4.296875 
L 3.90625 0 
L 49.09375 0 
C 65.59375 0 73.703125 8.890625 73.703125 18.5 
C 73.703125 28 65.40625 34.890625 53.296875 35.796875 
C 67.703125 38.515625 70.5 46.828125 70.5 51.609375 
C 70.5 60.9375 62.09375 69 46.09375 69 
z
M 26.796875 37.296875 
L 26.796875 64.6875 
L 44.90625 64.6875 
C 55.203125 64.6875 57.296875 56.78125 57.296875 51.703125 
C 57.296875 44.59375 53.40625 37.296875 41.703125 37.296875 
z
M 26.796875 4.296875 
L 26.796875 34 
L 46.703125 34 
C 58.40625 34 60.09375 23.1875 60.09375 18.6875 
C 60.09375 12.390625 56.703125 4.296875 45.203125 4.296875 
z
" id="CMBX12-66"/>
     <path d="M 52.90625 34.296875 
C 66.40625 37.890625 69.703125 45.125 69.703125 50.546875 
C 69.703125 60.578125 59.203125 69 40.703125 69 
L 3.796875 69 
L 3.796875 64.6875 
L 14.40625 64.6875 
L 14.40625 4.296875 
L 3.796875 4.296875 
L 3.796875 0 
C 6.703125 0.1875 17.09375 0.1875 20.703125 0.1875 
C 24.296875 0.1875 34.796875 0.1875 37.703125 0 
L 37.703125 4.296875 
L 27.09375 4.296875 
L 27.09375 33 
L 39 33 
C 43 33 46.203125 31.78125 48.40625 29.1875 
C 51.40625 25.765625 51.40625 23.5625 51.40625 16.84375 
C 51.40625 10.125 51.40625 6 56.5 2.59375 
C 61.703125 -0.90625 69.90625 -1 72.09375 -1 
C 82.296875 -1 83.5 8.015625 83.5 9.421875 
C 83.5 11.125 82.703125 11.421875 81.40625 11.421875 
C 79.5 11.421875 79.40625 10.71875 79.296875 9.421875 
C 78.796875 4.40625 75.703125 2.296875 72.90625 2.296875 
C 66.5 2.296875 65.796875 9.015625 65 18.25 
C 64.40625 23.5 63.703125 30.96875 52.90625 34.296875 
z
M 38.796875 36.296875 
L 27.09375 36.296875 
L 27.09375 64.6875 
L 39 64.6875 
C 55.296875 64.6875 55.59375 56.46875 55.59375 50.546875 
C 55.59375 45.03125 55.5 36.296875 38.796875 36.296875 
z
" id="CMBX12-82"/>
     <path d="M 62.796875 27.140625 
L 58.59375 27.140625 
C 57.90625 20.203125 56.296875 4.296875 38.296875 4.296875 
L 27.59375 4.296875 
L 27.59375 64.6875 
L 40.90625 64.6875 
L 40.90625 69 
C 36 68.796875 27.09375 68.796875 21.796875 68.796875 
C 18.09375 68.796875 6.703125 68.796875 3.796875 69 
L 3.796875 64.6875 
L 14.40625 64.6875 
L 14.40625 4.296875 
L 3.796875 4.296875 
L 3.796875 0 
L 59.90625 0 
z
" id="CMBX12-76"/>
     <path d="M 22.296875 62.796875 
C 22.296875 66.890625 19 70 15.09375 70 
C 11 70 7.90625 66.59375 7.90625 62.796875 
C 7.90625 58.984375 11 55.59375 15.09375 55.59375 
C 19 55.59375 22.296875 58.6875 22.296875 62.796875 
z
M 4.703125 44.1875 
L 4.703125 39.890625 
C 10.59375 39.890625 11.296875 39.890625 11.296875 35.984375 
L 11.296875 4.296875 
L 4.40625 4.296875 
L 4.40625 0 
C 6.703125 0.1875 13.59375 0.1875 16.296875 0.1875 
C 19.09375 0.1875 25.5 0.1875 27.90625 0 
L 27.90625 4.296875 
L 21.703125 4.296875 
L 21.703125 45 
z
" id="CMBX12-105"/>
     <path d="M 84.40625 30.59375 
C 84.40625 39.796875 80.5 45 69.296875 45 
C 59.203125 45 54.5 38.1875 52.90625 35 
C 51.296875 43.484375 44.5 45 38.09375 45 
C 28.5 45 23.296875 38.796875 21.203125 34 
L 21.09375 34 
L 21.09375 45 
L 4.203125 44.1875 
L 4.203125 39.890625 
C 10.40625 39.890625 11.09375 39.890625 11.09375 36 
L 11.09375 4.296875 
L 4.203125 4.296875 
L 4.203125 0 
C 6.5 0.1875 13.703125 0.1875 16.5 0.1875 
C 19.296875 0.1875 26.59375 0.1875 28.90625 0 
L 28.90625 4.296875 
L 22 4.296875 
L 22 25.59375 
C 22 36.5 30.09375 41.6875 36.40625 41.6875 
C 40.09375 41.6875 42.296875 39.5 42.296875 31.6875 
L 42.296875 4.296875 
L 35.40625 4.296875 
L 35.40625 0 
C 37.703125 0.1875 44.90625 0.1875 47.703125 0.1875 
C 50.5 0.1875 57.796875 0.1875 60.09375 0 
L 60.09375 4.296875 
L 53.203125 4.296875 
L 53.203125 25.59375 
C 53.203125 36.5 61.296875 41.6875 67.59375 41.6875 
C 71.296875 41.6875 73.5 39.5 73.5 31.6875 
L 73.5 4.296875 
L 66.59375 4.296875 
L 66.59375 0 
C 68.90625 0.1875 76.09375 0.1875 78.90625 0.1875 
C 81.703125 0.1875 89 0.1875 91.296875 0 
L 91.296875 4.296875 
L 84.40625 4.296875 
z
" id="CMBX12-109"/>
     <path d="M 28.203125 -14.703125 
L 21.296875 -14.703125 
L 21.296875 3.703125 
C 23.796875 1.5 28.203125 -1 34.203125 -1 
C 47.90625 -1 58.59375 7.34375 58.59375 22.09375 
C 58.59375 36.03125 49.296875 45 35.796875 45 
C 29.90625 45 24.796875 42.984375 20.796875 39.78125 
L 20.796875 45 
L 3.5 44.1875 
L 3.5 39.875 
C 9.703125 39.875 10.40625 39.875 10.40625 35.9375 
L 10.40625 -14.703125 
L 3.5 -14.703125 
L 3.5 -19 
C 5.796875 -18.8125 13 -18.8125 15.796875 -18.8125 
C 18.59375 -18.8125 25.90625 -18.8125 28.203125 -19 
z
M 21.296875 34.921875 
C 25 39.78125 30.296875 41.390625 34.203125 41.390625 
C 40.703125 41.390625 46.59375 35.4375 46.59375 22.09375 
C 46.59375 7.4375 39.40625 2.296875 33 2.296875 
C 28.703125 2.296875 24.40625 4.515625 21.296875 9.265625 
z
" id="CMBX12-112"/>
     <path d="M 21.703125 70 
L 4.40625 69.1875 
L 4.40625 64.890625 
C 10.59375 64.890625 11.296875 64.890625 11.296875 60.953125 
L 11.296875 4.296875 
L 4.40625 4.296875 
L 4.40625 0 
C 6.703125 0.1875 13.796875 0.1875 16.5 0.1875 
C 19.203125 0.1875 26.296875 0.1875 28.59375 0 
L 28.59375 4.296875 
L 21.703125 4.296875 
z
" id="CMBX12-108"/>
     <path d="M 45.203125 22 
C 47.5 22 48.09375 22 48.09375 24.5 
C 48.09375 27.46875 47.40625 34.875 42.796875 39.515625 
C 38.59375 43.6875 33 45 27.203125 45 
C 11.59375 45 3.09375 34.875 3.09375 22.390625 
C 3.09375 8.171875 13.40625 -1 28.5 -1 
C 43.59375 -1 48.09375 9.703125 48.09375 11.421875 
C 48.09375 12.953125 46.59375 12.953125 46 12.953125 
C 44.40625 12.953125 44.296875 12.640625 43.703125 11.328125 
C 41.09375 4.71875 34.5 2.59375 29.703125 2.59375 
C 15.203125 2.59375 15.09375 16.296875 15.09375 22 
z
M 15.09375 24.890625 
C 15.296875 28.9375 15.40625 32.796875 17.5 36.359375 
C 19.40625 39.515625 22.90625 41.6875 27.203125 41.6875 
C 37.90625 41.6875 38.796875 29.828125 38.90625 24.890625 
z
" id="CMBX12-101"/>
     <path d="M 34.703125 69.1875 
L 34.703125 64.890625 
C 40.90625 64.890625 41.59375 64.890625 41.59375 60.875 
L 41.59375 40.171875 
C 39.40625 42.09375 35 45 28.09375 45 
C 13.90625 45 3.796875 36.140625 3.796875 22 
C 3.796875 7.546875 13.703125 -1 27 -1 
C 32.5 -1 37.203125 0.890625 41.09375 4.21875 
L 41.09375 -1 
L 58.90625 -0.40625 
L 58.90625 3.90625 
C 52.703125 3.90625 52 3.90625 52 7.84375 
L 52 70 
z
M 41.09375 9.765625 
C 36.90625 3.609375 31.796875 2.296875 28.203125 2.296875 
C 15.796875 2.296875 15.796875 15.125 15.796875 21.796875 
C 15.796875 26.546875 15.796875 31.59375 18 35.4375 
C 21.09375 41.09375 27 41.6875 29.296875 41.6875 
C 33.40625 41.6875 37.796875 39.875 41.09375 35.4375 
z
" id="CMBX12-100"/>
     <path d="M 49.5 37.390625 
C 50.203125 38.890625 50.59375 39.6875 56.90625 39.6875 
L 56.90625 44 
C 53.296875 43.796875 53.09375 43.796875 49 43.796875 
C 46.296875 43.796875 46.09375 43.796875 40.40625 44 
L 40.40625 39.6875 
C 43.09375 39.6875 45.296875 39.1875 45.296875 38.484375 
C 45.296875 38.390625 45.296875 38.296875 44.796875 37.28125 
L 33.09375 11.515625 
L 20.203125 39.6875 
L 25.703125 39.6875 
L 25.703125 44 
C 23.40625 43.796875 16.40625 43.796875 13.703125 43.796875 
C 10.796875 43.796875 5 43.796875 2.40625 44 
L 2.40625 39.6875 
L 8.703125 39.6875 
L 26.296875 1.390625 
C 27.203125 -0.5 27.40625 -1 29.703125 -1 
C 31.296875 -1 32.09375 -0.8125 33 1.1875 
z
" id="CMBX12-118"/>
     <path d="M 53 21.546875 
C 53 35.078125 43.796875 45 28.09375 45 
C 11.796875 45 3.09375 34.578125 3.09375 21.546875 
C 3.09375 8.40625 12.296875 -1 28 -1 
C 44.296875 -1 53 8.90625 53 21.546875 
z
M 28.09375 2.59375 
C 15.09375 2.59375 15.09375 14.328125 15.09375 22.546875 
C 15.09375 27.25 15.09375 32.265625 17 35.875 
C 19.203125 39.890625 23.703125 41.6875 28 41.6875 
C 33.703125 41.6875 37.296875 38.984375 39 36.171875 
C 41 32.5625 41 27.359375 41 22.546875 
C 41 14.21875 41 2.59375 28.09375 2.59375 
z
" id="CMBX12-111"/>
     <path d="M 46 29.59375 
C 46 38.796875 38.703125 45 24.59375 45 
C 19 45 7.203125 44.484375 7.203125 36.09375 
C 7.203125 31.890625 10.40625 30.09375 13.09375 30.09375 
C 16.09375 30.09375 19 32.1875 19 35.984375 
C 19 37.890625 18.296875 39.6875 16.59375 40.796875 
C 19.90625 41.6875 22.296875 41.6875 24.203125 41.6875 
C 31 41.6875 35.09375 37.890625 35.09375 29.6875 
L 35.09375 25.6875 
C 19.296875 25.6875 3.40625 21.28125 3.40625 10.125 
C 3.40625 1 15 -1 21.90625 -1 
C 29.59375 -1 34.5 3.203125 36.5 7.625 
C 36.5 3.90625 36.5 -0.40625 46.59375 -0.40625 
L 51.703125 -0.40625 
C 53.796875 -0.40625 54.59375 -0.40625 54.59375 1.796875 
C 54.59375 3.90625 53.703125 3.90625 52.296875 3.90625 
C 46 4 46 5.609375 46 7.921875 
z
M 35.09375 13.546875 
C 35.09375 4.09375 26.703125 2.296875 23.5 2.296875 
C 18.59375 2.296875 14.5 5.609375 14.5 10.234375 
C 14.5 19.375 25.296875 22.484375 35.09375 23 
z
" id="CMBX12-97"/>
     <path d="M 21.09375 39.6875 
L 35.5 39.6875 
L 35.5 44 
L 21.09375 44 
L 21.09375 63 
L 16.90625 63 
C 16.796875 53.140625 12 43.296875 2.09375 42.984375 
L 2.09375 39.6875 
L 10.203125 39.6875 
L 10.203125 11.890625 
C 10.203125 1.296875 18.40625 -1 25.59375 -1 
C 33 -1 37.40625 4.59375 37.40625 12 
L 37.40625 17.296875 
L 33.203125 17.296875 
L 33.203125 12.09375 
C 33.203125 5.5 30.203125 2.59375 27.09375 2.59375 
C 21.09375 2.59375 21.09375 9.296875 21.09375 11.59375 
z
" id="CMBX12-116"/>
     <path d="M 49.5 37.5 
C 50.09375 38.890625 50.5 39.6875 56.90625 39.6875 
L 56.90625 44 
C 53.5 43.796875 53.09375 43.796875 49 43.796875 
C 46.296875 43.796875 46.09375 43.796875 40.40625 44 
L 40.40625 39.6875 
C 40.5 39.6875 45.203125 39.6875 45.203125 38.390625 
C 45.203125 38.09375 44.90625 37.5 44.796875 37.203125 
L 33.09375 12.1875 
L 20.296875 39.6875 
L 25.796875 39.6875 
L 25.796875 44 
C 23.40625 43.796875 16.59375 43.796875 13.796875 43.796875 
C 10.90625 43.796875 5 43.796875 2.40625 44 
L 2.40625 39.6875 
L 8.796875 39.6875 
L 27.296875 -0.125 
C 26.796875 -1.3125 25.40625 -4.203125 24.90625 -5.390625 
C 22.796875 -9.859375 19.59375 -16.703125 12.59375 -16.703125 
C 12.203125 -16.703125 11 -16.703125 9.90625 -16.109375 
C 10.09375 -16.015625 13.09375 -14.828125 13.09375 -11.046875 
C 13.09375 -7.765625 10.703125 -5.6875 7.703125 -5.6875 
C 4.59375 -5.6875 2.203125 -7.765625 2.203125 -11.140625 
C 2.203125 -15.8125 6.59375 -20 12.59375 -20 
C 20.796875 -20 26.203125 -12.640625 28.203125 -8.265625 
z
" id="CMBX12-121"/>
     <path d="M 46.796875 11.3125 
C 46.796875 12.515625 45.703125 12.515625 44.703125 12.515625 
C 43.09375 12.515625 43 12.421875 42.5 11.21875 
C 41.796875 9.3125 39.09375 2.59375 29.90625 2.59375 
C 15.796875 2.59375 15.796875 17.828125 15.796875 22.34375 
C 15.796875 28.25 15.90625 41.390625 29 41.390625 
C 29.703125 41.390625 35.59375 41.1875 35.59375 40.6875 
C 35.59375 40.59375 35.5 40.484375 35.296875 40.390625 
C 35 40.09375 33.703125 38.578125 33.703125 36.078125 
C 33.703125 31.859375 37.09375 30.15625 39.59375 30.15625 
C 41.703125 30.15625 45.5 31.46875 45.5 36.171875 
C 45.5 44.390625 34 45 28.59375 45 
C 10.796875 45 3.796875 33.375 3.796875 21.84375 
C 3.796875 8.203125 13.296875 -1 28 -1 
C 43.703125 -1 46.796875 10.609375 46.796875 11.3125 
z
" id="CMBX12-99"/>
     <path d="M 35.296875 44.1875 
L 35.296875 39.890625 
C 41.5 39.890625 42.203125 39.890625 42.203125 35.953125 
L 42.203125 16.140625 
C 42.203125 8.453125 37.703125 2.296875 29.90625 2.296875 
C 22.40625 2.296875 22 4.8125 22 10.375 
L 22 45 
L 4.203125 44.1875 
L 4.203125 39.890625 
C 10.40625 39.890625 11.09375 39.890625 11.09375 35.953125 
L 11.09375 12 
C 11.09375 1.890625 17.796875 -1 28.5 -1 
C 30.90625 -1 38.296875 -1 42.59375 7.140625 
L 42.703125 7.140625 
L 42.703125 -1 
L 60 -0.40625 
L 60 3.90625 
C 53.796875 3.90625 53.09375 3.90625 53.09375 7.84375 
L 53.09375 45 
z
" id="CMBX12-117"/>
     <path d="M 20.796875 22.5 
C 20.796875 25.796875 21.5 41.6875 33.203125 41.6875 
C 31.796875 40.59375 31.09375 38.890625 31.09375 37.09375 
C 31.09375 33 34.40625 31.296875 36.90625 31.296875 
C 39.40625 31.296875 42.703125 33 42.703125 37.09375 
C 42.703125 42.1875 37.5 45 32.703125 45 
C 24.796875 45 21.40625 38.09375 20 33.890625 
L 19.90625 33.890625 
L 19.90625 45 
L 3.5 44.1875 
L 3.5 39.890625 
C 9.703125 39.890625 10.40625 39.890625 10.40625 36 
L 10.40625 4.296875 
L 3.5 4.296875 
L 3.5 0 
C 5.796875 0.1875 13.296875 0.1875 16.09375 0.1875 
C 19 0.1875 27.09375 0.1875 29.5 0 
L 29.5 4.296875 
L 20.796875 4.296875 
z
" id="CMBX12-114"/>
     <path d="M 37.703125 42.390625 
C 37.703125 44.296875 37.703125 45 36.203125 45 
C 35.59375 45 35.40625 45 33.90625 44.09375 
C 33.5 43.796875 32.40625 43.09375 31.90625 42.796875 
C 29.09375 44.390625 25.40625 45 21.796875 45 
C 18.796875 45 3.796875 45 3.796875 31.96875 
C 3.796875 21.4375 16.203125 19.234375 19.296875 18.734375 
C 22 18.234375 25.296875 17.625 25.703125 17.625 
C 29.703125 16.734375 33.703125 14.21875 33.703125 10.015625 
C 33.703125 2.296875 24.59375 2.296875 22.5 2.296875 
C 17.40625 2.296875 11.09375 3.890625 8.296875 13.625 
C 7.703125 15.625 7.59375 15.71875 5.90625 15.71875 
C 3.796875 15.71875 3.796875 15.421875 3.796875 13.125 
L 3.796875 1.59375 
C 3.796875 -0.3125 3.796875 -1 5.296875 -1 
C 6 -1 6.203125 -1 8.203125 0.59375 
L 10.796875 2.5 
C 15.296875 -1 20.703125 -1 22.5 -1 
C 28 -1 40.5 0.1875 40.5 13.515625 
C 40.5 18.328125 37.90625 21.640625 35.90625 23.4375 
C 31.796875 26.859375 28.40625 27.453125 23 28.453125 
C 16.59375 29.5625 10.59375 30.65625 10.59375 35.46875 
C 10.59375 41.984375 19.5 41.984375 21.59375 41.984375 
C 32.703125 41.984375 33.296875 34.96875 33.5 32.46875 
C 33.59375 31.171875 34.40625 31.171875 35.59375 31.171875 
C 37.703125 31.171875 37.703125 31.46875 37.703125 33.765625 
z
" id="CMBX12-115"/>
     <path d="M 21.703125 39.6875 
L 33.09375 39.6875 
L 33.09375 44 
L 21.203125 44 
L 21.203125 54.15625 
C 21.203125 64.40625 27.796875 66 31.09375 66 
C 32.203125 66 32.40625 65.890625 33 65.6875 
C 31.5 64.703125 30.59375 63.03125 30.59375 60.953125 
C 30.59375 57.015625 33.796875 55.234375 36.40625 55.234375 
C 38.59375 55.234375 42.203125 56.71875 42.203125 61.0625 
C 42.203125 65.109375 38.59375 69.296875 31.5 69.296875 
C 22.40625 69.296875 11.296875 65.5 11.296875 54.046875 
L 11.296875 44 
L 3.90625 44 
L 3.90625 39.6875 
L 11.296875 39.6875 
L 11.296875 4.296875 
L 4.40625 4.296875 
L 4.40625 0 
C 6.703125 0.1875 14.203125 0.1875 17 0.1875 
C 19.90625 0.1875 28 0.1875 30.40625 0 
L 30.40625 4.296875 
L 21.703125 4.296875 
z
" id="CMBX12-102"/>
     <path d="M 45.796875 67.703125 
C 45.09375 69.5 44.90625 70 42.5 70 
C 40 70 39.796875 69.5 39.09375 67.703125 
L 14.296875 6.703125 
C 13.59375 5.09375 13.59375 4.890625 10.796875 4.59375 
C 8.296875 4.296875 7.90625 4.296875 5.703125 4.296875 
L 3.90625 4.296875 
L 3.90625 0 
C 6.5 0.1875 12.5 0.1875 15.40625 0.1875 
C 18.09375 0.1875 25.40625 0.1875 27.703125 0 
L 27.703125 4.296875 
C 25.5 4.296875 21.703125 4.296875 18.90625 5.40625 
C 19.203125 6.3125 19.203125 6.5 19.40625 6.90625 
L 24.703125 20 
L 51.5 20 
L 57.796875 4.296875 
L 48.40625 4.296875 
L 48.40625 0 
C 51.59375 0.1875 61.296875 0.1875 65.09375 0.1875 
C 68.296875 0.1875 78.5 0.1875 81 0 
L 81 4.296875 
L 71.5 4.296875 
z
M 38.09375 53.03125 
L 49.703125 24.296875 
L 26.40625 24.296875 
z
" id="CMBX12-65"/>
     <path d="M 37.40625 -23.90625 
C 37.40625 -23.515625 37.40625 -23.3125 35.5 -21.5 
C 24.296875 -10.3125 20 7.296875 20 24.890625 
C 20 44.59375 24.90625 60.796875 36.09375 72.09375 
C 37.296875 73.296875 37.40625 73.390625 37.40625 73.796875 
C 37.40625 75 36.203125 75 35.703125 75 
C 34.796875 75 34.59375 75 32 72.890625 
C 17.59375 61.390625 10.796875 43 10.796875 25 
C 10.796875 6.59375 17.703125 -11.3125 31.90625 -22.90625 
C 34.5 -25.109375 34.703125 -25.109375 35.703125 -25.109375 
C 36.203125 -25.109375 37.40625 -25.109375 37.40625 -23.90625 
z
" id="CMBX12-40"/>
     <path d="M 2 -16.015625 
C 1.90625 -16.21875 1.59375 -17.5 1.59375 -17.609375 
C 1.59375 -19 3.09375 -19 4 -19 
C 6 -19 6 -18.8125 6.59375 -16.703125 
C 6.90625 -15.125 12.90625 8.578125 13 8.78125 
C 17.203125 1.890625 24.90625 -1 32.90625 -1 
C 53 -1 64.203125 14.078125 64.203125 26.9375 
C 64.203125 33.796875 61.09375 37.59375 57.796875 40.09375 
C 61.40625 43.09375 65.5 49.640625 65.5 56.609375 
C 65.5 65.1875 59.296875 70 49.90625 70 
C 35.59375 70 20.796875 58.828125 17.203125 44.1875 
z
M 47.296875 39.6875 
C 44.90625 38 42.40625 38 41 38 
C 40.59375 38 36.203125 38 36.203125 38.796875 
C 36.203125 40.390625 41.09375 40.390625 42.40625 40.390625 
C 44.203125 40.390625 45.40625 40.390625 47.296875 39.6875 
z
M 50.703125 43.1875 
C 47.40625 44 44.59375 44 42.703125 44 
C 39.5 44 31.40625 44 31.40625 38.59375 
C 31.40625 34.390625 37.40625 34.390625 40.90625 34.390625 
C 42.59375 34.390625 47.09375 34.390625 51.59375 36.296875 
C 52.40625 34.796875 52.703125 32.828125 52.703125 31.15625 
C 52.703125 27.625 50.09375 15.75 47 10.640625 
C 43.90625 5.828125 39 2.59375 32.703125 2.59375 
C 23.40625 2.59375 15.59375 8.09375 15.59375 16.921875 
C 15.59375 18.890625 16.09375 20.953125 16.296875 21.921875 
C 17.796875 27.71875 21 40.6875 22.203125 45.109375 
C 25.40625 56.09375 37.5 66.390625 49.40625 66.390625 
C 53.09375 66.390625 55.296875 64.578125 55.296875 60.640625 
C 55.296875 57.515625 52.90625 47.125 50.703125 43.1875 
z
" id="CMMIB10-12"/>
     <path d="M 77.09375 33 
C 78.59375 33 81.203125 33 81.203125 35.796875 
C 81.203125 38.5 78.5 38.5 77.203125 38.5 
L 10.203125 38.5 
C 8.90625 38.5 6.203125 38.5 6.203125 35.796875 
C 6.203125 33 8.796875 33 10.296875 33 
z
M 77.203125 11.484375 
C 78.5 11.484375 81.203125 11.484375 81.203125 14.1875 
C 81.203125 17 78.59375 17 77.09375 17 
L 10.296875 17 
C 8.796875 17 6.203125 17 6.203125 14.1875 
C 6.203125 11.484375 8.90625 11.484375 10.203125 11.484375 
z
" id="CMBX12-61"/>
     <path d="M 34.59375 63.03125 
C 34.59375 66 34.40625 66 31.203125 66 
C 23.796875 59.296875 12.703125 59.296875 10.5 59.296875 
L 8.59375 59.296875 
L 8.59375 55 
L 10.5 55 
C 14 55 19.296875 55.59375 23.296875 56.890625 
L 23.296875 4.296875 
L 9.40625 4.296875 
L 9.40625 0 
C 13.59375 0.1875 24.09375 0.1875 28.796875 0.1875 
C 33.5 0.1875 44.09375 0.1875 48.296875 0 
L 48.296875 4.296875 
L 34.59375 4.296875 
z
" id="CMBX12-49"/>
     <path d="M 32.796875 24.890625 
C 32.796875 43.296875 25.90625 61.203125 11.703125 72.796875 
C 9.09375 75 8.90625 75 7.90625 75 
C 7.40625 75 6.203125 75 6.203125 73.796875 
C 6.203125 73.390625 6.203125 73.1875 8.09375 71.390625 
C 19.296875 60.203125 23.59375 42.59375 23.59375 25 
C 23.59375 5.296875 18.703125 -10.90625 7.5 -22.203125 
C 6.296875 -23.40625 6.203125 -23.515625 6.203125 -23.90625 
C 6.203125 -25.109375 7.40625 -25.109375 7.90625 -25.109375 
C 8.796875 -25.109375 9 -25.109375 11.59375 -23 
C 26 -11.5 32.796875 6.890625 32.796875 24.890625 
z
" id="CMBX12-41"/>
    </defs>
    <g transform="translate(83.173724 14.67198)scale(0.1 -0.1)">
     <use transform="scale(0.996264)" xlink:href="#CMBX12-85"/>
     <use transform="translate(86.135473 0)scale(0.996264)" xlink:href="#CMBX12-83"/>
     <use transform="translate(148.401973 0)scale(0.996264)" xlink:href="#CMBX12-68"/>
     <use transform="translate(234.306759 0)scale(0.996264)" xlink:href="#CMBX12-66"/>
     <use transform="translate(313.984895 0)scale(0.996264)" xlink:href="#CMBX12-82"/>
     <use transform="translate(397.58357 0)scale(0.996264)" xlink:href="#CMBX12-76"/>
     <use transform="translate(502.283566 0)scale(0.996264)" xlink:href="#CMBX12-105"/>
     <use transform="translate(533.416816 0)scale(0.996264)" xlink:href="#CMBX12-109"/>
     <use transform="translate(626.816567 0)scale(0.996264)" xlink:href="#CMBX12-112"/>
     <use transform="translate(689.083068 0)scale(0.996264)" xlink:href="#CMBX12-108"/>
     <use transform="translate(720.216318 0)scale(0.996264)" xlink:href="#CMBX12-105"/>
     <use transform="translate(751.349569 0)scale(0.996264)" xlink:href="#CMBX12-101"/>
     <use transform="translate(802.488836 0)scale(0.996264)" xlink:href="#CMBX12-100"/>
     <use transform="translate(902.115237 0)scale(0.996264)" xlink:href="#CMBX12-118"/>
     <use transform="translate(958.155087 0)scale(0.996264)" xlink:href="#CMBX12-111"/>
     <use transform="translate(1014.194938 0)scale(0.996264)" xlink:href="#CMBX12-108"/>
     <use transform="translate(1045.328188 0)scale(0.996264)" xlink:href="#CMBX12-97"/>
     <use transform="translate(1099.811376 0)scale(0.996264)" xlink:href="#CMBX12-116"/>
     <use transform="translate(1143.397927 0)scale(0.996264)" xlink:href="#CMBX12-105"/>
     <use transform="translate(1174.531177 0)scale(0.996264)" xlink:href="#CMBX12-108"/>
     <use transform="translate(1205.664427 0)scale(0.996264)" xlink:href="#CMBX12-105"/>
     <use transform="translate(1236.797678 0)scale(0.996264)" xlink:href="#CMBX12-116"/>
     <use transform="translate(1277.270903 0)scale(0.996264)" xlink:href="#CMBX12-121"/>
     <use transform="translate(1373.783979 0)scale(0.996264)" xlink:href="#CMBX12-99"/>
     <use transform="translate(1423.59718 0)scale(0.996264)" xlink:href="#CMBX12-117"/>
     <use transform="translate(1485.86368 0)scale(0.996264)" xlink:href="#CMBX12-114"/>
     <use transform="translate(1531.641187 0)scale(0.996264)" xlink:href="#CMBX12-118"/>
     <use transform="translate(1587.681038 0)scale(0.996264)" xlink:href="#CMBX12-101"/>
     <use transform="translate(1638.820305 0)scale(0.996264)" xlink:href="#CMBX12-115"/>
     <use transform="translate(1720.389543 0)scale(0.996264)" xlink:href="#CMBX12-102"/>
     <use transform="translate(1754.636118 0)scale(0.996264)" xlink:href="#CMBX12-114"/>
     <use transform="translate(1800.413625 0)scale(0.996264)" xlink:href="#CMBX12-111"/>
     <use transform="translate(1856.453476 0)scale(0.996264)" xlink:href="#CMBX12-109"/>
     <use transform="translate(1987.213127 0)scale(0.996264)" xlink:href="#CMBX12-83"/>
     <use transform="translate(2049.479628 0)scale(0.996264)" xlink:href="#CMBX12-65"/>
     <use transform="translate(2134.116022 0)scale(0.996264)" xlink:href="#CMBX12-66"/>
     <use transform="translate(2213.794158 0)scale(0.996264)" xlink:href="#CMBX12-82"/>
     <use transform="translate(2327.4688 0)scale(0.996264)" xlink:href="#CMBX12-40"/>
     <use transform="translate(2371.05535 0)scale(0.996264)" xlink:href="#CMMIB10-12"/>
     <use transform="translate(2471.99593 0)scale(0.996264)" xlink:href="#CMBX12-61"/>
     <use transform="translate(2590.993962 0)scale(0.996264)" xlink:href="#CMBX12-49"/>
     <use transform="translate(2647.033813 0)scale(0.996264)" xlink:href="#CMBX12-41"/>
    </g>
   </g>
   <g id="legend_1">
    <g id="patch_7">
     <path d="M 307.63192 71.670963 
L 396.549952 71.670963 
Q 398.149952 71.670963 398.149952 70.070963 
L 398.149952 26.27198 
Q 398.149952 24.67198 396.549952 24.67198 
L 307.63192 24.67198 
Q 306.03192 24.67198 306.03192 26.27198 
L 306.03192 70.070963 
Q 306.03192 71.670963 307.63192 71.670963 
z
" style="fill:#ffffff;opacity:0.8;stroke:#000000;stroke-linejoin:miter;stroke-width:0.4;"/>
    </g>
    <g id="line2d_22">
     <path d="M 309.23192 30.67198 
L 325.23192 30.67198 
" style="fill:none;stroke:#1f77b4;stroke-linecap:square;stroke-width:0.6;"/>
    </g>
    <g id="line2d_23"/>
    <g id="text_17">
     <!-- ON -->
     <defs>
      <path d="M 67.296875 33.84375 
C 67.296875 54.5 52.59375 70 36 70 
C 19 70 4.59375 54.296875 4.59375 33.84375 
C 4.59375 13.390625 19.203125 -2 35.90625 -2 
C 53 -2 67.296875 13.6875 67.296875 33.84375 
z
M 36 -0.203125 
C 24.59375 -0.203125 12.203125 11.28125 12.203125 35.15625 
C 12.203125 58.921875 25.796875 68.1875 35.90625 68.1875 
C 46.5 68.1875 59.703125 58.625 59.703125 35.15625 
C 59.703125 10.875 47 -0.203125 36 -0.203125 
z
" id="CMR17-79"/>
      <path d="M 20.5 66.796875 
C 19.796875 67.890625 19.703125 68 17.796875 68 
L 5.09375 68 
L 5.09375 65.390625 
L 7 65.390625 
C 11 65.390625 12.796875 64.890625 13.09375 64.796875 
L 13.09375 9.75 
C 13.09375 7.265625 13.09375 2.59375 5.09375 2.59375 
L 5.09375 0 
C 7.40625 0.1875 11.59375 0.1875 14.09375 0.1875 
C 16.59375 0.1875 20.796875 0.1875 23.09375 0 
L 23.09375 2.59375 
C 15.09375 2.59375 15.09375 7.265625 15.09375 9.75 
L 15.09375 63.390625 
C 15.796875 62.796875 15.796875 62.609375 16.5 61.609375 
L 53.59375 1.1875 
C 54.296875 0 54.59375 0 55.09375 0 
C 56.09375 0 56.09375 0.296875 56.09375 2.1875 
L 56.09375 58.21875 
C 56.09375 60.703125 56.09375 65.390625 64.09375 65.390625 
L 64.09375 68 
C 61.796875 67.796875 57.59375 67.796875 55.09375 67.796875 
C 52.59375 67.796875 48.40625 67.796875 46.09375 68 
L 46.09375 65.390625 
C 54.09375 65.390625 54.09375 60.703125 54.09375 58.21875 
L 54.09375 12.140625 
z
" id="CMR17-78"/>
     </defs>
     <g transform="translate(331.63192 33.47198)scale(0.08 -0.08)">
      <use transform="scale(0.996264)" xlink:href="#CMR17-79"/>
      <use transform="translate(71.714788 0)scale(0.996264)" xlink:href="#CMR17-78"/>
     </g>
    </g>
    <g id="line2d_24">
     <path d="M 309.23192 41.821726 
L 325.23192 41.821726 
" style="fill:none;stroke:#ff7f0e;stroke-linecap:square;stroke-width:0.6;"/>
    </g>
    <g id="line2d_25"/>
    <g id="text_18">
     <!-- 1W -->
     <defs>
      <path d="M 86.296875 58.984375 
C 87.203125 61.6875 88.703125 65.203125 94.5 65.390625 
L 94.5 68 
C 92.796875 67.890625 89.296875 67.796875 87.5 67.796875 
C 85 67.796875 80.59375 67.796875 78.203125 68 
L 78.203125 65.390625 
C 82.703125 65.296875 84.59375 62.796875 84.59375 60.390625 
C 84.59375 59.6875 84.5 59.28125 84.09375 58.1875 
L 68.59375 8.703125 
L 52.296875 60.78125 
C 52 61.796875 51.90625 62.1875 51.90625 62.59375 
C 51.90625 65.390625 56.296875 65.390625 58.203125 65.390625 
L 58.203125 68 
C 55.296875 67.796875 50.296875 67.796875 47.203125 67.796875 
C 44.703125 67.796875 40.203125 67.796875 37.90625 68 
L 37.90625 65.390625 
C 42.5 65.390625 43.703125 65.09375 44.703125 63.296875 
C 45.09375 62.390625 46.703125 57.1875 46.703125 56.875 
C 46.703125 56.484375 46.5 55.875 46.40625 55.578125 
L 31.703125 8.8125 
L 15.40625 60.78125 
C 14.90625 62.1875 14.90625 62.390625 14.90625 62.59375 
C 14.90625 65.390625 19.296875 65.390625 21.296875 65.390625 
L 21.296875 68 
C 18.40625 67.796875 13.40625 67.796875 10.296875 67.796875 
C 7.703125 67.796875 3.296875 67.796875 0.90625 68 
L 0.90625 65.390625 
C 6.90625 65.390625 7.296875 64.796875 8.296875 61.59375 
L 27.796875 -0.3125 
C 28.296875 -1.8125 28.296875 -2 29.203125 -2 
C 30 -2 30.296875 -1.8125 30.703125 -0.40625 
L 47.703125 53.875 
L 64.703125 -0.40625 
C 65.09375 -1.8125 65.40625 -2 66.203125 -2 
C 67.09375 -2 67.09375 -1.8125 67.59375 -0.3125 
z
" id="CMR17-87"/>
     </defs>
     <g transform="translate(331.63192 44.621726)scale(0.08 -0.08)">
      <use transform="scale(0.996264)" xlink:href="#CMR17-49"/>
      <use transform="translate(45.690477 0)scale(0.996264)" xlink:href="#CMR17-87"/>
     </g>
    </g>
    <g id="line2d_26">
     <path d="M 309.23192 52.971471 
L 325.23192 52.971471 
" style="fill:none;stroke:#2ca02c;stroke-linecap:square;stroke-width:0.6;"/>
    </g>
    <g id="line2d_27"/>
    <g id="text_19">
     <!-- 2W -->
     <g transform="translate(331.63192 55.771471)scale(0.08 -0.08)">
      <use transform="scale(0.996264)" xlink:href="#CMR17-50"/>
      <use transform="translate(45.690477 0)scale(0.996264)" xlink:href="#CMR17-87"/>
     </g>
    </g>
    <g id="line2d_28">
     <path d="M 309.23192 64.121217 
L 325.23192 64.121217 
" style="fill:none;stroke:#d62728;stroke-linecap:square;stroke-width:0.6;"/>
    </g>
    <g id="line2d_29"/>
    <g id="text_20">
     <!-- 1M -->
     <defs>
      <path d="M 20.90625 66.390625 
C 20.296875 67.890625 20.203125 68 18.09375 68 
L 5.296875 68 
L 5.296875 65.390625 
C 12.203125 65.390625 13.296875 65.390625 13.296875 60.90625 
L 13.296875 9.75 
C 13.296875 7.265625 13.296875 2.59375 5.296875 2.59375 
L 5.296875 0 
C 7.59375 0.1875 11.796875 0.1875 14.296875 0.1875 
C 16.796875 0.1875 21 0.1875 23.296875 0 
L 23.296875 2.59375 
C 15.296875 2.59375 15.296875 7.265625 15.296875 9.75 
L 15.296875 64.984375 
L 15.40625 64.984375 
L 38.90625 1.59375 
C 39.296875 0.59375 39.5 0 40.296875 0 
C 41.09375 0 41.296875 0.59375 41.703125 1.59375 
L 65.40625 65.484375 
L 65.5 65.484375 
L 65.5 7.078125 
C 65.5 2.59375 64.40625 2.59375 57.5 2.59375 
L 57.5 0 
C 60.203125 0.1875 65.59375 0.1875 68.5 0.1875 
C 71.40625 0.1875 76.90625 0.1875 79.59375 0 
L 79.59375 2.59375 
C 72.703125 2.59375 71.59375 2.59375 71.59375 7.078125 
L 71.59375 60.90625 
C 71.59375 65.390625 72.703125 65.390625 79.59375 65.390625 
L 79.59375 68 
L 66.90625 68 
C 64.796875 68 64.703125 67.890625 64.09375 66.390625 
L 42.5 8.0625 
z
" id="CMR17-77"/>
     </defs>
     <g transform="translate(331.63192 66.921217)scale(0.08 -0.08)">
      <use transform="scale(0.996264)" xlink:href="#CMR17-49"/>
      <use transform="translate(45.690477 0)scale(0.996264)" xlink:href="#CMR17-77"/>
     </g>
    </g>
    <g id="line2d_30">
     <path d="M 360.561401 30.67198 
L 376.561401 30.67198 
" style="fill:none;stroke:#9467bd;stroke-linecap:square;stroke-width:0.6;"/>
    </g>
    <g id="line2d_31"/>
    <g id="text_21">
     <!-- 2M -->
     <g transform="translate(382.961401 33.47198)scale(0.08 -0.08)">
      <use transform="scale(0.996264)" xlink:href="#CMR17-50"/>
      <use transform="translate(45.690477 0)scale(0.996264)" xlink:href="#CMR17-77"/>
     </g>
    </g>
    <g id="line2d_32">
     <path d="M 360.561401 41.821726 
L 376.561401 41.821726 
" style="fill:none;stroke:#8c564b;stroke-linecap:square;stroke-width:0.6;"/>
    </g>
    <g id="line2d_33"/>
    <g id="text_22">
     <!-- 3M -->
     <g transform="translate(382.961401 44.621726)scale(0.08 -0.08)">
      <use transform="scale(0.996264)" xlink:href="#CMR17-51"/>
      <use transform="translate(45.690477 0)scale(0.996264)" xlink:href="#CMR17-77"/>
     </g>
    </g>
    <g id="line2d_34">
     <path d="M 360.561401 52.971471 
L 376.561401 52.971471 
" style="fill:none;stroke:#e377c2;stroke-linecap:square;stroke-width:0.6;"/>
    </g>
    <g id="line2d_35"/>
    <g id="text_23">
     <!-- 6M -->
     <g transform="translate(382.961401 55.771471)scale(0.08 -0.08)">
      <use transform="scale(0.996264)" xlink:href="#CMR17-54"/>
      <use transform="translate(45.690477 0)scale(0.996264)" xlink:href="#CMR17-77"/>
     </g>
    </g>
    <g id="line2d_36">
     <path d="M 360.561401 64.121217 
L 376.561401 64.121217 
" style="fill:none;stroke:#7f7f7f;stroke-linecap:square;stroke-width:0.6;"/>
    </g>
    <g id="line2d_37"/>
    <g id="text_24">
     <!-- 1Y -->
     <defs>
      <path d="M 57.90625 59.125 
C 61.796875 65.28125 67.203125 65.390625 69 65.390625 
L 69 68 
C 66.703125 67.796875 64.09375 67.796875 61.59375 67.796875 
C 59.09375 67.796875 55.09375 67.796875 52.703125 68 
L 52.703125 65.390625 
C 55.203125 65.28125 56.5 64 56.5 62.109375 
C 56.5 60.90625 56 60.109375 55.203125 58.8125 
L 37.203125 30.0625 
L 17.5 61.40625 
C 16.796875 62.609375 16.703125 62.703125 16.703125 63.390625 
C 16.703125 65.390625 20.203125 65.390625 21.59375 65.390625 
L 21.59375 68 
C 18.40625 67.796875 13.5 67.796875 10.203125 67.796875 
C 7.59375 67.796875 2.59375 67.796875 0.203125 68 
L 0.203125 65.390625 
C 5.90625 65.390625 7.5 65.09375 9.296875 62.203125 
L 31.40625 27.171875 
L 31.40625 7.078125 
C 31.40625 2.59375 30.296875 2.59375 23.40625 2.59375 
L 23.40625 0 
C 26.296875 0.1875 31.5 0.1875 34.59375 0.1875 
C 37.703125 0.1875 43 0.1875 45.90625 0 
L 45.90625 2.59375 
C 38.703125 2.59375 37.796875 2.59375 37.796875 7.46875 
L 37.796875 27.171875 
z
" id="CMR17-89"/>
     </defs>
     <g transform="translate(382.961401 66.921217)scale(0.08 -0.08)">
      <use transform="scale(0.996264)" xlink:href="#CMR17-49"/>
      <use transform="translate(45.690477 0)scale(0.996264)" xlink:href="#CMR17-89"/>
     </g>
    </g>
   </g>
  </g>
 </g>
 <defs>
  <clipPath id="pa9325b805a">
   <rect height="163.08" width="362.7" x="39.449952" y="20.67198"/>
  </clipPath>
 </defs>
</svg>
