<?xml version="1.0" encoding="utf-8" standalone="no"?>
<!DOCTYPE svg PUBLIC "-//W3C//DTD SVG 1.1//EN"
  "http://www.w3.org/Graphics/SVG/1.1/DTD/svg11.dtd">
<!-- Created with matplotlib (https://matplotlib.org/) -->
<svg height="214.567563pt" version="1.1" viewBox="0 0 409.349952 214.567563" width="409.349952pt" xmlns="http://www.w3.org/2000/svg" xmlns:xlink="http://www.w3.org/1999/xlink">
 <defs>
  <style type="text/css">
*{stroke-linecap:butt;stroke-linejoin:round;}
  </style>
 </defs>
 <g id="figure_1">
  <g id="patch_1">
   <path d="M 0 214.567563 
L 409.349952 214.567563 
L 409.349952 0 
L 0 0 
z
" style="fill:#ffffff;"/>
  </g>
  <g id="axes_1">
   <g id="patch_2">
    <path d="M 39.449952 183.198498 
L 402.149952 183.198498 
L 402.149952 20.118498 
L 39.449952 20.118498 
z
" style="fill:#ffffff;"/>
   </g>
   <g id="matplotlib.axis_1">
    <g id="xtick_1">
     <g id="line2d_1">
      <defs>
       <path d="M 0 0 
L 0 2.5 
" id="mfae96762bc" style="stroke:#000000;stroke-width:0.4;"/>
      </defs>
      <g>
       <use style="stroke:#000000;stroke-width:0.4;" x="55.936316" xlink:href="#mfae96762bc" y="183.198498"/>
      </g>
     </g>
     <g id="text_1">
      <!-- ON -->
      <defs>
       <path d="M 67.296875 33.84375 
C 67.296875 54.5 52.59375 70 36 70 
C 19 70 4.59375 54.296875 4.59375 33.84375 
C 4.59375 13.390625 19.203125 -2 35.90625 -2 
C 53 -2 67.296875 13.6875 67.296875 33.84375 
z
M 36 -0.203125 
C 24.59375 -0.203125 12.203125 11.28125 12.203125 35.15625 
C 12.203125 58.921875 25.796875 68.1875 35.90625 68.1875 
C 46.5 68.1875 59.703125 58.625 59.703125 35.15625 
C 59.703125 10.875 47 -0.203125 36 -0.203125 
z
" id="CMR17-79"/>
       <path d="M 20.5 66.796875 
C 19.796875 67.890625 19.703125 68 17.796875 68 
L 5.09375 68 
L 5.09375 65.390625 
L 7 65.390625 
C 11 65.390625 12.796875 64.890625 13.09375 64.796875 
L 13.09375 9.75 
C 13.09375 7.265625 13.09375 2.59375 5.09375 2.59375 
L 5.09375 0 
C 7.40625 0.1875 11.59375 0.1875 14.09375 0.1875 
C 16.59375 0.1875 20.796875 0.1875 23.09375 0 
L 23.09375 2.59375 
C 15.09375 2.59375 15.09375 7.265625 15.09375 9.75 
L 15.09375 63.390625 
C 15.796875 62.796875 15.796875 62.609375 16.5 61.609375 
L 53.59375 1.1875 
C 54.296875 0 54.59375 0 55.09375 0 
C 56.09375 0 56.09375 0.296875 56.09375 2.1875 
L 56.09375 58.21875 
C 56.09375 60.703125 56.09375 65.390625 64.09375 65.390625 
L 64.09375 68 
C 61.796875 67.796875 57.59375 67.796875 55.09375 67.796875 
C 52.59375 67.796875 48.40625 67.796875 46.09375 68 
L 46.09375 65.390625 
C 54.09375 65.390625 54.09375 60.703125 54.09375 58.21875 
L 54.09375 12.140625 
z
" id="CMR17-78"/>
      </defs>
      <g transform="translate(49.937943 194.041437)scale(0.07 -0.07)">
       <use transform="scale(0.996264)" xlink:href="#CMR17-79"/>
       <use transform="translate(71.714788 0)scale(0.996264)" xlink:href="#CMR17-78"/>
      </g>
     </g>
    </g>
    <g id="xtick_2">
     <g id="line2d_2">
      <g>
       <use style="stroke:#000000;stroke-width:0.4;" x="67.71229" xlink:href="#mfae96762bc" y="183.198498"/>
      </g>
     </g>
     <g id="text_2">
      <!-- 2W -->
      <defs>
       <path d="M 41.703125 15.46875 
L 39.90625 15.46875 
C 38.90625 8.390625 38.09375 7.1875 37.703125 6.59375 
C 37.203125 5.796875 30 5.796875 28.59375 5.796875 
L 9.40625 5.796875 
C 13 9.6875 20 16.765625 28.5 24.9375 
C 34.59375 30.71875 41.703125 37.5 41.703125 47.390625 
C 41.703125 59.1875 32.296875 66 21.796875 66 
C 10.796875 66 4.09375 56.296875 4.09375 47.296875 
C 4.09375 43.390625 7 42.890625 8.203125 42.890625 
C 9.203125 42.890625 12.203125 43.484375 12.203125 46.984375 
C 12.203125 50.09375 9.59375 51 8.203125 51 
C 7.59375 51 7 50.890625 6.59375 50.6875 
C 8.5 59.1875 14.296875 63.390625 20.40625 63.390625 
C 29.09375 63.390625 34.796875 56.5 34.796875 47.390625 
C 34.796875 38.703125 29.703125 31.21875 24 24.734375 
L 4.09375 2.296875 
L 4.09375 0 
L 39.296875 0 
z
" id="CMR17-50"/>
       <path d="M 86.296875 58.984375 
C 87.203125 61.6875 88.703125 65.203125 94.5 65.390625 
L 94.5 68 
C 92.796875 67.890625 89.296875 67.796875 87.5 67.796875 
C 85 67.796875 80.59375 67.796875 78.203125 68 
L 78.203125 65.390625 
C 82.703125 65.296875 84.59375 62.796875 84.59375 60.390625 
C 84.59375 59.6875 84.5 59.28125 84.09375 58.1875 
L 68.59375 8.703125 
L 52.296875 60.78125 
C 52 61.796875 51.90625 62.1875 51.90625 62.59375 
C 51.90625 65.390625 56.296875 65.390625 58.203125 65.390625 
L 58.203125 68 
C 55.296875 67.796875 50.296875 67.796875 47.203125 67.796875 
C 44.703125 67.796875 40.203125 67.796875 37.90625 68 
L 37.90625 65.390625 
C 42.5 65.390625 43.703125 65.09375 44.703125 63.296875 
C 45.09375 62.390625 46.703125 57.1875 46.703125 56.875 
C 46.703125 56.484375 46.5 55.875 46.40625 55.578125 
L 31.703125 8.8125 
L 15.40625 60.78125 
C 14.90625 62.1875 14.90625 62.390625 14.90625 62.59375 
C 14.90625 65.390625 19.296875 65.390625 21.296875 65.390625 
L 21.296875 68 
C 18.40625 67.796875 13.40625 67.796875 10.296875 67.796875 
C 7.703125 67.796875 3.296875 67.796875 0.90625 68 
L 0.90625 65.390625 
C 6.90625 65.390625 7.296875 64.796875 8.296875 61.59375 
L 27.796875 -0.3125 
C 28.296875 -1.8125 28.296875 -2 29.203125 -2 
C 30 -2 30.296875 -1.8125 30.703125 -0.40625 
L 47.703125 53.875 
L 64.703125 -0.40625 
C 65.09375 -1.8125 65.40625 -2 66.203125 -2 
C 67.09375 -2 67.09375 -1.8125 67.59375 -0.3125 
z
" id="CMR17-87"/>
      </defs>
      <g transform="translate(61.713917 194.041437)scale(0.07 -0.07)">
       <use transform="scale(0.996264)" xlink:href="#CMR17-50"/>
       <use transform="translate(45.690477 0)scale(0.996264)" xlink:href="#CMR17-87"/>
      </g>
     </g>
    </g>
    <g id="xtick_3">
     <g id="line2d_3">
      <g>
       <use style="stroke:#000000;stroke-width:0.4;" x="83.11164" xlink:href="#mfae96762bc" y="183.198498"/>
      </g>
     </g>
     <g id="text_3">
      <!-- 1M -->
      <defs>
       <path d="M 26.59375 63.796875 
C 26.59375 65.890625 26.5 66 25.09375 66 
C 21.203125 61.359375 15.296875 59.890625 9.703125 59.6875 
C 9.40625 59.6875 8.90625 59.6875 8.796875 59.5 
C 8.703125 59.296875 8.703125 59.09375 8.703125 57 
C 11.796875 57 17 57.59375 21 59.984375 
L 21 7.296875 
C 21 3.796875 20.796875 2.59375 12.203125 2.59375 
L 9.203125 2.59375 
L 9.203125 0 
C 14 0.09375 19 0.1875 23.796875 0.1875 
C 28.59375 0.1875 33.59375 0.09375 38.40625 0 
L 38.40625 2.59375 
L 35.40625 2.59375 
C 26.796875 2.59375 26.59375 3.6875 26.59375 7.296875 
z
" id="CMR17-49"/>
       <path d="M 20.90625 66.390625 
C 20.296875 67.890625 20.203125 68 18.09375 68 
L 5.296875 68 
L 5.296875 65.390625 
C 12.203125 65.390625 13.296875 65.390625 13.296875 60.90625 
L 13.296875 9.75 
C 13.296875 7.265625 13.296875 2.59375 5.296875 2.59375 
L 5.296875 0 
C 7.59375 0.1875 11.796875 0.1875 14.296875 0.1875 
C 16.796875 0.1875 21 0.1875 23.296875 0 
L 23.296875 2.59375 
C 15.296875 2.59375 15.296875 7.265625 15.296875 9.75 
L 15.296875 64.984375 
L 15.40625 64.984375 
L 38.90625 1.59375 
C 39.296875 0.59375 39.5 0 40.296875 0 
C 41.09375 0 41.296875 0.59375 41.703125 1.59375 
L 65.40625 65.484375 
L 65.5 65.484375 
L 65.5 7.078125 
C 65.5 2.59375 64.40625 2.59375 57.5 2.59375 
L 57.5 0 
C 60.203125 0.1875 65.59375 0.1875 68.5 0.1875 
C 71.40625 0.1875 76.90625 0.1875 79.59375 0 
L 79.59375 2.59375 
C 72.703125 2.59375 71.59375 2.59375 71.59375 7.078125 
L 71.59375 60.90625 
C 71.59375 65.390625 72.703125 65.390625 79.59375 65.390625 
L 79.59375 68 
L 66.90625 68 
C 64.796875 68 64.703125 67.890625 64.09375 66.390625 
L 42.5 8.0625 
z
" id="CMR17-77"/>
      </defs>
      <g transform="translate(77.542216 194.041437)scale(0.07 -0.07)">
       <use transform="scale(0.996264)" xlink:href="#CMR17-49"/>
       <use transform="translate(45.690477 0)scale(0.996264)" xlink:href="#CMR17-77"/>
      </g>
     </g>
    </g>
    <g id="xtick_4">
     <g id="line2d_4">
      <g>
       <use style="stroke:#000000;stroke-width:0.4;" x="107.569432" xlink:href="#mfae96762bc" y="183.198498"/>
      </g>
     </g>
     <g id="text_4">
      <!-- 2M -->
      <g transform="translate(102.000009 194.041437)scale(0.07 -0.07)">
       <use transform="scale(0.996264)" xlink:href="#CMR17-50"/>
       <use transform="translate(45.690477 0)scale(0.996264)" xlink:href="#CMR17-77"/>
      </g>
     </g>
    </g>
    <g id="xtick_5">
     <g id="line2d_5">
      <g>
       <use style="stroke:#000000;stroke-width:0.4;" x="136.556445" xlink:href="#mfae96762bc" y="183.198498"/>
      </g>
     </g>
     <g id="text_5">
      <!-- 3M -->
      <defs>
       <path d="M 22.09375 34 
C 31 34 34.90625 26.140625 34.90625 17.09375 
C 34.90625 5.03125 28.5 0.390625 22.703125 0.390625 
C 17.40625 0.390625 8.796875 3.015625 6.09375 10.796875 
C 6.59375 10.59375 7.09375 10.59375 7.59375 10.59375 
C 10 10.59375 11.796875 12.1875 11.796875 14.796875 
C 11.796875 17.6875 9.59375 19 7.59375 19 
C 5.90625 19 3.296875 18.1875 3.296875 14.484375 
C 3.296875 5.234375 12.296875 -2 22.90625 -2 
C 34 -2 42.5 6.75 42.5 16.984375 
C 42.5 26.84375 34.5 34 25 35.09375 
C 32.59375 36.671875 39.90625 43.375 39.90625 52.390625 
C 39.90625 60.25 32 66 23 66 
C 13.90625 66 5.90625 60.34375 5.90625 52.296875 
C 5.90625 48.796875 8.5 48.1875 9.796875 48.1875 
C 11.90625 48.1875 13.703125 49.484375 13.703125 52.09375 
C 13.703125 54.6875 11.90625 56 9.796875 56 
C 9.40625 56 8.90625 56 8.5 55.796875 
C 11.40625 62.484375 19.296875 63.6875 22.796875 63.6875 
C 26.296875 63.6875 32.90625 61.96875 32.90625 52.296875 
C 32.90625 49.484375 32.5 44.546875 29.09375 40.21875 
C 26.09375 36.390625 22.703125 36.1875 19.40625 35.890625 
C 18.90625 35.890625 16.59375 35.6875 16.203125 35.6875 
C 15.5 35.59375 15.09375 35.5 15.09375 34.796875 
C 15.09375 34.09375 15.203125 34 17.203125 34 
z
" id="CMR17-51"/>
      </defs>
      <g transform="translate(130.987022 194.041437)scale(0.07 -0.07)">
       <use transform="scale(0.996264)" xlink:href="#CMR17-51"/>
       <use transform="translate(45.690477 0)scale(0.996264)" xlink:href="#CMR17-77"/>
      </g>
     </g>
    </g>
    <g id="xtick_6">
     <g id="line2d_6">
      <g>
       <use style="stroke:#000000;stroke-width:0.4;" x="218.988264" xlink:href="#mfae96762bc" y="183.198498"/>
      </g>
     </g>
     <g id="text_6">
      <!-- 6M -->
      <defs>
       <path d="M 10.59375 34.34375 
C 10.59375 58 21.796875 63.6875 28.296875 63.6875 
C 30.40625 63.6875 35.5 63.265625 37.5 59.09375 
C 35.90625 59.09375 32.90625 59.09375 32.90625 55.59375 
C 32.90625 52.890625 35.09375 52 36.5 52 
C 37.40625 52 40.09375 52.390625 40.09375 55.796875 
C 40.09375 62.296875 35.09375 66 28.203125 66 
C 16.296875 66 3.796875 53.296875 3.796875 31.421875 
C 3.796875 4.015625 15.09375 -2 23.09375 -2 
C 32.796875 -2 42 6.734375 42 20.234375 
C 42 32.828125 33.90625 42 23.703125 42 
C 17.59375 42 13.09375 37.96875 10.59375 30.921875 
z
M 23.09375 0.390625 
C 10.796875 0.390625 10.796875 18.9375 10.796875 22.65625 
C 10.796875 29.90625 14.203125 40.390625 23.5 40.390625 
C 25.203125 40.390625 30.09375 40.390625 33.40625 33.4375 
C 35.203125 29.515625 35.203125 25.375 35.203125 20.34375 
C 35.203125 14.90625 35.203125 10.875 33.09375 6.84375 
C 30.90625 2.703125 27.703125 0.390625 23.09375 0.390625 
z
" id="CMR17-54"/>
      </defs>
      <g transform="translate(213.41884 194.041437)scale(0.07 -0.07)">
       <use transform="scale(0.996264)" xlink:href="#CMR17-54"/>
       <use transform="translate(45.690477 0)scale(0.996264)" xlink:href="#CMR17-77"/>
      </g>
     </g>
    </g>
    <g id="xtick_7">
     <g id="line2d_7">
      <g>
       <use style="stroke:#000000;stroke-width:0.4;" x="385.663588" xlink:href="#mfae96762bc" y="183.198498"/>
      </g>
     </g>
     <g id="text_7">
      <!-- 1Y -->
      <defs>
       <path d="M 57.90625 59.125 
C 61.796875 65.28125 67.203125 65.390625 69 65.390625 
L 69 68 
C 66.703125 67.796875 64.09375 67.796875 61.59375 67.796875 
C 59.09375 67.796875 55.09375 67.796875 52.703125 68 
L 52.703125 65.390625 
C 55.203125 65.28125 56.5 64 56.5 62.109375 
C 56.5 60.90625 56 60.109375 55.203125 58.8125 
L 37.203125 30.0625 
L 17.5 61.40625 
C 16.796875 62.609375 16.703125 62.703125 16.703125 63.390625 
C 16.703125 65.390625 20.203125 65.390625 21.59375 65.390625 
L 21.59375 68 
C 18.40625 67.796875 13.5 67.796875 10.203125 67.796875 
C 7.59375 67.796875 2.59375 67.796875 0.203125 68 
L 0.203125 65.390625 
C 5.90625 65.390625 7.5 65.09375 9.296875 62.203125 
L 31.40625 27.171875 
L 31.40625 7.078125 
C 31.40625 2.59375 30.296875 2.59375 23.40625 2.59375 
L 23.40625 0 
C 26.296875 0.1875 31.5 0.1875 34.59375 0.1875 
C 37.703125 0.1875 43 0.1875 45.90625 0 
L 45.90625 2.59375 
C 38.703125 2.59375 37.796875 2.59375 37.796875 7.46875 
L 37.796875 27.171875 
z
" id="CMR17-89"/>
      </defs>
      <g transform="translate(380.737588 194.041437)scale(0.07 -0.07)">
       <use transform="scale(0.996264)" xlink:href="#CMR17-49"/>
       <use transform="translate(45.690477 0)scale(0.996264)" xlink:href="#CMR17-89"/>
      </g>
     </g>
    </g>
    <g id="text_8">
     <!-- Time to maturity -->
     <defs>
      <path d="M 62.203125 67.6875 
L 4.5 67.6875 
L 2.796875 45.6875 
L 4.59375 45.6875 
C 5.90625 62.203125 7.296875 65.09375 22.703125 65.09375 
C 24.5 65.09375 27.40625 65.09375 28.203125 64.984375 
C 30.09375 64.6875 30.09375 63.5 30.09375 61.203125 
L 30.09375 7.265625 
C 30.09375 3.6875 29.796875 2.59375 21.5 2.59375 
L 18.703125 2.59375 
L 18.703125 0 
C 23.5 0.09375 28.5 0.1875 33.40625 0.1875 
C 38.296875 0.1875 43.296875 0.09375 48.09375 0 
L 48.09375 2.59375 
L 45.296875 2.59375 
C 37 2.59375 36.703125 3.6875 36.703125 7.265625 
L 36.703125 61.203125 
C 36.703125 63.390625 36.703125 64.59375 38.5 64.984375 
C 39.296875 65.09375 42.203125 65.09375 44 65.09375 
C 59.296875 65.09375 60.796875 62.203125 62.09375 45.6875 
L 63.90625 45.6875 
z
" id="CMR17-84"/>
      <path d="M 15.5 61.890625 
C 15.5 64.09375 13.703125 66 11.40625 66 
C 9.203125 66 7.296875 64.1875 7.296875 61.890625 
C 7.296875 59.6875 9.09375 57.796875 11.40625 57.796875 
C 13.59375 57.796875 15.5 59.59375 15.5 61.890625 
z
M 3.796875 42.890625 
L 3.796875 40.296875 
C 9.40625 40.296875 10.203125 39.6875 10.203125 34.859375 
L 10.203125 6.921875 
C 10.203125 3.09375 9.796875 2.59375 3.40625 2.59375 
L 3.40625 0 
C 5.796875 0.1875 10.09375 0.1875 12.59375 0.1875 
C 15 0.1875 19.09375 0.1875 21.40625 0 
L 21.40625 2.59375 
C 15.5 2.59375 15.296875 3.203125 15.296875 6.8125 
L 15.296875 44 
z
" id="CMR17-105"/>
      <path d="M 67.59375 30.53125 
C 67.59375 35.5625 66.703125 44 54.796875 44 
C 48 44 43.296875 39.375 41.5 33.953125 
L 41.40625 33.953125 
C 40.203125 42.1875 34.296875 44 28.703125 44 
C 20.796875 44 16.703125 37.875 15.203125 33.84375 
L 15.09375 33.84375 
L 15.09375 44 
L 3.296875 42.890625 
L 3.296875 40.28125 
C 9.203125 40.28125 10.09375 39.6875 10.09375 34.859375 
L 10.09375 6.921875 
C 10.09375 3.09375 9.703125 2.59375 3.296875 2.59375 
L 3.296875 0 
C 5.703125 0.1875 10.09375 0.1875 12.703125 0.1875 
C 15.296875 0.1875 19.796875 0.1875 22.203125 0 
L 22.203125 2.59375 
C 15.796875 2.59375 15.40625 3 15.40625 6.921875 
L 15.40625 26.21875 
C 15.40625 35.453125 21 42.390625 28 42.390625 
C 35.40625 42.390625 36.203125 35.765625 36.203125 30.9375 
L 36.203125 6.921875 
C 36.203125 3.09375 35.796875 2.59375 29.40625 2.59375 
L 29.40625 0 
C 31.796875 0.1875 36.203125 0.1875 38.796875 0.1875 
C 41.40625 0.1875 45.90625 0.1875 48.296875 0 
L 48.296875 2.59375 
C 41.90625 2.59375 41.5 3 41.5 6.921875 
L 41.5 26.21875 
C 41.5 35.453125 47.09375 42.390625 54.09375 42.390625 
C 61.5 42.390625 62.296875 35.765625 62.296875 30.9375 
L 62.296875 6.921875 
C 62.296875 3.09375 61.90625 2.59375 55.5 2.59375 
L 55.5 0 
C 57.90625 0.1875 62.296875 0.1875 64.90625 0.1875 
C 67.5 0.1875 72 0.1875 74.40625 0 
L 74.40625 2.59375 
C 68 2.59375 67.59375 3 67.59375 6.921875 
z
" id="CMR17-109"/>
      <path d="M 38.09375 23.484375 
C 38.5 23.890625 38.5 24.09375 38.5 25.09375 
C 38.5 35.171875 33.09375 44 21.703125 44 
C 11.09375 44 2.703125 33.984375 2.703125 21.78125 
C 2.703125 8.65625 12.203125 -1 22.796875 -1 
C 34 -1 38.40625 9.671875 38.40625 11.796875 
C 38.40625 12.5 37.796875 12.5 37.59375 12.5 
C 36.90625 12.5 36.796875 12.296875 36.40625 11.078125 
C 34.203125 4.21875 28.703125 0.796875 23.5 0.796875 
C 19.203125 0.796875 14.90625 3.21875 12.203125 7.65625 
C 9.09375 12.796875 9.09375 18.75 9.09375 23.484375 
z
M 9.203125 25 
C 9.90625 39.234375 17.59375 42.390625 21.59375 42.390625 
C 28.40625 42.390625 33 36.0625 33.09375 25 
z
" id="CMR17-101"/>
      <path d="M 15.09375 40.390625 
L 29.09375 40.390625 
L 29.09375 43 
L 15.09375 43 
L 15.09375 62 
L 13.296875 62 
C 13.09375 51.4375 9.59375 42.1875 1.09375 41.984375 
L 1.09375 40.390625 
L 9.796875 40.390625 
L 9.796875 12.15625 
C 9.796875 10.234375 9.796875 -1 21.40625 -1 
C 27.296875 -1 30.703125 4.8125 30.703125 12.25 
L 30.703125 17.984375 
L 28.90625 17.984375 
L 28.90625 12.34375 
C 28.90625 5.421875 26.203125 0.796875 22 0.796875 
C 19.09375 0.796875 15.09375 2.796875 15.09375 11.953125 
z
" id="CMR17-116"/>
      <path d="M 43.09375 21.1875 
C 43.09375 34 33.796875 44 22.90625 44 
C 12 44 2.703125 34 2.703125 21.1875 
C 2.703125 8.59375 12 -1 22.90625 -1 
C 33.796875 -1 43.09375 8.59375 43.09375 21.1875 
z
M 22.90625 0.796875 
C 18.203125 0.796875 14.203125 3.59375 11.90625 7.5 
C 9.40625 12 9.09375 17.59375 9.09375 22 
C 9.09375 26.1875 9.296875 31.390625 11.90625 35.890625 
C 13.90625 39.1875 17.796875 42.390625 22.90625 42.390625 
C 27.40625 42.390625 31.203125 39.890625 33.59375 36.390625 
C 36.703125 31.6875 36.703125 25.09375 36.703125 22 
C 36.703125 18.09375 36.5 12.09375 33.796875 7.296875 
C 31 2.6875 26.703125 0.796875 22.90625 0.796875 
z
" id="CMR17-111"/>
      <path d="M 36 25.875 
C 36 32 36 35.546875 31.796875 39.59375 
C 28.09375 42.984375 23.796875 44 20.40625 44 
C 12.5 44 6.796875 37.625 6.796875 30.890625 
C 6.796875 27.1875 9.796875 27 10.40625 27 
C 11.703125 27 14 27.796875 14 30.59375 
C 14 33.09375 12.09375 34.1875 10.40625 34.1875 
C 10 34.1875 9.5 34.09375 9.203125 34 
C 11.296875 40.53125 16.703125 42.390625 20.203125 42.390625 
C 25.203125 42.390625 30.703125 37.828125 30.703125 29.296875 
L 30.703125 25.5 
C 24.796875 25.296875 17.703125 24.5 12.09375 21.453125 
C 5.796875 17.921875 4 12.84375 4 9 
C 4 1.203125 13 -1 18.296875 -1 
C 23.796875 -1 28.90625 2.109375 31.09375 7.890625 
C 31.296875 3.421875 34.09375 -0.609375 38.5 -0.609375 
C 40.59375 -0.609375 45.90625 0.796875 45.90625 8.796875 
L 45.90625 14.46875 
L 44.09375 14.46875 
L 44.09375 8.703125 
C 44.09375 2.515625 41.40625 1.703125 40.09375 1.703125 
C 36 1.703125 36 6.96875 36 11.4375 
z
M 30.703125 13.859375 
C 30.703125 5.046875 24.5 0.59375 19 0.59375 
C 14 0.59375 10.09375 4.34375 10.09375 9 
C 10.09375 12.046875 11.40625 17.40625 17.203125 20.65625 
C 22 23.390625 27.5 23.796875 30.703125 24 
z
" id="CMR17-97"/>
      <path d="M 29.40625 42.890625 
L 29.40625 40.296875 
C 35.296875 40.296875 36.203125 39.6875 36.203125 34.828125 
L 36.203125 16.453125 
C 36.203125 7.96875 31.703125 0.59375 24.296875 0.59375 
C 16.09375 0.59375 15.40625 5.546875 15.40625 10.796875 
L 15.40625 44 
L 3.296875 42.890625 
L 3.296875 40.296875 
C 7.296875 40.296875 10 40.296875 10.09375 36.25 
L 10.09375 16.859375 
C 10.09375 10.09375 10.09375 5.75 12.703125 2.921875 
C 14 1.609375 16.5 -1 23.703125 -1 
C 32.203125 -1 35.5 6.25 36.296875 8.375 
L 36.40625 8.375 
L 36.40625 -1 
L 48.296875 -0.203125 
L 48.296875 2.40625 
C 42.40625 2.40625 41.5 3.015625 41.5 7.859375 
L 41.5 44 
z
" id="CMR17-117"/>
      <path d="M 15 23.703125 
C 15 33.34375 19.09375 42.390625 26.59375 42.390625 
C 27.296875 42.390625 28 42.296875 28.703125 41.984375 
C 28.703125 41.984375 26.5 41.28125 26.5 38.671875 
C 26.5 36.265625 28.40625 35.265625 29.90625 35.265625 
C 31.09375 35.265625 33.296875 35.96875 33.296875 38.78125 
C 33.296875 41.984375 30.09375 44 26.703125 44 
C 19.09375 44 15.796875 36.5625 14.796875 33.046875 
L 14.703125 33.046875 
L 14.703125 44 
L 3.09375 42.890625 
L 3.09375 40.28125 
C 9 40.28125 9.90625 39.6875 9.90625 34.859375 
L 9.90625 6.921875 
C 9.90625 3.09375 9.5 2.59375 3.09375 2.59375 
L 3.09375 0 
C 5.5 0.1875 10.09375 0.1875 12.703125 0.1875 
C 15.59375 0.1875 20.703125 0.1875 23.40625 0 
L 23.40625 2.59375 
C 16.203125 2.59375 15 2.59375 15 7.109375 
z
" id="CMR17-114"/>
      <path d="M 39 34.109375 
C 41.5 40.296875 46 40.390625 47.40625 40.390625 
L 47.40625 43 
C 45.5 42.890625 43 42.796875 41.09375 42.796875 
C 39 42.796875 35.703125 42.796875 33.703125 43 
L 33.703125 40.390625 
C 37.5 40.09375 37.59375 37.25 37.59375 36.4375 
C 37.59375 35.4375 37.40625 34.921875 36.90625 33.71875 
L 26 6.390625 
L 14.09375 35.9375 
C 13.59375 37.15625 13.59375 37.859375 13.59375 37.96875 
C 13.59375 40.1875 15.90625 40.390625 18.296875 40.390625 
L 18.296875 43 
C 15.90625 42.796875 11.59375 42.796875 9.09375 42.796875 
C 6.40625 42.796875 3.203125 42.796875 1 43 
L 1 40.390625 
C 6.40625 40.390625 7 39.890625 8.296875 36.640625 
L 23.203125 -0.484375 
C 18.703125 -12.421875 16.09375 -19.40625 9.796875 -19.40625 
C 8.703125 -19.40625 6.203125 -19.109375 4.40625 -17.28125 
C 6.703125 -17.078125 7.703125 -15.65625 7.703125 -13.9375 
C 7.703125 -12.21875 6.5 -10.703125 4.5 -10.703125 
C 2.296875 -10.703125 1.203125 -12.21875 1.203125 -14.046875 
C 1.203125 -18.09375 5.296875 -21 9.796875 -21 
C 15.59375 -21 19.203125 -15.359375 21.203125 -10.296875 
z
" id="CMR17-121"/>
     </defs>
     <g transform="translate(185.462223 205.624101)scale(0.09 -0.09)">
      <use transform="scale(0.996264)" xlink:href="#CMR17-84"/>
      <use transform="translate(66.509881 0)scale(0.996264)" xlink:href="#CMR17-105"/>
      <use transform="translate(91.380939 0)scale(0.996264)" xlink:href="#CMR17-109"/>
      <use transform="translate(168.300529 0)scale(0.996264)" xlink:href="#CMR17-101"/>
      <use transform="translate(238.862156 0)scale(0.996264)" xlink:href="#CMR17-116"/>
      <use transform="translate(274.142924 0)scale(0.996264)" xlink:href="#CMR17-111"/>
      <use transform="translate(349.909367 0)scale(0.996264)" xlink:href="#CMR17-109"/>
      <use transform="translate(426.828957 0)scale(0.996264)" xlink:href="#CMR17-97"/>
      <use transform="translate(472.519434 0)scale(0.996264)" xlink:href="#CMR17-116"/>
      <use transform="translate(507.800202 0)scale(0.996264)" xlink:href="#CMR17-117"/>
      <use transform="translate(558.695572 0)scale(0.996264)" xlink:href="#CMR17-114"/>
      <use transform="translate(593.976339 0)scale(0.996264)" xlink:href="#CMR17-105"/>
      <use transform="translate(618.847398 0)scale(0.996264)" xlink:href="#CMR17-116"/>
      <use transform="translate(651.525712 0)scale(0.996264)" xlink:href="#CMR17-121"/>
     </g>
    </g>
   </g>
   <g id="matplotlib.axis_2">
    <g id="ytick_1">
     <g id="line2d_8">
      <defs>
       <path d="M 0 0 
L -2.5 0 
" id="m727bd03a27" style="stroke:#000000;stroke-width:0.4;"/>
      </defs>
      <g>
       <use style="stroke:#000000;stroke-width:0.4;" x="39.449952" xlink:href="#m727bd03a27" y="158.221031"/>
      </g>
     </g>
     <g id="text_9">
      <!-- $0.14$ -->
      <defs>
       <path d="M 42 31.84375 
C 42 37.96875 41.90625 48.421875 37.703125 56.453125 
C 34 63.484375 28.09375 66 22.90625 66 
C 18.09375 66 12 63.78125 8.203125 56.5625 
C 4.203125 49.015625 3.796875 39.671875 3.796875 31.84375 
C 3.796875 26.109375 3.90625 17.375 7 9.734375 
C 11.296875 -0.609375 19 -2 22.90625 -2 
C 27.5 -2 34.5 -0.109375 38.59375 9.4375 
C 41.59375 16.375 42 24.5 42 31.84375 
z
M 22.90625 -0.40625 
C 16.5 -0.40625 12.703125 5.125 11.296875 12.75 
C 10.203125 18.6875 10.203125 27.328125 10.203125 32.953125 
C 10.203125 40.6875 10.203125 47.109375 11.5 53.234375 
C 13.40625 61.78125 19 64.390625 22.90625 64.390625 
C 27 64.390625 32.296875 61.671875 34.203125 53.4375 
C 35.5 47.71875 35.59375 40.984375 35.59375 32.953125 
C 35.59375 26.421875 35.59375 18.375 34.40625 12.453125 
C 32.296875 1.5 26.40625 -0.40625 22.90625 -0.40625 
z
" id="CMR17-48"/>
       <path d="M 18.40625 4.796875 
C 18.40625 7.6875 16 9.6875 13.59375 9.6875 
C 10.703125 9.6875 8.703125 7.296875 8.703125 4.890625 
C 8.703125 2 11.09375 0 13.5 0 
C 16.40625 0 18.40625 2.390625 18.40625 4.796875 
z
" id="CMMI12-58"/>
       <path d="M 33.59375 64.796875 
C 33.59375 66.890625 33.5 67 31.703125 67 
L 2 19.59375 
L 2 17 
L 27.796875 17 
L 27.796875 7.1875 
C 27.796875 3.59375 27.59375 2.59375 20.59375 2.59375 
L 18.703125 2.59375 
L 18.703125 0 
C 21.90625 0.1875 27.296875 0.1875 30.703125 0.1875 
C 34.09375 0.1875 39.5 0.1875 42.703125 0 
L 42.703125 2.59375 
L 40.796875 2.59375 
C 33.796875 2.59375 33.59375 3.59375 33.59375 7.1875 
L 33.59375 17 
L 43.796875 17 
L 43.796875 19.59375 
L 33.59375 19.59375 
z
M 28.09375 58.171875 
L 28.09375 19.59375 
L 4 19.59375 
z
" id="CMR17-52"/>
      </defs>
      <g transform="translate(19.170112 160.6425)scale(0.07 -0.07)">
       <use transform="scale(0.996264)" xlink:href="#CMR17-48"/>
       <use transform="translate(45.690477 0)scale(0.996264)" xlink:href="#CMMI12-58"/>
       <use transform="translate(72.787654 0)scale(0.996264)" xlink:href="#CMR17-49"/>
       <use transform="translate(118.478131 0)scale(0.996264)" xlink:href="#CMR17-52"/>
      </g>
     </g>
    </g>
    <g id="ytick_2">
     <g id="line2d_9">
      <g>
       <use style="stroke:#000000;stroke-width:0.4;" x="39.449952" xlink:href="#m727bd03a27" y="128.195681"/>
      </g>
     </g>
     <g id="text_10">
      <!-- $0.16$ -->
      <g transform="translate(19.170112 130.61715)scale(0.07 -0.07)">
       <use transform="scale(0.996264)" xlink:href="#CMR17-48"/>
       <use transform="translate(45.690477 0)scale(0.996264)" xlink:href="#CMMI12-58"/>
       <use transform="translate(72.787654 0)scale(0.996264)" xlink:href="#CMR17-49"/>
       <use transform="translate(118.478131 0)scale(0.996264)" xlink:href="#CMR17-54"/>
      </g>
     </g>
    </g>
    <g id="ytick_3">
     <g id="line2d_10">
      <g>
       <use style="stroke:#000000;stroke-width:0.4;" x="39.449952" xlink:href="#m727bd03a27" y="98.170331"/>
      </g>
     </g>
     <g id="text_11">
      <!-- $0.18$ -->
      <defs>
       <path d="M 27.203125 35.765625 
C 33.5 38.96875 39.90625 43.796875 39.90625 51.53125 
C 39.90625 60.6875 31.09375 66 23 66 
C 13.90625 66 5.90625 59.375 5.90625 50.234375 
C 5.90625 47.71875 6.5 43.390625 10.40625 39.578125 
C 11.40625 38.578125 15.59375 35.5625 18.296875 33.65625 
C 13.796875 31.34375 3.296875 25.8125 3.296875 14.765625 
C 3.296875 4.40625 13.09375 -2 22.796875 -2 
C 33.5 -2 42.5 5.71875 42.5 15.96875 
C 42.5 25.109375 36.40625 29.328125 32.40625 32.046875 
z
M 14.09375 44.609375 
C 13.296875 45.109375 9.296875 48.21875 9.296875 52.9375 
C 9.296875 59.078125 15.59375 63.6875 22.796875 63.6875 
C 30.703125 63.6875 36.5 58.0625 36.5 51.53125 
C 36.5 42.1875 26.09375 36.859375 25.59375 36.859375 
C 25.5 36.859375 25.40625 36.859375 24.59375 37.46875 
z
M 32.5 24 
C 34 22.90625 38.796875 19.578125 38.796875 13.453125 
C 38.796875 6.015625 31.40625 0.390625 23 0.390625 
C 13.90625 0.390625 7 6.921875 7 14.859375 
C 7 22.796875 13.09375 29.4375 20 32.546875 
z
" id="CMR17-56"/>
      </defs>
      <g transform="translate(19.170112 100.5918)scale(0.07 -0.07)">
       <use transform="scale(0.996264)" xlink:href="#CMR17-48"/>
       <use transform="translate(45.690477 0)scale(0.996264)" xlink:href="#CMMI12-58"/>
       <use transform="translate(72.787654 0)scale(0.996264)" xlink:href="#CMR17-49"/>
       <use transform="translate(118.478131 0)scale(0.996264)" xlink:href="#CMR17-56"/>
      </g>
     </g>
    </g>
    <g id="ytick_4">
     <g id="line2d_11">
      <g>
       <use style="stroke:#000000;stroke-width:0.4;" x="39.449952" xlink:href="#m727bd03a27" y="68.14498"/>
      </g>
     </g>
     <g id="text_12">
      <!-- $0.20$ -->
      <g transform="translate(19.170112 70.566449)scale(0.07 -0.07)">
       <use transform="scale(0.996264)" xlink:href="#CMR17-48"/>
       <use transform="translate(45.690477 0)scale(0.996264)" xlink:href="#CMMI12-58"/>
       <use transform="translate(72.787654 0)scale(0.996264)" xlink:href="#CMR17-50"/>
       <use transform="translate(118.478131 0)scale(0.996264)" xlink:href="#CMR17-48"/>
      </g>
     </g>
    </g>
    <g id="ytick_5">
     <g id="line2d_12">
      <g>
       <use style="stroke:#000000;stroke-width:0.4;" x="39.449952" xlink:href="#m727bd03a27" y="38.11963"/>
      </g>
     </g>
     <g id="text_13">
      <!-- $0.22$ -->
      <g transform="translate(19.170112 40.541099)scale(0.07 -0.07)">
       <use transform="scale(0.996264)" xlink:href="#CMR17-48"/>
       <use transform="translate(45.690477 0)scale(0.996264)" xlink:href="#CMMI12-58"/>
       <use transform="translate(72.787654 0)scale(0.996264)" xlink:href="#CMR17-50"/>
       <use transform="translate(118.478131 0)scale(0.996264)" xlink:href="#CMR17-50"/>
      </g>
     </g>
    </g>
    <g id="text_14">
     <!-- Implied volatility -->
     <defs>
      <path d="M 19.703125 60.90625 
C 19.703125 65.390625 20.90625 65.390625 28.09375 65.390625 
L 28.09375 68 
C 24.90625 67.796875 19.796875 67.796875 16.40625 67.796875 
C 13 67.796875 7.90625 67.796875 4.703125 68 
L 4.703125 65.390625 
C 11.90625 65.390625 13.09375 65.390625 13.09375 60.90625 
L 13.09375 7.078125 
C 13.09375 2.59375 11.90625 2.59375 4.703125 2.59375 
L 4.703125 0 
C 7.90625 0.1875 13 0.1875 16.40625 0.1875 
C 19.796875 0.1875 24.90625 0.1875 28.09375 0 
L 28.09375 2.59375 
C 20.90625 2.59375 19.703125 2.59375 19.703125 7.078125 
z
" id="CMR17-73"/>
      <path d="M 22 -17.40625 
C 15.59375 -17.40625 15.203125 -17 15.203125 -13.03125 
L 15.203125 5.9375 
C 18.09375 1.703125 22.296875 -1 27.59375 -1 
C 37.59375 -1 47.703125 7.859375 47.703125 21.59375 
C 47.703125 34.3125 39 44 28.703125 44 
C 22.703125 44 17.796875 40.671875 15 36.640625 
L 15 44 
L 3.09375 42.890625 
L 3.09375 40.265625 
C 9 40.265625 9.90625 39.671875 9.90625 34.8125 
L 9.90625 -13.03125 
C 9.90625 -16.890625 9.5 -17.40625 3.09375 -17.40625 
L 3.09375 -20 
C 5.5 -19.8125 9.90625 -19.8125 12.5 -19.8125 
C 15.09375 -19.8125 19.59375 -19.8125 22 -20 
z
M 15.203125 31.484375 
C 15.203125 32.90625 15.203125 35.015625 19.09375 38.765625 
C 19.59375 39.15625 23 42.1875 28 42.1875 
C 35.296875 42.1875 41.296875 33 41.296875 21.5 
C 41.296875 9.984375 34.90625 0.59375 27 0.59375 
C 23.40625 0.59375 19.5 2.3125 16.5 7.046875 
C 15.203125 9.28125 15.203125 9.875 15.203125 11.5 
z
" id="CMR17-112"/>
      <path d="M 15.296875 69 
L 3.40625 67.890625 
L 3.40625 65.296875 
C 9.296875 65.296875 10.203125 64.703125 10.203125 59.921875 
L 10.203125 6.859375 
C 10.203125 3.09375 9.796875 2.59375 3.40625 2.59375 
L 3.40625 0 
C 5.796875 0.1875 10.203125 0.1875 12.703125 0.1875 
C 15.296875 0.1875 19.703125 0.1875 22.09375 0 
L 22.09375 2.59375 
C 15.703125 2.59375 15.296875 2.984375 15.296875 6.859375 
z
" id="CMR17-108"/>
      <path d="M 29.203125 67.890625 
L 29.203125 65.296875 
C 35.09375 65.296875 36 64.703125 36 60.046875 
L 36 37.046875 
C 35.59375 37.546875 31.5 44 23.40625 44 
C 13.203125 44 3.296875 34.8125 3.296875 21.5 
C 3.296875 8.265625 12.59375 -1 22.40625 -1 
C 30.90625 -1 35.296875 5.640625 35.796875 6.34375 
L 35.796875 -1 
L 47.90625 -0.203125 
L 47.90625 2.40625 
C 42 2.40625 41.09375 3.015625 41.09375 7.859375 
L 41.09375 69 
z
M 35.796875 11.90625 
C 35.796875 8.875 34 6.140625 31.703125 4.125 
C 28.296875 1.09375 24.90625 0.59375 23 0.59375 
C 20.09375 0.59375 9.703125 2.109375 9.703125 21.390625 
C 9.703125 41.1875 21.296875 42.390625 23.90625 42.390625 
C 28.5 42.390625 32.203125 39.765625 34.5 36.140625 
C 35.796875 34.015625 35.796875 33.703125 35.796875 31.890625 
z
" id="CMR17-100"/>
      <path d="M 39.09375 33.953125 
C 40 36.171875 41.59375 40.1875 47.40625 40.390625 
L 47.40625 43 
C 45.5 42.890625 43 42.796875 41.09375 42.796875 
C 39 42.796875 35.703125 42.796875 33.703125 43 
L 33.703125 40.390625 
C 36.203125 40.1875 37.59375 38.984375 37.59375 36.375 
C 37.59375 35.46875 37.59375 35.265625 37 33.859375 
L 26 5.921875 
L 14.09375 36.0625 
C 13.5 37.375 13.5 37.578125 13.5 37.984375 
C 13.5 40.390625 16.796875 40.390625 18.296875 40.390625 
L 18.296875 43 
C 15.90625 42.796875 11.5 42.796875 9 42.796875 
C 6.296875 42.796875 3.203125 42.796875 1 43 
L 1 40.390625 
C 4.796875 40.390625 6.90625 40.390625 8.09375 37.28125 
L 22.59375 0.6875 
C 23.203125 -0.8125 23.296875 -1 24.203125 -1 
C 25.09375 -1 25.203125 -0.8125 25.796875 0.6875 
z
" id="CMR17-118"/>
     </defs>
     <g transform="translate(13.42665 136.345196)rotate(-90)scale(0.09 -0.09)">
      <use transform="scale(0.996264)" xlink:href="#CMR17-73"/>
      <use transform="translate(32.638409 0)scale(0.996264)" xlink:href="#CMR17-109"/>
      <use transform="translate(109.557999 0)scale(0.996264)" xlink:href="#CMR17-112"/>
      <use transform="translate(160.453369 0)scale(0.996264)" xlink:href="#CMR17-108"/>
      <use transform="translate(185.324427 0)scale(0.996264)" xlink:href="#CMR17-105"/>
      <use transform="translate(210.195486 0)scale(0.996264)" xlink:href="#CMR17-101"/>
      <use transform="translate(250.681146 0)scale(0.996264)" xlink:href="#CMR17-100"/>
      <use transform="translate(331.652482 0)scale(0.996264)" xlink:href="#CMR17-118"/>
      <use transform="translate(377.342944 0)scale(0.996264)" xlink:href="#CMR17-111"/>
      <use transform="translate(423.033421 0)scale(0.996264)" xlink:href="#CMR17-108"/>
      <use transform="translate(447.90448 0)scale(0.996264)" xlink:href="#CMR17-97"/>
      <use transform="translate(493.594957 0)scale(0.996264)" xlink:href="#CMR17-116"/>
      <use transform="translate(528.875725 0)scale(0.996264)" xlink:href="#CMR17-105"/>
      <use transform="translate(553.746783 0)scale(0.996264)" xlink:href="#CMR17-108"/>
      <use transform="translate(578.617842 0)scale(0.996264)" xlink:href="#CMR17-105"/>
      <use transform="translate(603.4889 0)scale(0.996264)" xlink:href="#CMR17-116"/>
      <use transform="translate(636.167214 0)scale(0.996264)" xlink:href="#CMR17-121"/>
     </g>
    </g>
   </g>
   <g id="line2d_13">
    <path clip-path="url(#p50e928214a)" d="M 55.936316 27.531226 
L 61.371381 128.952295 
L 67.71229 129.916975 
L 83.11164 120.263743 
L 107.569432 119.655118 
L 136.556445 113.343115 
L 218.988264 101.00079 
L 385.663588 84.722711 
" style="fill:none;stroke:#1f77b4;stroke-linecap:square;stroke-width:0.7;"/>
   </g>
   <g id="line2d_14">
    <path clip-path="url(#p50e928214a)" d="M 55.936316 42.013018 
L 61.371381 146.544793 
L 67.71229 148.169388 
L 83.11164 139.779578 
L 107.569432 143.078729 
L 136.556445 140.678422 
L 218.988264 135.949718 
L 385.663588 128.548101 
" style="fill:none;stroke:#ff7f0e;stroke-linecap:square;stroke-width:0.7;"/>
   </g>
   <g id="line2d_15">
    <path clip-path="url(#p50e928214a)" d="M 55.936316 42.382752 
L 61.371381 147.223476 
L 67.71229 148.934503 
L 83.11164 140.615081 
L 107.569432 144.232941 
L 136.556445 142.163774 
L 218.988264 138.054475 
L 385.663588 131.426379 
" style="fill:none;stroke:#2ca02c;stroke-linecap:square;stroke-width:0.7;"/>
   </g>
   <g id="line2d_16">
    <path clip-path="url(#p50e928214a)" d="M 55.936316 53.432559 
L 61.371381 159.572172 
L 67.71229 161.9742 
L 83.11164 154.617989 
L 107.569432 160.623059 
L 136.556445 160.923313 
L 218.988264 160.923313 
L 385.663588 159.121792 
" style="fill:none;stroke:#d62728;stroke-linecap:square;stroke-width:0.7;"/>
   </g>
   <g id="line2d_17">
    <path clip-path="url(#p50e928214a)" d="M 55.936316 60.028228 
L 61.371381 166.061271 
L 67.71229 169.187133 
L 83.11164 162.298591 
L 107.569432 169.350911 
L 136.556445 170.703772 
L 218.988264 171.980139 
L 385.663588 172.084859 
" style="fill:none;stroke:#9467bd;stroke-linecap:square;stroke-width:0.7;"/>
   </g>
   <g id="line2d_18">
    <path clip-path="url(#p50e928214a)" d="M 55.936316 60.154123 
L 61.371381 166.227579 
L 67.71229 169.413915 
L 83.11164 162.559746 
L 107.569432 169.706007 
L 136.556445 171.164572 
L 218.988264 172.593518 
L 385.663588 173.053638 
" style="fill:none;stroke:#8c564b;stroke-linecap:square;stroke-width:0.7;"/>
   </g>
   <g id="line2d_19">
    <path clip-path="url(#p50e928214a)" d="M 55.936316 62.157581 
L 61.371381 166.931342 
L 67.71229 170.88009 
L 83.11164 164.323292 
L 107.569432 171.536239 
L 136.556445 173.162255 
L 218.988264 174.315848 
L 385.663588 175.785771 
" style="fill:none;stroke:#e377c2;stroke-linecap:square;stroke-width:0.7;"/>
   </g>
   <g id="patch_3">
    <path d="M 39.449952 183.198498 
L 39.449952 20.118498 
" style="fill:none;stroke:#000000;stroke-linecap:square;stroke-linejoin:miter;stroke-width:0.4;"/>
   </g>
   <g id="patch_4">
    <path d="M 402.149952 183.198498 
L 402.149952 20.118498 
" style="fill:none;stroke:#000000;stroke-linecap:square;stroke-linejoin:miter;stroke-width:0.4;"/>
   </g>
   <g id="patch_5">
    <path d="M 39.449952 183.198498 
L 402.149952 183.198498 
" style="fill:none;stroke:#000000;stroke-linecap:square;stroke-linejoin:miter;stroke-width:0.4;"/>
   </g>
   <g id="patch_6">
    <path d="M 39.449952 20.118498 
L 402.149952 20.118498 
" style="fill:none;stroke:#000000;stroke-linecap:square;stroke-linejoin:miter;stroke-width:0.4;"/>
   </g>
   <g id="text_15">
    <!-- \textbf{Implied volatilities at market instrument and} $\boldsymbol{\pm10}$ \textbf{delta strikes} -->
    <defs>
     <path d="M 27.5 64.6875 
L 38.703125 64.6875 
L 38.703125 69 
C 35.09375 68.796875 25.09375 68.796875 20.90625 68.796875 
C 16.703125 68.796875 6.703125 68.796875 3.09375 69 
L 3.09375 64.6875 
L 14.296875 64.6875 
L 14.296875 4.296875 
L 3.09375 4.296875 
L 3.09375 0 
C 6.703125 0.1875 16.703125 0.1875 20.90625 0.1875 
C 25.09375 0.1875 35.09375 0.1875 38.703125 0 
L 38.703125 4.296875 
L 27.5 4.296875 
z
" id="CMBX12-73"/>
     <path d="M 84.40625 30.59375 
C 84.40625 39.796875 80.5 45 69.296875 45 
C 59.203125 45 54.5 38.1875 52.90625 35 
C 51.296875 43.484375 44.5 45 38.09375 45 
C 28.5 45 23.296875 38.796875 21.203125 34 
L 21.09375 34 
L 21.09375 45 
L 4.203125 44.1875 
L 4.203125 39.890625 
C 10.40625 39.890625 11.09375 39.890625 11.09375 36 
L 11.09375 4.296875 
L 4.203125 4.296875 
L 4.203125 0 
C 6.5 0.1875 13.703125 0.1875 16.5 0.1875 
C 19.296875 0.1875 26.59375 0.1875 28.90625 0 
L 28.90625 4.296875 
L 22 4.296875 
L 22 25.59375 
C 22 36.5 30.09375 41.6875 36.40625 41.6875 
C 40.09375 41.6875 42.296875 39.5 42.296875 31.6875 
L 42.296875 4.296875 
L 35.40625 4.296875 
L 35.40625 0 
C 37.703125 0.1875 44.90625 0.1875 47.703125 0.1875 
C 50.5 0.1875 57.796875 0.1875 60.09375 0 
L 60.09375 4.296875 
L 53.203125 4.296875 
L 53.203125 25.59375 
C 53.203125 36.5 61.296875 41.6875 67.59375 41.6875 
C 71.296875 41.6875 73.5 39.5 73.5 31.6875 
L 73.5 4.296875 
L 66.59375 4.296875 
L 66.59375 0 
C 68.90625 0.1875 76.09375 0.1875 78.90625 0.1875 
C 81.703125 0.1875 89 0.1875 91.296875 0 
L 91.296875 4.296875 
L 84.40625 4.296875 
z
" id="CMBX12-109"/>
     <path d="M 28.203125 -14.703125 
L 21.296875 -14.703125 
L 21.296875 3.703125 
C 23.796875 1.5 28.203125 -1 34.203125 -1 
C 47.90625 -1 58.59375 7.34375 58.59375 22.09375 
C 58.59375 36.03125 49.296875 45 35.796875 45 
C 29.90625 45 24.796875 42.984375 20.796875 39.78125 
L 20.796875 45 
L 3.5 44.1875 
L 3.5 39.875 
C 9.703125 39.875 10.40625 39.875 10.40625 35.9375 
L 10.40625 -14.703125 
L 3.5 -14.703125 
L 3.5 -19 
C 5.796875 -18.8125 13 -18.8125 15.796875 -18.8125 
C 18.59375 -18.8125 25.90625 -18.8125 28.203125 -19 
z
M 21.296875 34.921875 
C 25 39.78125 30.296875 41.390625 34.203125 41.390625 
C 40.703125 41.390625 46.59375 35.4375 46.59375 22.09375 
C 46.59375 7.4375 39.40625 2.296875 33 2.296875 
C 28.703125 2.296875 24.40625 4.515625 21.296875 9.265625 
z
" id="CMBX12-112"/>
     <path d="M 21.703125 70 
L 4.40625 69.1875 
L 4.40625 64.890625 
C 10.59375 64.890625 11.296875 64.890625 11.296875 60.953125 
L 11.296875 4.296875 
L 4.40625 4.296875 
L 4.40625 0 
C 6.703125 0.1875 13.796875 0.1875 16.5 0.1875 
C 19.203125 0.1875 26.296875 0.1875 28.59375 0 
L 28.59375 4.296875 
L 21.703125 4.296875 
z
" id="CMBX12-108"/>
     <path d="M 22.296875 62.796875 
C 22.296875 66.890625 19 70 15.09375 70 
C 11 70 7.90625 66.59375 7.90625 62.796875 
C 7.90625 58.984375 11 55.59375 15.09375 55.59375 
C 19 55.59375 22.296875 58.6875 22.296875 62.796875 
z
M 4.703125 44.1875 
L 4.703125 39.890625 
C 10.59375 39.890625 11.296875 39.890625 11.296875 35.984375 
L 11.296875 4.296875 
L 4.40625 4.296875 
L 4.40625 0 
C 6.703125 0.1875 13.59375 0.1875 16.296875 0.1875 
C 19.09375 0.1875 25.5 0.1875 27.90625 0 
L 27.90625 4.296875 
L 21.703125 4.296875 
L 21.703125 45 
z
" id="CMBX12-105"/>
     <path d="M 45.203125 22 
C 47.5 22 48.09375 22 48.09375 24.5 
C 48.09375 27.46875 47.40625 34.875 42.796875 39.515625 
C 38.59375 43.6875 33 45 27.203125 45 
C 11.59375 45 3.09375 34.875 3.09375 22.390625 
C 3.09375 8.171875 13.40625 -1 28.5 -1 
C 43.59375 -1 48.09375 9.703125 48.09375 11.421875 
C 48.09375 12.953125 46.59375 12.953125 46 12.953125 
C 44.40625 12.953125 44.296875 12.640625 43.703125 11.328125 
C 41.09375 4.71875 34.5 2.59375 29.703125 2.59375 
C 15.203125 2.59375 15.09375 16.296875 15.09375 22 
z
M 15.09375 24.890625 
C 15.296875 28.9375 15.40625 32.796875 17.5 36.359375 
C 19.40625 39.515625 22.90625 41.6875 27.203125 41.6875 
C 37.90625 41.6875 38.796875 29.828125 38.90625 24.890625 
z
" id="CMBX12-101"/>
     <path d="M 34.703125 69.1875 
L 34.703125 64.890625 
C 40.90625 64.890625 41.59375 64.890625 41.59375 60.875 
L 41.59375 40.171875 
C 39.40625 42.09375 35 45 28.09375 45 
C 13.90625 45 3.796875 36.140625 3.796875 22 
C 3.796875 7.546875 13.703125 -1 27 -1 
C 32.5 -1 37.203125 0.890625 41.09375 4.21875 
L 41.09375 -1 
L 58.90625 -0.40625 
L 58.90625 3.90625 
C 52.703125 3.90625 52 3.90625 52 7.84375 
L 52 70 
z
M 41.09375 9.765625 
C 36.90625 3.609375 31.796875 2.296875 28.203125 2.296875 
C 15.796875 2.296875 15.796875 15.125 15.796875 21.796875 
C 15.796875 26.546875 15.796875 31.59375 18 35.4375 
C 21.09375 41.09375 27 41.6875 29.296875 41.6875 
C 33.40625 41.6875 37.796875 39.875 41.09375 35.4375 
z
" id="CMBX12-100"/>
     <path d="M 49.5 37.390625 
C 50.203125 38.890625 50.59375 39.6875 56.90625 39.6875 
L 56.90625 44 
C 53.296875 43.796875 53.09375 43.796875 49 43.796875 
C 46.296875 43.796875 46.09375 43.796875 40.40625 44 
L 40.40625 39.6875 
C 43.09375 39.6875 45.296875 39.1875 45.296875 38.484375 
C 45.296875 38.390625 45.296875 38.296875 44.796875 37.28125 
L 33.09375 11.515625 
L 20.203125 39.6875 
L 25.703125 39.6875 
L 25.703125 44 
C 23.40625 43.796875 16.40625 43.796875 13.703125 43.796875 
C 10.796875 43.796875 5 43.796875 2.40625 44 
L 2.40625 39.6875 
L 8.703125 39.6875 
L 26.296875 1.390625 
C 27.203125 -0.5 27.40625 -1 29.703125 -1 
C 31.296875 -1 32.09375 -0.8125 33 1.1875 
z
" id="CMBX12-118"/>
     <path d="M 53 21.546875 
C 53 35.078125 43.796875 45 28.09375 45 
C 11.796875 45 3.09375 34.578125 3.09375 21.546875 
C 3.09375 8.40625 12.296875 -1 28 -1 
C 44.296875 -1 53 8.90625 53 21.546875 
z
M 28.09375 2.59375 
C 15.09375 2.59375 15.09375 14.328125 15.09375 22.546875 
C 15.09375 27.25 15.09375 32.265625 17 35.875 
C 19.203125 39.890625 23.703125 41.6875 28 41.6875 
C 33.703125 41.6875 37.296875 38.984375 39 36.171875 
C 41 32.5625 41 27.359375 41 22.546875 
C 41 14.21875 41 2.59375 28.09375 2.59375 
z
" id="CMBX12-111"/>
     <path d="M 46 29.59375 
C 46 38.796875 38.703125 45 24.59375 45 
C 19 45 7.203125 44.484375 7.203125 36.09375 
C 7.203125 31.890625 10.40625 30.09375 13.09375 30.09375 
C 16.09375 30.09375 19 32.1875 19 35.984375 
C 19 37.890625 18.296875 39.6875 16.59375 40.796875 
C 19.90625 41.6875 22.296875 41.6875 24.203125 41.6875 
C 31 41.6875 35.09375 37.890625 35.09375 29.6875 
L 35.09375 25.6875 
C 19.296875 25.6875 3.40625 21.28125 3.40625 10.125 
C 3.40625 1 15 -1 21.90625 -1 
C 29.59375 -1 34.5 3.203125 36.5 7.625 
C 36.5 3.90625 36.5 -0.40625 46.59375 -0.40625 
L 51.703125 -0.40625 
C 53.796875 -0.40625 54.59375 -0.40625 54.59375 1.796875 
C 54.59375 3.90625 53.703125 3.90625 52.296875 3.90625 
C 46 4 46 5.609375 46 7.921875 
z
M 35.09375 13.546875 
C 35.09375 4.09375 26.703125 2.296875 23.5 2.296875 
C 18.59375 2.296875 14.5 5.609375 14.5 10.234375 
C 14.5 19.375 25.296875 22.484375 35.09375 23 
z
" id="CMBX12-97"/>
     <path d="M 21.09375 39.6875 
L 35.5 39.6875 
L 35.5 44 
L 21.09375 44 
L 21.09375 63 
L 16.90625 63 
C 16.796875 53.140625 12 43.296875 2.09375 42.984375 
L 2.09375 39.6875 
L 10.203125 39.6875 
L 10.203125 11.890625 
C 10.203125 1.296875 18.40625 -1 25.59375 -1 
C 33 -1 37.40625 4.59375 37.40625 12 
L 37.40625 17.296875 
L 33.203125 17.296875 
L 33.203125 12.09375 
C 33.203125 5.5 30.203125 2.59375 27.09375 2.59375 
C 21.09375 2.59375 21.09375 9.296875 21.09375 11.59375 
z
" id="CMBX12-116"/>
     <path d="M 37.703125 42.390625 
C 37.703125 44.296875 37.703125 45 36.203125 45 
C 35.59375 45 35.40625 45 33.90625 44.09375 
C 33.5 43.796875 32.40625 43.09375 31.90625 42.796875 
C 29.09375 44.390625 25.40625 45 21.796875 45 
C 18.796875 45 3.796875 45 3.796875 31.96875 
C 3.796875 21.4375 16.203125 19.234375 19.296875 18.734375 
C 22 18.234375 25.296875 17.625 25.703125 17.625 
C 29.703125 16.734375 33.703125 14.21875 33.703125 10.015625 
C 33.703125 2.296875 24.59375 2.296875 22.5 2.296875 
C 17.40625 2.296875 11.09375 3.890625 8.296875 13.625 
C 7.703125 15.625 7.59375 15.71875 5.90625 15.71875 
C 3.796875 15.71875 3.796875 15.421875 3.796875 13.125 
L 3.796875 1.59375 
C 3.796875 -0.3125 3.796875 -1 5.296875 -1 
C 6 -1 6.203125 -1 8.203125 0.59375 
L 10.796875 2.5 
C 15.296875 -1 20.703125 -1 22.5 -1 
C 28 -1 40.5 0.1875 40.5 13.515625 
C 40.5 18.328125 37.90625 21.640625 35.90625 23.4375 
C 31.796875 26.859375 28.40625 27.453125 23 28.453125 
C 16.59375 29.5625 10.59375 30.65625 10.59375 35.46875 
C 10.59375 41.984375 19.5 41.984375 21.59375 41.984375 
C 32.703125 41.984375 33.296875 34.96875 33.5 32.46875 
C 33.59375 31.171875 34.40625 31.171875 35.59375 31.171875 
C 37.703125 31.171875 37.703125 31.46875 37.703125 33.765625 
z
" id="CMBX12-115"/>
     <path d="M 20.796875 22.5 
C 20.796875 25.796875 21.5 41.6875 33.203125 41.6875 
C 31.796875 40.59375 31.09375 38.890625 31.09375 37.09375 
C 31.09375 33 34.40625 31.296875 36.90625 31.296875 
C 39.40625 31.296875 42.703125 33 42.703125 37.09375 
C 42.703125 42.1875 37.5 45 32.703125 45 
C 24.796875 45 21.40625 38.09375 20 33.890625 
L 19.90625 33.890625 
L 19.90625 45 
L 3.5 44.1875 
L 3.5 39.890625 
C 9.703125 39.890625 10.40625 39.890625 10.40625 36 
L 10.40625 4.296875 
L 3.5 4.296875 
L 3.5 0 
C 5.796875 0.1875 13.296875 0.1875 16.09375 0.1875 
C 19 0.1875 27.09375 0.1875 29.5 0 
L 29.5 4.296875 
L 20.796875 4.296875 
z
" id="CMBX12-114"/>
     <path d="M 33.203125 27.71875 
L 45.796875 37.8125 
C 47 38.796875 48.09375 39.6875 55 39.6875 
L 55 44 
C 52.40625 43.796875 50.40625 43.796875 46.703125 43.796875 
C 44.09375 43.796875 38.5 43.796875 36.203125 44 
L 36.203125 39.6875 
C 37.40625 39.6875 39.796875 39.390625 39.796875 38.609375 
C 39.796875 38.203125 39.203125 37.8125 39 37.609375 
L 20.796875 23.171875 
L 20.796875 70 
L 3.5 69.1875 
L 3.5 64.890625 
C 9.703125 64.890625 10.40625 64.890625 10.40625 60.796875 
L 10.40625 4.296875 
L 3.5 4.296875 
L 3.5 0 
C 5.796875 0.1875 12.703125 0.1875 15.40625 0.1875 
C 18.09375 0.1875 25 0.1875 27.296875 0 
L 27.296875 4.296875 
L 20.40625 4.296875 
L 20.40625 17.546875 
C 22 18.734375 23.5 20.015625 25.703125 21.796875 
L 37.796875 6.375 
C 38.5 5.578125 38.5 5.375 38.5 5.28125 
C 38.5 4.296875 36.5 4.296875 35.09375 4.296875 
L 35.09375 0 
C 37.5 0.1875 44.09375 0.1875 46.796875 0.1875 
C 51.90625 0.1875 53.296875 0.1875 57.5 0 
L 57.5 4.296875 
C 55.90625 4.296875 53.90625 4.296875 52.796875 4.390625 
C 51.40625 4.6875 51 4.984375 49.90625 6.375 
z
" id="CMBX12-107"/>
     <path d="M 53.09375 30.59375 
C 53.09375 40.09375 49 45 38 45 
C 30.796875 45 24.59375 41.5 21.203125 34 
L 21.09375 34 
L 21.09375 45 
L 4.203125 44.1875 
L 4.203125 39.890625 
C 10.40625 39.890625 11.09375 39.890625 11.09375 36 
L 11.09375 4.296875 
L 4.203125 4.296875 
L 4.203125 0 
C 6.5 0.1875 13.703125 0.1875 16.5 0.1875 
C 19.296875 0.1875 26.59375 0.1875 28.90625 0 
L 28.90625 4.296875 
L 22 4.296875 
L 22 25.59375 
C 22 36.390625 30 41.6875 36.40625 41.6875 
C 40.09375 41.6875 42.203125 39.296875 42.203125 31.6875 
L 42.203125 4.296875 
L 35.296875 4.296875 
L 35.296875 0 
C 37.59375 0.1875 44.796875 0.1875 47.59375 0.1875 
C 50.40625 0.1875 57.703125 0.1875 60 0 
L 60 4.296875 
L 53.09375 4.296875 
z
" id="CMBX12-110"/>
     <path d="M 35.296875 44.1875 
L 35.296875 39.890625 
C 41.5 39.890625 42.203125 39.890625 42.203125 35.953125 
L 42.203125 16.140625 
C 42.203125 8.453125 37.703125 2.296875 29.90625 2.296875 
C 22.40625 2.296875 22 4.8125 22 10.375 
L 22 45 
L 4.203125 44.1875 
L 4.203125 39.890625 
C 10.40625 39.890625 11.09375 39.890625 11.09375 35.953125 
L 11.09375 12 
C 11.09375 1.890625 17.796875 -1 28.5 -1 
C 30.90625 -1 38.296875 -1 42.59375 7.140625 
L 42.703125 7.140625 
L 42.703125 -1 
L 60 -0.40625 
L 60 3.90625 
C 53.796875 3.90625 53.09375 3.90625 53.09375 7.84375 
L 53.09375 45 
z
" id="CMBX12-117"/>
     <path d="M 78.40625 31.890625 
C 79.90625 31.890625 82.90625 31.890625 82.90625 34.890625 
C 82.90625 38 80 38 78.40625 38 
L 47.703125 38 
L 47.703125 68.5 
C 47.703125 70 47.703125 73 44.703125 73 
C 41.59375 73 41.59375 69.890625 41.59375 68.5 
L 41.59375 38 
L 10.90625 38 
C 9.40625 38 6.40625 38 6.40625 34.984375 
C 6.40625 31.890625 9.296875 31.890625 10.90625 31.890625 
L 41.59375 31.890625 
L 41.59375 2.09375 
L 10.90625 2.09375 
C 9.40625 2.09375 6.40625 2.09375 6.40625 -0.90625 
C 6.40625 -4 9.296875 -4 10.90625 -4 
L 78.40625 -4 
C 79.90625 -4 82.90625 -4 82.90625 -1 
C 82.90625 2.09375 80 2.09375 78.40625 2.09375 
L 47.703125 2.09375 
L 47.703125 31.890625 
z
" id="CMBSY10-6"/>
     <path d="M 34.59375 63.03125 
C 34.59375 66 34.40625 66 31.203125 66 
C 23.796875 59.296875 12.703125 59.296875 10.5 59.296875 
L 8.59375 59.296875 
L 8.59375 55 
L 10.5 55 
C 14 55 19.296875 55.59375 23.296875 56.890625 
L 23.296875 4.296875 
L 9.40625 4.296875 
L 9.40625 0 
C 13.59375 0.1875 24.09375 0.1875 28.796875 0.1875 
C 33.5 0.1875 44.09375 0.1875 48.296875 0 
L 48.296875 4.296875 
L 34.59375 4.296875 
z
" id="CMBX12-49"/>
     <path d="M 51.703125 32.1875 
C 51.703125 41.828125 51.703125 66 28.09375 66 
C 4.40625 66 4.40625 41.921875 4.40625 32.1875 
C 4.40625 22.5625 4.40625 -1 28 -1 
C 51.59375 -1 51.703125 22.25 51.703125 32.1875 
z
M 28.09375 2.296875 
C 24.90625 2.296875 22.5 3.59375 20.5 5.703125 
C 18 8.21875 16.40625 9.8125 16.40625 33.390625 
C 16.40625 40.421875 16.40625 46.84375 17.203125 52.046875 
C 18.59375 61.984375 25.796875 62.6875 28 62.6875 
C 31.203125 62.6875 37.40625 61.1875 38.796875 52.75 
C 39.703125 47.640625 39.703125 39.515625 39.703125 33.390625 
C 39.703125 9.71875 38.203125 8.3125 35.203125 5.296875 
C 33.203125 3.296875 30.5 2.296875 28.09375 2.296875 
z
" id="CMBX12-48"/>
    </defs>
    <g transform="translate(63.059714 14.118498)scale(0.1 -0.1)">
     <use transform="scale(0.996264)" xlink:href="#CMBX12-73"/>
     <use transform="translate(41.741708 0)scale(0.996264)" xlink:href="#CMBX12-109"/>
     <use transform="translate(135.141459 0)scale(0.996264)" xlink:href="#CMBX12-112"/>
     <use transform="translate(197.407959 0)scale(0.996264)" xlink:href="#CMBX12-108"/>
     <use transform="translate(228.54121 0)scale(0.996264)" xlink:href="#CMBX12-105"/>
     <use transform="translate(259.67446 0)scale(0.996264)" xlink:href="#CMBX12-101"/>
     <use transform="translate(310.813727 0)scale(0.996264)" xlink:href="#CMBX12-100"/>
     <use transform="translate(410.440128 0)scale(0.996264)" xlink:href="#CMBX12-118"/>
     <use transform="translate(466.479979 0)scale(0.996264)" xlink:href="#CMBX12-111"/>
     <use transform="translate(522.519829 0)scale(0.996264)" xlink:href="#CMBX12-108"/>
     <use transform="translate(553.65308 0)scale(0.996264)" xlink:href="#CMBX12-97"/>
     <use transform="translate(608.136268 0)scale(0.996264)" xlink:href="#CMBX12-116"/>
     <use transform="translate(651.722818 0)scale(0.996264)" xlink:href="#CMBX12-105"/>
     <use transform="translate(682.856068 0)scale(0.996264)" xlink:href="#CMBX12-108"/>
     <use transform="translate(713.989319 0)scale(0.996264)" xlink:href="#CMBX12-105"/>
     <use transform="translate(745.122569 0)scale(0.996264)" xlink:href="#CMBX12-116"/>
     <use transform="translate(788.709119 0)scale(0.996264)" xlink:href="#CMBX12-105"/>
     <use transform="translate(819.84237 0)scale(0.996264)" xlink:href="#CMBX12-101"/>
     <use transform="translate(870.981637 0)scale(0.996264)" xlink:href="#CMBX12-115"/>
     <use transform="translate(952.550874 0)scale(0.996264)" xlink:href="#CMBX12-97"/>
     <use transform="translate(1007.034062 0)scale(0.996264)" xlink:href="#CMBX12-116"/>
     <use transform="translate(1087.980513 0)scale(0.996264)" xlink:href="#CMBX12-109"/>
     <use transform="translate(1181.380264 0)scale(0.996264)" xlink:href="#CMBX12-97"/>
     <use transform="translate(1235.863452 0)scale(0.996264)" xlink:href="#CMBX12-114"/>
     <use transform="translate(1281.640959 0)scale(0.996264)" xlink:href="#CMBX12-107"/>
     <use transform="translate(1337.68081 0)scale(0.996264)" xlink:href="#CMBX12-101"/>
     <use transform="translate(1388.820077 0)scale(0.996264)" xlink:href="#CMBX12-116"/>
     <use transform="translate(1469.766528 0)scale(0.996264)" xlink:href="#CMBX12-105"/>
     <use transform="translate(1500.899778 0)scale(0.996264)" xlink:href="#CMBX12-110"/>
     <use transform="translate(1563.166279 0)scale(0.996264)" xlink:href="#CMBX12-115"/>
     <use transform="translate(1607.375616 0)scale(0.996264)" xlink:href="#CMBX12-116"/>
     <use transform="translate(1650.962166 0)scale(0.996264)" xlink:href="#CMBX12-114"/>
     <use transform="translate(1696.739674 0)scale(0.996264)" xlink:href="#CMBX12-117"/>
     <use transform="translate(1759.006174 0)scale(0.996264)" xlink:href="#CMBX12-109"/>
     <use transform="translate(1852.405925 0)scale(0.996264)" xlink:href="#CMBX12-101"/>
     <use transform="translate(1903.545192 0)scale(0.996264)" xlink:href="#CMBX12-110"/>
     <use transform="translate(1962.698368 0)scale(0.996264)" xlink:href="#CMBX12-116"/>
     <use transform="translate(2043.644819 0)scale(0.996264)" xlink:href="#CMBX12-97"/>
     <use transform="translate(2098.128007 0)scale(0.996264)" xlink:href="#CMBX12-110"/>
     <use transform="translate(2160.394508 0)scale(0.996264)" xlink:href="#CMBX12-100"/>
     <use transform="translate(2252.736975 0)scale(0.996264)" xlink:href="#CMBSY10-6"/>
     <use transform="translate(2341.846782 0)scale(0.996264)" xlink:href="#CMBX12-49"/>
     <use transform="translate(2397.886633 0)scale(0.996264)" xlink:href="#CMBX12-48"/>
     <use transform="translate(2484.00245 0)scale(0.996264)" xlink:href="#CMBX12-100"/>
     <use transform="translate(2546.268951 0)scale(0.996264)" xlink:href="#CMBX12-101"/>
     <use transform="translate(2597.408218 0)scale(0.996264)" xlink:href="#CMBX12-108"/>
     <use transform="translate(2628.541468 0)scale(0.996264)" xlink:href="#CMBX12-116"/>
     <use transform="translate(2672.128018 0)scale(0.996264)" xlink:href="#CMBX12-97"/>
     <use transform="translate(2763.971107 0)scale(0.996264)" xlink:href="#CMBX12-115"/>
     <use transform="translate(2808.180444 0)scale(0.996264)" xlink:href="#CMBX12-116"/>
     <use transform="translate(2851.766994 0)scale(0.996264)" xlink:href="#CMBX12-114"/>
     <use transform="translate(2897.544502 0)scale(0.996264)" xlink:href="#CMBX12-105"/>
     <use transform="translate(2928.677752 0)scale(0.996264)" xlink:href="#CMBX12-107"/>
     <use transform="translate(2984.717603 0)scale(0.996264)" xlink:href="#CMBX12-101"/>
     <use transform="translate(3035.85687 0)scale(0.996264)" xlink:href="#CMBX12-115"/>
    </g>
   </g>
   <g id="legend_1">
    <g id="patch_7">
     <path d="M 271.420453 71.117481 
L 396.549952 71.117481 
Q 398.149952 71.117481 398.149952 69.517481 
L 398.149952 25.718498 
Q 398.149952 24.118498 396.549952 24.118498 
L 271.420453 24.118498 
Q 269.820453 24.118498 269.820453 25.718498 
L 269.820453 69.517481 
Q 269.820453 71.117481 271.420453 71.117481 
z
" style="fill:#ffffff;opacity:0.8;stroke:#000000;stroke-linejoin:miter;stroke-width:0.4;"/>
    </g>
    <g id="line2d_20">
     <path d="M 273.020453 30.118498 
L 289.020453 30.118498 
" style="fill:none;stroke:#1f77b4;stroke-linecap:square;stroke-width:0.7;"/>
    </g>
    <g id="line2d_21"/>
    <g id="text_16">
     <!-- $\sigma_{10 \; call}$ -->
     <defs>
      <path d="M 50.796875 37.59375 
C 52.09375 37.59375 55.40625 37.59375 55.40625 40.796875 
C 55.40625 43 53.5 43 51.703125 43 
L 29.59375 43 
C 14.59375 43 3.796875 26.328125 3.796875 14.5625 
C 3.796875 6.078125 9.296875 -1 18.296875 -1 
C 30.09375 -1 43 11.65625 43 26.625 
C 43 30.515625 42.09375 34.296875 39.703125 37.59375 
z
M 18.40625 1 
C 13.296875 1 9.59375 4.875 9.59375 11.765625 
C 9.59375 17.75 13.203125 37.59375 27.90625 37.59375 
C 32.203125 37.59375 37 35.5 37 27.8125 
C 37 24.328125 35.40625 15.953125 31.90625 10.171875 
C 28.296875 4.28125 22.90625 1 18.40625 1 
z
" id="CMMI12-27"/>
      <path d="M 39.09375 38 
C 37.203125 38 36.296875 38 34.90625 36.796875 
C 34.296875 36.296875 33.203125 34.796875 33.203125 33.1875 
C 33.203125 31.1875 34.703125 29.984375 36.59375 29.984375 
C 39 29.984375 41.703125 31.984375 41.703125 35.984375 
C 41.703125 40.484375 37.09375 44 30.203125 44 
C 17.09375 44 4 30.1875 4 15.796875 
C 4 6.96875 9.40625 -1 19.59375 -1 
C 33.203125 -1 41.796875 9.71875 41.796875 11.03125 
C 41.796875 11.640625 41.203125 12.140625 40.796875 12.140625 
C 40.5 12.140625 40.40625 12.046875 39.5 11.125 
C 33.09375 2.515625 23.59375 1 19.796875 1 
C 12.90625 1 10.703125 7.078125 10.703125 12.140625 
C 10.703125 15.6875 12.40625 25.53125 16 32.390625 
C 18.59375 37.09375 24 41.984375 30.296875 41.984375 
C 31.59375 41.984375 37.09375 41.8125 39.09375 38 
z
" id="CMMI12-99"/>
      <path d="M 30.09375 11.859375 
C 29.59375 10.171875 29.59375 9.96875 28.203125 8.078125 
C 26 5.28125 21.59375 1 16.90625 1 
C 12.796875 1 10.5 4.6875 10.5 10.5625 
C 10.5 16.0625 13.59375 27.234375 15.5 31.421875 
C 18.90625 38.40625 23.59375 41.984375 27.5 41.984375 
C 34.09375 41.984375 35.40625 33.8125 35.40625 33.015625 
C 35.40625 32.921875 35.09375 31.625 35 31.421875 
z
M 36.5 37.40625 
C 35.40625 40 32.703125 44 27.5 44 
C 16.203125 44 4 29.421875 4 14.65625 
C 4 4.78125 9.796875 -1 16.59375 -1 
C 22.09375 -1 26.796875 3.28125 29.59375 6.578125 
C 30.59375 0.6875 35.296875 -1 38.296875 -1 
C 41.296875 -1 43.703125 0.796875 45.5 4.375 
C 47.09375 7.75 48.5 13.828125 48.5 14.21875 
C 48.5 14.71875 48.09375 15.125 47.5 15.125 
C 46.59375 15.125 46.5 14.625 46.09375 13.125 
C 44.59375 7.265625 42.703125 1 38.59375 1 
C 35.703125 1 35.5 3.578125 35.5 5.5625 
C 35.5 7.859375 35.796875 8.953125 36.703125 12.828125 
C 37.40625 15.3125 37.90625 17.5 38.703125 20.390625 
C 42.40625 35.3125 43.296875 38.890625 43.296875 39.5 
C 43.296875 40.890625 42.203125 42 40.703125 42 
C 37.5 42 36.703125 38.5 36.5 37.3125 
z
" id="CMMI12-97"/>
      <path d="M 25.40625 66.484375 
C 25.5 66.890625 25.703125 67.484375 25.703125 67.984375 
C 25.703125 69 24.703125 69 24.5 69 
C 24.40625 69 20.796875 68.6875 19 68.484375 
C 17.296875 68.390625 15.796875 68.1875 14 68.09375 
C 11.59375 67.890625 10.90625 67.796875 10.90625 65.984375 
C 10.90625 64.984375 11.90625 64.984375 12.90625 64.984375 
C 18 64.984375 18 64.09375 18 63.109375 
C 18 62.703125 18 62.515625 17.5 60.71875 
L 5.09375 11.421875 
C 4.796875 10.328125 4.59375 9.53125 4.59375 7.953125 
C 4.59375 2.984375 8.296875 -1 13.40625 -1 
C 16.703125 -1 18.90625 1.1875 20.5 4.265625 
C 22.203125 7.546875 23.59375 13.8125 23.59375 14.203125 
C 23.59375 14.703125 23.203125 15.109375 22.59375 15.109375 
C 21.703125 15.109375 21.59375 14.609375 21.203125 13.109375 
C 19.40625 6.265625 17.59375 1 13.59375 1 
C 10.59375 1 10.59375 4.171875 10.59375 5.5625 
C 10.59375 5.96875 10.59375 8.046875 11.296875 10.828125 
z
" id="CMMI12-108"/>
     </defs>
     <g transform="translate(295.420453 32.918498)scale(0.08 -0.08)">
      <use transform="translate(0 14.943915)scale(0.996264)" xlink:href="#CMMI12-27"/>
      <use transform="translate(55.445461 0)scale(0.697382)" xlink:href="#CMR17-49"/>
      <use transform="translate(87.428643 0)scale(0.697382)" xlink:href="#CMR17-48"/>
      <use transform="translate(138.783532 0)scale(0.697382)" xlink:href="#CMMI12-99"/>
      <use transform="translate(168.171663 0)scale(0.697382)" xlink:href="#CMMI12-97"/>
      <use transform="translate(204.01701 0)scale(0.697382)" xlink:href="#CMMI12-108"/>
      <use transform="translate(225.890794 0)scale(0.697382)" xlink:href="#CMMI12-108"/>
     </g>
    </g>
    <g id="line2d_22">
     <path d="M 273.020453 41.268244 
L 289.020453 41.268244 
" style="fill:none;stroke:#ff7f0e;stroke-linecap:square;stroke-width:0.7;"/>
    </g>
    <g id="line2d_23"/>
    <g id="text_17">
     <!-- $\sigma_{RR \; call}$ -->
     <defs>
      <path d="M 36.796875 61.203125 
C 37.703125 64.890625 38.09375 65.09375 42 65.09375 
L 49.203125 65.09375 
C 57.796875 65.09375 64.203125 62.5 64.203125 54.734375 
C 64.203125 49.640625 61.59375 35 41.5 35 
L 30.203125 35 
z
M 50.703125 33.796875 
C 63.09375 36.484375 72.796875 44.46875 72.796875 53.03125 
C 72.796875 60.8125 64.90625 68 51 68 
L 23.90625 68 
C 21.90625 68 21 68 21 66.09375 
C 21 65.09375 21.703125 65.09375 23.59375 65.09375 
C 29.59375 65.09375 29.59375 64.296875 29.59375 63.203125 
C 29.59375 63 29.59375 62.40625 29.203125 60.90625 
L 15.703125 7.421875 
C 14.796875 3.953125 14.59375 2.96875 7.703125 2.96875 
C 5.40625 2.96875 4.703125 2.96875 4.703125 1.078125 
C 4.703125 0.09375 5.796875 0.09375 6.09375 0.09375 
C 7.90625 0.09375 10 0.296875 11.90625 0.296875 
L 23.703125 0.296875 
C 25.5 0.296875 27.59375 0.09375 29.40625 0.09375 
C 30.203125 0.09375 31.296875 0.09375 31.296875 1.96875 
C 31.296875 2.96875 30.40625 2.96875 28.90625 2.96875 
C 22.796875 2.96875 22.796875 3.765625 22.796875 4.75 
C 22.796875 4.84375 22.796875 5.546875 23 6.328125 
L 29.703125 33 
L 41.703125 33 
C 51.203125 33 53 27.046875 53 23.78125 
C 53 22.28125 52 18.421875 51.296875 15.84375 
C 50.203125 11.296875 49.90625 10.203125 49.90625 8.3125 
C 49.90625 1.28125 55.703125 -2 62.40625 -2 
C 70.5 -2 74 7.828125 74 9.203125 
C 74 9.90625 73.5 10.203125 72.90625 10.203125 
C 72.09375 10.203125 71.90625 9.609375 71.703125 8.8125 
C 69.296875 1.78125 65.203125 0 62.703125 0 
C 60.203125 0 58.59375 1.078125 58.59375 5.546875 
C 58.59375 7.921875 59.796875 16.9375 59.90625 17.4375 
C 60.40625 21.09375 60.40625 21.5 60.40625 22.28125 
C 60.40625 29.515625 54.5 32.59375 50.703125 33.796875 
z
" id="CMMI12-82"/>
     </defs>
     <g transform="translate(295.420453 44.068244)scale(0.08 -0.08)">
      <use transform="translate(0 14.943915)scale(0.996264)" xlink:href="#CMMI12-27"/>
      <use transform="translate(55.445461 0)scale(0.697382)" xlink:href="#CMMI12-82"/>
      <use transform="translate(107.994891 0)scale(0.697382)" xlink:href="#CMMI12-82"/>
      <use transform="translate(179.916028 0)scale(0.697382)" xlink:href="#CMMI12-99"/>
      <use transform="translate(209.30416 0)scale(0.697382)" xlink:href="#CMMI12-97"/>
      <use transform="translate(245.149506 0)scale(0.697382)" xlink:href="#CMMI12-108"/>
      <use transform="translate(267.02329 0)scale(0.697382)" xlink:href="#CMMI12-108"/>
     </g>
    </g>
    <g id="line2d_24">
     <path d="M 273.020453 52.41799 
L 289.020453 52.41799 
" style="fill:none;stroke:#2ca02c;stroke-linecap:square;stroke-width:0.7;"/>
    </g>
    <g id="line2d_25"/>
    <g id="text_18">
     <!-- $\sigma_{BF \; call}$ -->
     <defs>
      <path d="M 36.59375 61.171875 
C 37.5 64.890625 37.90625 65.09375 41.796875 65.09375 
L 54.796875 65.09375 
C 66.09375 65.09375 66.09375 55.421875 66.09375 54.515625 
C 66.09375 46.359375 58 36 44.796875 36 
L 30.40625 36 
z
M 53.5 35.1875 
C 64.40625 37.203125 74.296875 44.859375 74.296875 54.109375 
C 74.296875 61.96875 67.40625 68 56.09375 68 
L 24 68 
C 22.09375 68 21.203125 68 21.203125 66.09375 
C 21.203125 65.09375 22.09375 65.09375 23.59375 65.09375 
C 29.703125 65.09375 29.703125 64.28125 29.703125 63.171875 
C 29.703125 62.984375 29.703125 62.375 29.296875 60.859375 
L 15.796875 7.328125 
C 14.90625 3.875 14.703125 2.890625 7.703125 2.890625 
C 5.796875 2.890625 4.796875 2.890625 4.796875 1.09375 
C 4.796875 0 5.40625 0 7.40625 0 
L 41.703125 0 
C 57 0 68.796875 11.453125 68.796875 21.390625 
C 68.796875 29.46875 61.59375 34.390625 53.5 35.1875 
z
M 39.296875 2.890625 
L 25.796875 2.890625 
C 24.40625 2.890625 24.203125 2.890625 23.59375 2.984375 
C 22.5 3.09375 22.40625 3.28125 22.40625 4.078125 
C 22.40625 4.765625 22.59375 5.359375 22.796875 6.234375 
L 29.796875 34 
L 48.59375 34 
C 60.40625 34 60.40625 23.171875 60.40625 22.375 
C 60.40625 12.9375 51.703125 2.890625 39.296875 2.890625 
z
" id="CMMI12-66"/>
      <path d="M 29.703125 32.09375 
L 39.296875 32.09375 
C 46.90625 32.09375 47.5 30.421875 47.5 27.5625 
C 47.5 26.296875 47.296875 24.921875 46.796875 22.75 
C 46.59375 22.359375 46.5 21.859375 46.5 21.671875 
C 46.5 20.984375 46.90625 20.59375 47.59375 20.59375 
C 48.40625 20.59375 48.5 20.984375 48.90625 22.5625 
L 54.703125 45.765625 
C 54.703125 46.171875 54.40625 46.765625 53.703125 46.765625 
C 52.796875 46.765625 52.703125 46.375 52.296875 44.65625 
C 50.203125 37.109375 48.203125 35 39.5 35 
L 30.40625 35 
L 36.90625 61.0625 
C 37.796875 64.59375 38 64.890625 42.09375 64.890625 
L 55.5 64.890625 
C 68 64.890625 69.796875 61.171875 69.796875 54.015625 
C 69.796875 53.421875 69.796875 51.203125 69.5 48.578125 
C 69.40625 48.1875 69.203125 46.875 69.203125 46.46875 
C 69.203125 45.65625 69.703125 45.359375 70.296875 45.359375 
C 71 45.359375 71.40625 45.765625 71.59375 47.578125 
L 73.703125 65.1875 
C 73.703125 65.484375 73.90625 66.484375 73.90625 66.6875 
C 73.90625 67.796875 73 67.796875 71.203125 67.796875 
L 23.796875 67.796875 
C 21.90625 67.796875 20.90625 67.796875 20.90625 65.984375 
C 20.90625 64.890625 21.59375 64.890625 23.296875 64.890625 
C 29.5 64.890625 29.5 64.1875 29.5 63.078125 
C 29.5 62.578125 29.40625 62.171875 29.09375 61.0625 
L 15.59375 7.3125 
C 14.703125 3.875 14.5 2.890625 7.5 2.890625 
C 5.59375 2.890625 4.59375 2.890625 4.59375 1.09375 
C 4.59375 0 5.5 0 6.09375 0 
C 8 0 10 0.1875 11.90625 0.1875 
L 24.90625 0.1875 
C 27.09375 0.1875 29.5 0 31.703125 0 
C 32.59375 0 33.796875 0 33.796875 1.796875 
C 33.796875 2.890625 33.203125 2.890625 31 2.890625 
C 23.09375 2.890625 22.90625 3.578125 22.90625 5.0625 
C 22.90625 5.546875 23.09375 6.328125 23.296875 7.015625 
z
" id="CMMI12-70"/>
     </defs>
     <g transform="translate(295.420453 55.21799)scale(0.08 -0.08)">
      <use transform="translate(0 14.943915)scale(0.996264)" xlink:href="#CMMI12-27"/>
      <use transform="translate(55.445461 0)scale(0.697382)" xlink:href="#CMMI12-66"/>
      <use transform="translate(110.840087 0)scale(0.697382)" xlink:href="#CMMI12-70"/>
      <use transform="translate(183.899306 0)scale(0.697382)" xlink:href="#CMMI12-99"/>
      <use transform="translate(213.287437 0)scale(0.697382)" xlink:href="#CMMI12-97"/>
      <use transform="translate(249.132784 0)scale(0.697382)" xlink:href="#CMMI12-108"/>
      <use transform="translate(271.006568 0)scale(0.697382)" xlink:href="#CMMI12-108"/>
     </g>
    </g>
    <g id="line2d_26">
     <path d="M 273.020453 63.567735 
L 289.020453 63.567735 
" style="fill:none;stroke:#d62728;stroke-linecap:square;stroke-width:0.7;"/>
    </g>
    <g id="line2d_27"/>
    <g id="text_19">
     <!-- $\sigma_{ATM}$ -->
     <defs>
      <path d="M 17 11.25 
C 13.5 5.234375 10.09375 3.203125 5.296875 2.890625 
C 4.203125 2.796875 3.40625 2.796875 3.40625 1 
C 3.40625 0.390625 3.90625 0 4.59375 0 
C 6.40625 0 10.90625 0.1875 12.703125 0.1875 
C 15.59375 0.1875 18.796875 0 21.59375 0 
C 22.203125 0 23.40625 0 23.40625 1.890625 
C 23.40625 2.796875 22.59375 2.890625 22 2.890625 
C 19.703125 3.09375 17.796875 3.90625 17.796875 6.359375 
C 17.796875 7.78125 18.40625 8.90625 19.703125 11.15625 
L 27.296875 24 
L 52.796875 24 
C 52.90625 23.078125 52.90625 22.265625 53 21.34375 
C 53.296875 18.6875 54.5 8.09375 54.5 6.15625 
C 54.5 3.09375 49.40625 2.890625 47.796875 2.890625 
C 46.703125 2.890625 45.59375 2.890625 45.59375 1.09375 
C 45.59375 0 46.5 0 47.09375 0 
C 48.796875 0 50.796875 0.1875 52.5 0.1875 
L 58.203125 0.1875 
C 64.296875 0.1875 68.703125 0 68.796875 0 
C 69.5 0 70.59375 0 70.59375 1.890625 
C 70.59375 2.890625 69.703125 2.890625 68.203125 2.890625 
C 62.703125 2.890625 62.59375 3.8125 62.296875 6.875 
L 56.203125 68.796875 
C 56 70.796875 55.59375 71 54.5 71 
C 53.5 71 52.90625 70.796875 52 69.296875 
z
M 29 26.890625 
L 49.09375 59.859375 
L 52.5 26.890625 
z
" id="CMMI12-65"/>
      <path d="M 41.703125 60.71875 
C 42.296875 63.09375 42.5 64 44 64.390625 
C 44.796875 64.59375 48.09375 64.59375 50.203125 64.59375 
C 60.203125 64.59375 64.90625 64.203125 64.90625 56.4375 
C 64.90625 54.9375 64.5 51.15625 63.90625 47.46875 
L 63.796875 46.28125 
C 63.796875 45.890625 64.203125 45.28125 64.796875 45.28125 
C 65.796875 45.28125 65.796875 45.78125 66.09375 47.375 
L 69 64.984375 
C 69.203125 65.890625 69.203125 66.09375 69.203125 66.390625 
C 69.203125 67.484375 68.59375 67.484375 66.59375 67.484375 
L 11.90625 67.484375 
C 9.59375 67.484375 9.5 67.390625 8.90625 65.59375 
L 2.796875 47.671875 
C 2.703125 47.46875 2.40625 46.375 2.40625 46.28125 
C 2.40625 45.78125 2.796875 45.28125 3.40625 45.28125 
C 4.203125 45.28125 4.40625 45.6875 4.796875 46.984375 
C 9 59.015625 11.09375 64.59375 24.40625 64.59375 
L 31.09375 64.59375 
C 33.5 64.59375 34.5 64.59375 34.5 63.5 
C 34.5 63.203125 34.5 63 34 61.203125 
L 20.59375 7.765625 
C 19.59375 3.890625 19.40625 2.890625 8.796875 2.890625 
C 6.296875 2.890625 5.59375 2.890625 5.59375 1 
C 5.59375 0 6.703125 0 7.203125 0 
C 9.703125 0 12.296875 0.1875 14.796875 0.1875 
L 30.40625 0.1875 
C 32.90625 0.1875 35.59375 0 38.09375 0 
C 39.203125 0 40.203125 0 40.203125 1.890625 
C 40.203125 2.890625 39.5 2.890625 36.90625 2.890625 
C 27.90625 2.890625 27.90625 3.78125 27.90625 5.28125 
C 27.90625 5.375 27.90625 6.078125 28.296875 7.671875 
z
" id="CMMI12-84"/>
      <path d="M 90.796875 60.71875 
C 91.703125 64.09375 91.90625 65.09375 99 65.09375 
C 100.90625 65.09375 101.796875 65.09375 101.796875 66.984375 
C 101.796875 68 101.09375 68 99.203125 68 
L 87.203125 68 
C 84.703125 68 84.59375 67.890625 83.5 66.296875 
L 47 8.859375 
L 39.5 65.796875 
C 39.203125 68 39.09375 68 36.5 68 
L 24.09375 68 
C 22.203125 68 21.296875 68 21.296875 66.09375 
C 21.296875 65.09375 22.203125 65.09375 23.703125 65.09375 
C 29.796875 65.09375 29.796875 64.296875 29.796875 63.203125 
C 29.796875 63 29.796875 62.40625 29.40625 60.90625 
L 16.59375 10.15625 
C 15.40625 5.375 13.09375 3.1875 6.40625 2.890625 
C 6.09375 2.890625 4.90625 2.796875 4.90625 1.09375 
C 4.90625 0 5.796875 0 6.203125 0 
C 8.203125 0 13.296875 0.1875 15.296875 0.1875 
L 20.09375 0.1875 
C 21.5 0.1875 23.203125 0 24.59375 0 
C 25.296875 0 26.40625 0 26.40625 1.890625 
C 26.40625 2.796875 25.40625 2.890625 25 2.890625 
C 21.703125 2.984375 18.5 3.59375 18.5 7.171875 
C 18.5 8.171875 18.5 8.265625 18.90625 9.65625 
L 32.703125 64.5 
L 32.796875 64.5 
L 41.09375 2.6875 
C 41.40625 0.296875 41.5 0 42.40625 0 
C 43.5 0 44 0.796875 44.5 1.6875 
L 84.703125 64.984375 
L 84.796875 64.984375 
L 70.296875 7.375 
C 69.40625 3.890625 69.203125 2.890625 62.203125 2.890625 
C 60.296875 2.890625 59.296875 2.890625 59.296875 1.09375 
C 59.296875 0 60.203125 0 60.796875 0 
C 62.5 0 64.5 0.1875 66.203125 0.1875 
L 78 0.1875 
C 79.703125 0.1875 81.796875 0 83.5 0 
C 84.296875 0 85.40625 0 85.40625 1.890625 
C 85.40625 2.890625 84.5 2.890625 83 2.890625 
C 76.90625 2.890625 76.90625 3.6875 76.90625 4.6875 
C 76.90625 4.78125 76.90625 5.484375 77.09375 6.28125 
z
" id="CMMI12-77"/>
     </defs>
     <g transform="translate(295.420453 66.367735)scale(0.08 -0.08)">
      <use transform="translate(0 14.943915)scale(0.996264)" xlink:href="#CMMI12-27"/>
      <use transform="translate(55.445461 0)scale(0.697382)" xlink:href="#CMMI12-65"/>
      <use transform="translate(106.634757 0)scale(0.697382)" xlink:href="#CMMI12-84"/>
      <use transform="translate(156.141079 0)scale(0.697382)" xlink:href="#CMMI12-77"/>
     </g>
    </g>
    <g id="line2d_28">
     <path d="M 341.985203 30.118498 
L 357.985203 30.118498 
" style="fill:none;stroke:#9467bd;stroke-linecap:square;stroke-width:0.7;"/>
    </g>
    <g id="line2d_29"/>
    <g id="text_20">
     <!-- $\sigma_{RR \; put}$ -->
     <defs>
      <path d="M 4.296875 -12.40625 
C 3.59375 -15.328125 3.203125 -16.109375 -0.90625 -16.109375 
C -2.109375 -16.109375 -3.109375 -16.109375 -3.109375 -18 
C -3.109375 -18.203125 -3 -19 -1.90625 -19 
C -0.609375 -19 0.796875 -18.8125 2.09375 -18.8125 
L 6.40625 -18.8125 
C 8.5 -18.8125 13.59375 -19 15.703125 -19 
C 16.296875 -19 17.5 -19 17.5 -17.203125 
C 17.5 -16.109375 16.796875 -16.109375 15.09375 -16.109375 
C 10.5 -16.109375 10.203125 -15.421875 10.203125 -14.640625 
C 10.203125 -13.484375 14.703125 3.390625 15.296875 5.6875 
C 16.40625 2.890625 19.09375 -1 24.296875 -1 
C 35.59375 -1 47.796875 13.65625 47.796875 28.328125 
C 47.796875 37.5 42.59375 44 35.09375 44 
C 28.703125 44 23.296875 37.796875 22.203125 36.40625 
C 21.40625 41.390625 17.5 44 13.5 44 
C 10.59375 44 8.296875 42.59375 6.40625 38.796875 
C 4.59375 35.203125 3.203125 29.125 3.203125 28.71875 
C 3.203125 28.328125 3.59375 27.828125 4.296875 27.828125 
C 5.09375 27.828125 5.203125 27.921875 5.796875 30.21875 
C 7.296875 36.109375 9.203125 41.984375 13.203125 41.984375 
C 15.5 41.984375 16.296875 40.390625 16.296875 37.40625 
C 16.296875 35.015625 16 34.015625 15.59375 32.21875 
z
M 21.59375 31.125 
C 22.296875 33.90625 25.09375 36.8125 26.703125 38.203125 
C 27.796875 39.203125 31.09375 41.984375 34.90625 41.984375 
C 39.296875 41.984375 41.296875 37.609375 41.296875 32.421875 
C 41.296875 27.625 38.5 16.359375 36 11.171875 
C 33.5 5.78125 28.90625 1 24.296875 1 
C 17.5 1 16.40625 9.578125 16.40625 9.96875 
C 16.40625 10.265625 16.59375 11.0625 16.703125 11.5625 
z
" id="CMMI12-112"/>
      <path d="M 34.09375 5.78125 
C 35.40625 0.1875 40.203125 -1 42.59375 -1 
C 45.796875 -1 48.203125 1.09375 49.796875 4.484375 
C 51.5 8.078125 52.796875 13.953125 52.796875 14.265625 
C 52.796875 14.75 52.40625 15.15625 51.796875 15.15625 
C 50.90625 15.15625 50.796875 14.65625 50.40625 13.15625 
C 48.59375 6.28125 46.796875 1 42.796875 1 
C 39.796875 1 39.796875 4.28125 39.796875 5.578125 
C 39.796875 7.875 40.09375 8.875 41.09375 13.0625 
C 41.796875 15.75 42.5 18.453125 43.09375 21.234375 
L 47.203125 37.5 
C 47.90625 40 47.90625 40.1875 47.90625 40.484375 
C 47.90625 41.984375 46.703125 43 45.203125 43 
C 42.296875 43 41.59375 40.484375 41 38 
C 40 34.109375 34.59375 12.65625 33.90625 9.171875 
C 33.796875 9.171875 29.90625 1 22.59375 1 
C 17.40625 1 16.40625 5.484375 16.40625 9.171875 
C 16.40625 14.859375 19.203125 22.84375 21.796875 29.53125 
C 23 32.71875 23.5 34.015625 23.5 36.015625 
C 23.5 40.296875 20.40625 44 15.59375 44 
C 6.40625 44 2.703125 29.53125 2.703125 28.71875 
C 2.703125 28.328125 3.09375 27.828125 3.796875 27.828125 
C 4.703125 27.828125 4.796875 28.234375 5.203125 29.625 
C 7.59375 38.203125 11.5 41.984375 15.296875 41.984375 
C 16.296875 41.984375 17.90625 41.890625 17.90625 38.703125 
C 17.90625 36.109375 16.796875 33.21875 15.296875 29.421875 
C 10.90625 17.546875 10.40625 13.765625 10.40625 10.765625 
C 10.40625 0.59375 18.09375 -1 22.203125 -1 
C 28.59375 -1 32.09375 3.390625 34.09375 5.78125 
z
" id="CMMI12-117"/>
      <path d="M 20.09375 40.09375 
L 29.296875 40.09375 
C 31.203125 40.09375 32.203125 40.09375 32.203125 41.890625 
C 32.203125 43 31.59375 43 29.59375 43 
L 20.796875 43 
L 24.5 57.25 
C 24.90625 58.625 24.90625 58.8125 24.90625 59.5 
C 24.90625 61.09375 23.59375 62 22.296875 62 
C 21.5 62 19.203125 61.6875 18.40625 58.53125 
L 14.5 43 
L 5.09375 43 
C 3.09375 43 2.203125 43 2.203125 41.09375 
C 2.203125 40.09375 2.90625 40.09375 4.796875 40.09375 
L 13.703125 40.09375 
L 7.09375 13.765625 
C 6.296875 10.265625 6 9.265625 6 7.96875 
C 6 3.28125 9.296875 -1 14.90625 -1 
C 25 -1 30.40625 13.5625 30.40625 14.265625 
C 30.40625 14.859375 30 15.15625 29.40625 15.15625 
C 29.203125 15.15625 28.796875 15.15625 28.59375 14.75 
C 28.5 14.65625 28.40625 14.5625 27.703125 12.96875 
C 25.59375 7.96875 21 1 15.203125 1 
C 12.203125 1 12 3.484375 12 5.6875 
C 12 5.78125 12 7.671875 12.296875 8.875 
z
" id="CMMI12-116"/>
     </defs>
     <g transform="translate(364.385203 32.918498)scale(0.08 -0.08)">
      <use transform="translate(0 14.943915)scale(0.996264)" xlink:href="#CMMI12-27"/>
      <use transform="translate(55.445461 0)scale(0.697382)" xlink:href="#CMMI12-82"/>
      <use transform="translate(107.994891 0)scale(0.697382)" xlink:href="#CMMI12-82"/>
      <use transform="translate(179.916028 0)scale(0.697382)" xlink:href="#CMMI12-112"/>
      <use transform="translate(214.187535 0)scale(0.697382)" xlink:href="#CMMI12-117"/>
      <use transform="translate(253.051591 0)scale(0.697382)" xlink:href="#CMMI12-116"/>
     </g>
    </g>
    <g id="line2d_30">
     <path d="M 341.985203 41.268244 
L 357.985203 41.268244 
" style="fill:none;stroke:#8c564b;stroke-linecap:square;stroke-width:0.7;"/>
    </g>
    <g id="line2d_31"/>
    <g id="text_21">
     <!-- $\sigma_{BF \; call}$ -->
     <g transform="translate(364.385203 44.068244)scale(0.08 -0.08)">
      <use transform="translate(0 14.943915)scale(0.996264)" xlink:href="#CMMI12-27"/>
      <use transform="translate(55.445461 0)scale(0.697382)" xlink:href="#CMMI12-66"/>
      <use transform="translate(110.840087 0)scale(0.697382)" xlink:href="#CMMI12-70"/>
      <use transform="translate(183.899306 0)scale(0.697382)" xlink:href="#CMMI12-99"/>
      <use transform="translate(213.287437 0)scale(0.697382)" xlink:href="#CMMI12-97"/>
      <use transform="translate(249.132784 0)scale(0.697382)" xlink:href="#CMMI12-108"/>
      <use transform="translate(271.006568 0)scale(0.697382)" xlink:href="#CMMI12-108"/>
     </g>
    </g>
    <g id="line2d_32">
     <path d="M 341.985203 52.41799 
L 357.985203 52.41799 
" style="fill:none;stroke:#e377c2;stroke-linecap:square;stroke-width:0.7;"/>
    </g>
    <g id="line2d_33"/>
    <g id="text_22">
     <!-- $\sigma_{10 \; put}$ -->
     <g transform="translate(364.385203 55.21799)scale(0.08 -0.08)">
      <use transform="translate(0 14.943915)scale(0.996264)" xlink:href="#CMMI12-27"/>
      <use transform="translate(55.445461 0)scale(0.697382)" xlink:href="#CMR17-49"/>
      <use transform="translate(87.428643 0)scale(0.697382)" xlink:href="#CMR17-48"/>
      <use transform="translate(138.783532 0)scale(0.697382)" xlink:href="#CMMI12-112"/>
      <use transform="translate(173.055038 0)scale(0.697382)" xlink:href="#CMMI12-117"/>
      <use transform="translate(211.919094 0)scale(0.697382)" xlink:href="#CMMI12-116"/>
     </g>
    </g>
   </g>
  </g>
 </g>
 <defs>
  <clipPath id="p50e928214a">
   <rect height="163.08" width="362.7" x="39.449952" y="20.118498"/>
  </clipPath>
 </defs>
</svg>
